AGaramondPro-Regular.ufo
<glyph name="dollar" format="1">
  <advance width="500"/>
  <unicode hex="0024"/>
  <outline>
    <contour>
      <point x="251" y="383" type="line" name="hr01"/>
      <point x="200" y="411"/>
      <point x="158" y="449"/>
      <point x="158" y="503" type="curve" smooth="yes"/>
      <point x="158" y="547"/>
      <point x="176" y="610"/>
      <point x="278" y="611" type="curve"/>
    </contour>
    <contour>
      <point x="272" y="285" type="line"/>
      <point x="361" y="237"/>
      <point x="371" y="184"/>
      <point x="371" y="139" type="curve" smooth="yes"/>
      <point x="371" y="59"/>
      <point x="308" y="30"/>
      <point x="241" y="31" type="curve"/>
    </contour>
    <contour>
      <point x="325" y="717" type="line" name="hr02"/>
      <point x="319" y="724"/>
      <point x="296" y="724"/>
      <point x="291" y="717" type="curve"/>
      <point x="282" y="640" type="line" name="hr03"/>
      <point x="160" y="637"/>
      <point x="91" y="568"/>
      <point x="91" y="480" type="curve" smooth="yes"/>
      <point x="91" y="406"/>
      <point x="145" y="349"/>
      <point x="203" y="320" type="curve" smooth="yes"/>
      <point x="241" y="301" type="line"/>
      <point x="208" y="34" type="line"/>
      <point x="124" y="52"/>
      <point x="90" y="125"/>
      <point x="77" y="168" type="curve"/>
      <point x="70" y="175"/>
      <point x="59" y="171"/>
      <point x="55" y="165" type="curve"/>
      <point x="55" y="107"/>
      <point x="67" y="53"/>
      <point x="83" y="34" type="curve"/>
      <point x="98" y="25"/>
      <point x="138" y="6"/>
      <point x="205" y="2" type="curve"/>
      <point x="193" y="-94" type="line"/>
      <point x="200" y="-100"/>
      <point x="218" y="-100"/>
      <point x="226" y="-94" type="curve"/>
      <point x="237" y="0" type="line"/>
      <point x="365" y="0"/>
      <point x="444" y="73"/>
      <point x="444" y="173" type="curve" smooth="yes"/>
      <point x="444" y="255"/>
      <point x="393" y="308"/>
      <point x="324" y="344" type="curve" smooth="yes"/>
      <point x="282" y="366" type="line"/>
      <point x="312" y="608" type="line"/>
      <point x="381" y="592"/>
      <point x="402" y="538"/>
      <point x="414" y="508" type="curve"/>
      <point x="420" y="502"/>
      <point x="433" y="504"/>
      <point x="436" y="511" type="curve"/>
      <point x="435" y="548"/>
      <point x="424" y="602"/>
      <point x="415" y="624" type="curve"/>
      <point x="379" y="632"/>
      <point x="346" y="638"/>
      <point x="315" y="639" type="curve"/>
    </contour>
  </outline>
</glyph>
<glyph name="comma" format="1">
  <advance width="250"/>
  <unicode hex="002C"/>
  <outline>
    <contour>
      <point x="113" y="122" type="curve" smooth="yes" name="hr00"/>
      <point x="81" y="122"/>
      <point x="64" y="100"/>
      <point x="64" y="77" type="curve" smooth="yes"/>
      <point x="64" y="65"/>
      <point x="68" y="55"/>
      <point x="81" y="48" type="curve" smooth="yes"/>
      <point x="90" y="43"/>
      <point x="138" y="32"/>
      <point x="138" y="-10" type="curve" smooth="yes"/>
      <point x="138" y="-62"/>
      <point x="87" y="-87"/>
      <point x="56" y="-97" type="curve"/>
      <point x="50" y="-102"/>
      <point x="53" y="-118"/>
      <point x="62" y="-121" type="curve"/>
      <point x="132" y="-100"/>
      <point x="192" y="-55"/>
      <point x="192" y="24" type="curve" smooth="yes"/>
      <point x="192" y="90"/>
      <point x="148" y="122"/>
    </contour>
  </outline>
</glyph>
<glyph name="slash" format="1">
  <advance width="327"/>
  <unicode hex="002F"/>
  <outline>
    <contour>
      <point x="297" y="686" type="line" name="hr00"/>
      <point x="239" y="686" type="line"/>
      <point x="30" y="-16" type="line"/>
      <point x="88" y="-16" type="line"/>
    </contour>
  </outline>
</glyph>
<glyph name="four" format="1">
  <advance width="500"/>
  <unicode hex="0034"/>
  <outline>
    <contour>
      <point x="273" y="189" type="line" smooth="yes" name="hr00"/>
      <point x="299" y="189"/>
      <point x="302" y="188"/>
      <point x="302" y="164" type="curve" smooth="yes"/>
      <point x="302" y="122" type="line" smooth="yes"/>
      <point x="302" y="45"/>
      <point x="299" y="28"/>
      <point x="257" y="25" type="curve" smooth="yes"/>
      <point x="212" y="22" type="line"/>
      <point x="206" y="16"/>
      <point x="207" y="0"/>
      <point x="214" y="-3" type="curve"/>
      <point x="258" y="-1"/>
      <point x="303" y="0"/>
      <point x="339" y="0" type="curve" smooth="yes"/>
      <point x="370" y="0"/>
      <point x="407" y="-1"/>
      <point x="443" y="-3" type="curve"/>
      <point x="450" y="0"/>
      <point x="451" y="16"/>
      <point x="445" y="22" type="curve"/>
      <point x="419" y="25" type="line" smooth="yes"/>
      <point x="378" y="30"/>
      <point x="376" y="43"/>
      <point x="376" y="122" type="curve" smooth="yes"/>
      <point x="376" y="167" type="line" smooth="yes"/>
      <point x="376" y="188"/>
      <point x="381" y="189"/>
      <point x="406" y="189" type="curve" smooth="yes"/>
      <point x="460" y="189" type="line"/>
      <point x="469" y="198"/>
      <point x="469" y="224"/>
      <point x="460" y="231" type="curve"/>
      <point x="396" y="231" type="line" smooth="yes"/>
      <point x="379" y="231"/>
      <point x="376" y="235"/>
      <point x="376" y="254" type="curve" smooth="yes"/>
      <point x="376" y="447" type="line" smooth="yes"/>
      <point x="376" y="467"/>
      <point x="376" y="479"/>
      <point x="362" y="478" type="curve" smooth="yes"/>
      <point x="346" y="477"/>
      <point x="323" y="469"/>
      <point x="311" y="461" type="curve" smooth="yes"/>
      <point x="303" y="456"/>
      <point x="302" y="448"/>
      <point x="302" y="441" type="curve" smooth="yes"/>
      <point x="302" y="257" type="line" smooth="yes"/>
      <point x="302" y="234"/>
      <point x="298" y="231"/>
      <point x="274" y="231" type="curve" smooth="yes"/>
      <point x="119" y="231" type="line" smooth="yes"/>
      <point x="93" y="231"/>
      <point x="79" y="231"/>
      <point x="91" y="247" type="curve" smooth="yes"/>
      <point x="409" y="687" type="line" smooth="yes"/>
      <point x="412" y="691"/>
      <point x="414" y="695"/>
      <point x="414" y="698" type="curve" smooth="yes"/>
      <point x="414" y="703"/>
      <point x="409" y="706"/>
      <point x="399" y="706" type="curve" smooth="yes"/>
      <point x="382" y="706" type="line" smooth="yes"/>
      <point x="372" y="706"/>
      <point x="366" y="701"/>
      <point x="359" y="692" type="curve" smooth="yes"/>
      <point x="38" y="244" type="line" smooth="yes"/>
      <point x="24" y="224"/>
      <point x="20" y="218"/>
      <point x="20" y="206" type="curve" smooth="yes"/>
      <point x="20" y="196"/>
      <point x="25" y="189"/>
      <point x="34" y="189" type="curve" smooth="yes"/>
    </contour>
  </outline>
</glyph>
<glyph name="equal" format="1">
  <advance width="500"/>
  <unicode hex="003D"/>
  <outline>
    <contour>
      <point x="443" y="305" type="line" name="hr00"/>
      <point x="58" y="305" type="line"/>
      <point x="58" y="256" type="line"/>
      <point x="443" y="256" type="line"/>
    </contour>
    <contour>
      <point x="443" y="155" type="line"/>
      <point x="58" y="155" type="line"/>
      <point x="58" y="106" type="line"/>
      <point x="443" y="106" type="line"/>
    </contour>
  </outline>
</glyph>
<glyph name="question" format="1">
  <advance width="321"/>
  <unicode hex="003F"/>
  <outline>
    <contour>
      <point x="104" y="646" type="curve" smooth="yes" name="hr01"/>
      <point x="78" y="646"/>
      <point x="64" y="628"/>
      <point x="64" y="608" type="curve" smooth="yes"/>
      <point x="64" y="582"/>
      <point x="88" y="566"/>
      <point x="97" y="566" type="curve" smooth="yes"/>
      <point x="149" y="566"/>
      <point x="185" y="562"/>
      <point x="213" y="534" type="curve" smooth="yes"/>
      <point x="230" y="517"/>
      <point x="235" y="494"/>
      <point x="235" y="473" type="curve" smooth="yes"/>
      <point x="235" y="447"/>
      <point x="220" y="421"/>
      <point x="180" y="400" type="curve" smooth="yes"/>
      <point x="131" y="374" type="line" smooth="yes" name="hr02"/>
      <point x="101" y="358"/>
      <point x="77" y="343"/>
      <point x="77" y="302" type="curve" smooth="yes"/>
      <point x="77" y="272"/>
      <point x="99" y="226"/>
      <point x="113" y="203" type="curve"/>
      <point x="119" y="198"/>
      <point x="130" y="200"/>
      <point x="134" y="208" type="curve"/>
      <point x="129" y="228"/>
      <point x="124" y="250"/>
      <point x="124" y="266" type="curve" smooth="yes"/>
      <point x="124" y="284"/>
      <point x="136" y="298"/>
      <point x="159" y="310" type="curve" smooth="yes"/>
      <point x="238" y="352" type="line" smooth="yes"/>
      <point x="253" y="360"/>
      <point x="276" y="387"/>
      <point x="276" y="442" type="curve" smooth="yes"/>
      <point x="276" y="548"/>
      <point x="184" y="646"/>
    </contour>
    <contour>
      <point x="126" y="-14" type="curve" smooth="yes"/>
      <point x="160" y="-14"/>
      <point x="182" y="9"/>
      <point x="182" y="41" type="curve" smooth="yes"/>
      <point x="182" y="73"/>
      <point x="160" y="100"/>
      <point x="126" y="100" type="curve" smooth="yes"/>
      <point x="94" y="100"/>
      <point x="70" y="75"/>
      <point x="70" y="41" type="curve" smooth="yes"/>
      <point x="70" y="7"/>
      <point x="97" y="-14"/>
    </contour>
  </outline>
</glyph>
<glyph name="G" format="1">
  <advance width="747"/>
  <unicode hex="0047"/>
  <outline>
    <contour>
      <point x="648" y="158" type="line" smooth="yes" name="hr01"/>
      <point x="648" y="209"/>
      <point x="649" y="237"/>
      <point x="691" y="242" type="curve" smooth="yes"/>
      <point x="707" y="244" type="line"/>
      <point x="714" y="250"/>
      <point x="713" y="265"/>
      <point x="706" y="269" type="curve"/>
      <point x="673" y="267"/>
      <point x="639" y="266"/>
      <point x="600" y="266" type="curve" smooth="yes"/>
      <point x="541" y="266"/>
      <point x="486" y="267"/>
      <point x="457" y="269" type="curve"/>
      <point x="450" y="266"/>
      <point x="449" y="248"/>
      <point x="457" y="244" type="curve"/>
      <point x="501" y="239" type="line" smooth="yes"/>
      <point x="563" y="232"/>
      <point x="566" y="226"/>
      <point x="566" y="142" type="curve" smooth="yes"/>
      <point x="566" y="102" type="line" smooth="yes"/>
      <point x="566" y="70"/>
      <point x="561" y="52"/>
      <point x="556" y="45" type="curve" smooth="yes"/>
      <point x="545" y="28"/>
      <point x="508" y="15"/>
      <point x="446" y="15" type="curve" smooth="yes"/>
      <point x="245" y="15"/>
      <point x="146" y="166"/>
      <point x="146" y="358" type="curve" smooth="yes"/>
      <point x="146" y="508"/>
      <point x="231" y="646"/>
      <point x="425" y="646" type="curve" smooth="yes"/>
      <point x="527" y="646"/>
      <point x="602" y="612"/>
      <point x="630" y="504" type="curve"/>
      <point x="636" y="498"/>
      <point x="654" y="499"/>
      <point x="657" y="507" type="curve" name="hr02"/>
      <point x="648" y="567"/>
      <point x="642" y="619"/>
      <point x="642" y="652" type="curve"/>
      <point x="630" y="650"/>
      <point x="599" y="657"/>
      <point x="580" y="661" type="curve" smooth="yes"/>
      <point x="563" y="665"/>
      <point x="510" y="676"/>
      <point x="453" y="676" type="curve" smooth="yes" name="hr03"/>
      <point x="302" y="676"/>
      <point x="203" y="629"/>
      <point x="136" y="559" type="curve" smooth="yes"/>
      <point x="74" y="493"/>
      <point x="46" y="407"/>
      <point x="46" y="322" type="curve" smooth="yes"/>
      <point x="46" y="234"/>
      <point x="78" y="155"/>
      <point x="138" y="95" type="curve" smooth="yes"/>
      <point x="215" y="17"/>
      <point x="324" y="-16"/>
      <point x="443" y="-16" type="curve" smooth="yes"/>
      <point x="497" y="-16"/>
      <point x="569" y="-4"/>
      <point x="622" y="10" type="curve" smooth="yes"/>
      <point x="641" y="15"/>
      <point x="659" y="19"/>
      <point x="671" y="19" type="curve"/>
      <point x="675" y="22"/>
      <point x="675" y="28"/>
      <point x="672" y="31" type="curve"/>
      <point x="654" y="38"/>
      <point x="648" y="62"/>
      <point x="648" y="102" type="curve" smooth="yes"/>
    </contour>
  </outline>
</glyph>
<glyph name="Q" format="1">
  <advance width="795"/>
  <unicode hex="0051"/>
  <outline>
    <contour>
      <point x="402" y="676" type="curve" smooth="yes" name="hr00"/>
      <point x="196" y="676"/>
      <point x="46" y="523"/>
      <point x="46" y="323" type="curve" smooth="yes"/>
      <point x="46" y="180"/>
      <point x="127" y="61"/>
      <point x="260" y="11" type="curve" smooth="yes"/>
      <point x="296" y="-3"/>
      <point x="332" y="-9"/>
      <point x="358" y="-13" type="curve" smooth="yes"/>
      <point x="386" y="-18"/>
      <point x="395" y="-20"/>
      <point x="425" y="-50" type="curve" smooth="yes"/>
      <point x="462" y="-86"/>
      <point x="528" y="-144"/>
      <point x="610" y="-182" type="curve" smooth="yes"/>
      <point x="669" y="-209"/>
      <point x="726" y="-219"/>
      <point x="772" y="-219" type="curve" smooth="yes"/>
      <point x="807" y="-219"/>
      <point x="852" y="-211"/>
      <point x="884" y="-193" type="curve"/>
      <point x="887" y="-188"/>
      <point x="885" y="-179"/>
      <point x="879" y="-178" type="curve"/>
      <point x="865" y="-184"/>
      <point x="841" y="-187"/>
      <point x="831" y="-187" type="curve" smooth="yes"/>
      <point x="808" y="-187"/>
      <point x="775" y="-185"/>
      <point x="738" y="-173" type="curve" smooth="yes"/>
      <point x="658" y="-147"/>
      <point x="566" y="-65"/>
      <point x="515" y="-16" type="curve" smooth="yes"/>
      <point x="509" y="-10"/>
      <point x="505" y="-6"/>
      <point x="507" y="-1" type="curve"/>
      <point x="647" y="41"/>
      <point x="749" y="168"/>
      <point x="749" y="333" type="curve" smooth="yes"/>
      <point x="749" y="509"/>
      <point x="633" y="676"/>
    </contour>
    <contour>
      <point x="415" y="15" type="curve" smooth="yes"/>
      <point x="218" y="15"/>
      <point x="146" y="207"/>
      <point x="146" y="355" type="curve" smooth="yes"/>
      <point x="146" y="574"/>
      <point x="281" y="645"/>
      <point x="385" y="645" type="curve" smooth="yes"/>
      <point x="576" y="645"/>
      <point x="649" y="467"/>
      <point x="649" y="302" type="curve" smooth="yes"/>
      <point x="649" y="105"/>
      <point x="535" y="15"/>
    </contour>
  </outline>
</glyph>
<glyph name="W" format="1">
  <advance width="960"/>
  <unicode hex="0057"/>
  <outline>
    <contour>
      <point x="21" y="637" type="line" smooth="yes" name="hr00"/>
      <point x="63" y="633"/>
      <point x="75" y="606"/>
      <point x="94" y="565" type="curve" smooth="yes"/>
      <point x="159" y="426"/>
      <point x="221" y="287"/>
      <point x="285" y="148" type="curve" smooth="yes"/>
      <point x="298" y="119"/>
      <point x="337" y="29"/>
      <point x="354" y="-13" type="curve"/>
      <point x="359" y="-15"/>
      <point x="364" y="-16"/>
      <point x="369" y="-16" type="curve" smooth="yes"/>
      <point x="374" y="-16"/>
      <point x="378" y="-15"/>
      <point x="381" y="-13" type="curve"/>
      <point x="410" y="70"/>
      <point x="470" y="198"/>
      <point x="506" y="271" type="curve"/>
      <point x="537" y="201"/>
      <point x="595" y="76"/>
      <point x="627" y="-13" type="curve"/>
      <point x="631" y="-15"/>
      <point x="636" y="-16"/>
      <point x="641" y="-16" type="curve" smooth="yes"/>
      <point x="646" y="-16"/>
      <point x="650" y="-15"/>
      <point x="653" y="-13" type="curve"/>
      <point x="694" y="94"/>
      <point x="734" y="192"/>
      <point x="778" y="294" type="curve" smooth="yes"/>
      <point x="851" y="463" type="line" smooth="yes"/>
      <point x="911" y="602"/>
      <point x="920" y="632"/>
      <point x="970" y="637" type="curve" smooth="yes"/>
      <point x="989" y="639" type="line"/>
      <point x="996" y="647"/>
      <point x="995" y="660"/>
      <point x="987" y="663" type="curve"/>
      <point x="961" y="661"/>
      <point x="932" y="660"/>
      <point x="894" y="660" type="curve" smooth="yes"/>
      <point x="863" y="660"/>
      <point x="836" y="661"/>
      <point x="798" y="663" type="curve"/>
      <point x="790" y="659"/>
      <point x="789" y="648"/>
      <point x="797" y="639" type="curve"/>
      <point x="826" y="637" type="line" smooth="yes"/>
      <point x="847" y="636"/>
      <point x="859" y="628"/>
      <point x="859" y="614" type="curve" smooth="yes"/>
      <point x="859" y="602"/>
      <point x="842" y="559"/>
      <point x="829" y="523" type="curve" smooth="yes"/>
      <point x="822" y="505"/>
      <point x="769" y="372"/>
      <point x="749" y="324" type="curve" smooth="yes"/>
      <point x="720" y="253"/>
      <point x="690" y="183"/>
      <point x="659" y="113" type="curve"/>
      <point x="626" y="189"/>
      <point x="591" y="264"/>
      <point x="557" y="341" type="curve" smooth="yes"/>
      <point x="552" y="353"/>
      <point x="550" y="361"/>
      <point x="550" y="365" type="curve" smooth="yes"/>
      <point x="550" y="369"/>
      <point x="554" y="379"/>
      <point x="559" y="389" type="curve" smooth="yes"/>
      <point x="574" y="424"/>
      <point x="616" y="511"/>
      <point x="637" y="548" type="curve" smooth="yes"/>
      <point x="659" y="589"/>
      <point x="677" y="634"/>
      <point x="719" y="637" type="curve" smooth="yes"/>
      <point x="748" y="639" type="line"/>
      <point x="754" y="647"/>
      <point x="753" y="660"/>
      <point x="746" y="663" type="curve"/>
      <point x="723" y="661"/>
      <point x="683" y="660"/>
      <point x="650" y="660" type="curve" smooth="yes"/>
      <point x="613" y="660"/>
      <point x="583" y="661"/>
      <point x="556" y="663" type="curve"/>
      <point x="549" y="660"/>
      <point x="547" y="649"/>
      <point x="554" y="639" type="curve"/>
      <point x="584" y="637" type="line" smooth="yes"/>
      <point x="616" y="635"/>
      <point x="621" y="624"/>
      <point x="585" y="539" type="curve" smooth="yes"/>
      <point x="563" y="485"/>
      <point x="545" y="447"/>
      <point x="526" y="408" type="curve"/>
      <point x="498" y="470"/>
      <point x="470" y="533"/>
      <point x="449" y="582" type="curve" smooth="yes"/>
      <point x="430" y="627"/>
      <point x="431" y="634"/>
      <point x="470" y="637" type="curve" smooth="yes"/>
      <point x="496" y="639" type="line"/>
      <point x="502" y="647"/>
      <point x="501" y="660"/>
      <point x="494" y="663" type="curve"/>
      <point x="471" y="661"/>
      <point x="434" y="660"/>
      <point x="384" y="660" type="curve" smooth="yes"/>
      <point x="344" y="660"/>
      <point x="306" y="661"/>
      <point x="277" y="663" type="curve"/>
      <point x="269" y="659"/>
      <point x="268" y="647"/>
      <point x="275" y="639" type="curve"/>
      <point x="299" y="637" type="line" smooth="yes"/>
      <point x="333" y="634"/>
      <point x="348" y="613"/>
      <point x="363" y="582" type="curve" smooth="yes"/>
      <point x="401" y="502"/>
      <point x="438" y="422"/>
      <point x="473" y="342" type="curve" smooth="yes"/>
      <point x="478" y="330"/>
      <point x="481" y="321"/>
      <point x="481" y="316" type="curve" smooth="yes"/>
      <point x="481" y="311"/>
      <point x="474" y="294"/>
      <point x="465" y="275" type="curve" smooth="yes"/>
      <point x="439" y="219"/>
      <point x="412" y="163"/>
      <point x="388" y="113" type="curve"/>
      <point x="330" y="236"/>
      <point x="271" y="361"/>
      <point x="215" y="486" type="curve" smooth="yes"/>
      <point x="184" y="557"/>
      <point x="163" y="608"/>
      <point x="163" y="620" type="curve" smooth="yes"/>
      <point x="163" y="629"/>
      <point x="175" y="635"/>
      <point x="196" y="637" type="curve" smooth="yes"/>
      <point x="219" y="639" type="line"/>
      <point x="225" y="646"/>
      <point x="226" y="660"/>
      <point x="217" y="663" type="curve"/>
      <point x="182" y="661"/>
      <point x="131" y="660"/>
      <point x="103" y="660" type="curve" smooth="yes"/>
      <point x="72" y="660"/>
      <point x="27" y="661"/>
      <point x="0" y="663" type="curve"/>
      <point x="-8" y="659"/>
      <point x="-9" y="645"/>
      <point x="-3" y="639" type="curve"/>
    </contour>
  </outline>
</glyph>
<glyph name="bracketleft" format="1">
  <advance width="320"/>
  <unicode hex="005B"/>
  <outline>
    <contour>
      <point x="117" y="-150" type="line" name="hr00"/>
      <point x="186" y="-150" type="line" smooth="yes"/>
      <point x="223" y="-150"/>
      <point x="259" y="-148"/>
      <point x="296" y="-147" type="curve"/>
      <point x="303" y="-143"/>
      <point x="303" y="-132"/>
      <point x="297" y="-125" type="curve"/>
      <point x="208" y="-115" type="line" smooth="yes"/>
      <point x="195" y="-114"/>
      <point x="189" y="-111"/>
      <point x="183" y="-105" type="curve" smooth="yes"/>
      <point x="172" y="-94"/>
      <point x="170" y="-23"/>
      <point x="170" y="51" type="curve" smooth="yes"/>
      <point x="170" y="485" type="line" smooth="yes"/>
      <point x="170" y="559"/>
      <point x="172" y="630"/>
      <point x="183" y="641" type="curve" smooth="yes"/>
      <point x="189" y="647"/>
      <point x="195" y="650"/>
      <point x="208" y="651" type="curve" smooth="yes"/>
      <point x="297" y="661" type="line"/>
      <point x="303" y="668"/>
      <point x="303" y="679"/>
      <point x="296" y="683" type="curve"/>
      <point x="259" y="684"/>
      <point x="223" y="686"/>
      <point x="186" y="686" type="curve" smooth="yes"/>
      <point x="117" y="686" type="line"/>
    </contour>
  </outline>
</glyph>
<glyph name="grave" format="1">
  <advance width="360"/>
  <unicode hex="0060"/>
  <outline>
    <contour>
      <point x="139" y="640" type="line" smooth="yes" name="hr00"/>
      <point x="133" y="653"/>
      <point x="126" y="663"/>
      <point x="116" y="663" type="curve" smooth="yes"/>
      <point x="109" y="663"/>
      <point x="97" y="659"/>
      <point x="82" y="649" type="curve"/>
      <point x="70" y="639"/>
      <point x="63" y="631"/>
      <point x="63" y="624" type="curve" smooth="yes"/>
      <point x="63" y="616"/>
      <point x="68" y="607"/>
      <point x="80" y="594" type="curve" smooth="yes"/>
      <point x="197" y="467" type="line"/>
      <point x="203" y="466"/>
      <point x="218" y="470"/>
      <point x="218" y="479" type="curve"/>
    </contour>
  </outline>
</glyph>
<glyph name="k" format="1">
  <advance width="482"/>
  <unicode hex="006B"/>
  <outline>
    <contour>
      <point x="88" y="112" type="line" smooth="yes" name="hr01"/>
      <point x="88" y="40"/>
      <point x="87" y="30"/>
      <point x="50" y="25" type="curve" smooth="yes"/>
      <point x="28" y="22" type="line"/>
      <point x="20" y="17"/>
      <point x="22" y="0"/>
      <point x="29" y="-3" type="curve"/>
      <point x="59" y="-1"/>
      <point x="89" y="0"/>
      <point x="125" y="0" type="curve" smooth="yes"/>
      <point x="160" y="0"/>
      <point x="189" y="-1"/>
      <point x="222" y="-3" type="curve"/>
      <point x="229" y="0"/>
      <point x="231" y="17"/>
      <point x="224" y="22" type="curve"/>
      <point x="200" y="25" type="line" smooth="yes"/>
      <point x="164" y="30"/>
      <point x="162" y="40"/>
      <point x="162" y="112" type="curve" smooth="yes"/>
      <point x="162" y="167" type="line" smooth="yes"/>
      <point x="162" y="198"/>
      <point x="163" y="201"/>
      <point x="181" y="201" type="curve" smooth="yes"/>
      <point x="192" y="201"/>
      <point x="203" y="197"/>
      <point x="212" y="187" type="curve" smooth="yes"/>
      <point x="319" y="63" type="line" smooth="yes"/>
      <point x="332" y="48"/>
      <point x="336" y="41"/>
      <point x="336" y="35" type="curve" smooth="yes"/>
      <point x="336" y="29"/>
      <point x="326" y="27"/>
      <point x="311" y="25" type="curve" smooth="yes"/>
      <point x="293" y="22" type="line"/>
      <point x="286" y="18"/>
      <point x="287" y="1"/>
      <point x="295" y="-3" type="curve"/>
      <point x="324" y="-1"/>
      <point x="359" y="0"/>
      <point x="399" y="0" type="curve" smooth="yes"/>
      <point x="431" y="0"/>
      <point x="465" y="-1"/>
      <point x="494" y="-3" type="curve"/>
      <point x="502" y="0"/>
      <point x="503" y="17"/>
      <point x="496" y="22" type="curve"/>
      <point x="482" y="24" type="line" smooth="yes"/>
      <point x="464" y="27"/>
      <point x="444" y="33"/>
      <point x="430" y="46" type="curve" smooth="yes"/>
      <point x="410" y="65"/>
      <point x="375" y="104"/>
      <point x="336" y="148" type="curve" smooth="yes"/>
      <point x="302" y="186"/>
      <point x="286" y="205"/>
      <point x="269" y="228" type="curve" smooth="yes"/>
      <point x="263" y="236"/>
      <point x="264" y="241"/>
      <point x="276" y="252" type="curve" smooth="yes"/>
      <point x="294" y="269"/>
      <point x="328" y="305"/>
      <point x="367" y="336" type="curve" smooth="yes" name="hr02"/>
      <point x="393" y="357"/>
      <point x="410" y="367"/>
      <point x="430" y="371" type="curve" smooth="yes"/>
      <point x="462" y="377" type="line"/>
      <point x="468" y="382"/>
      <point x="467" y="399"/>
      <point x="460" y="402" type="curve" name="hr03"/>
      <point x="404" y="396"/>
      <point x="345" y="394"/>
      <point x="301" y="394" type="curve" smooth="yes" name="hr04"/>
      <point x="278" y="394" type="line"/>
      <point x="269" y="391"/>
      <point x="269" y="372"/>
      <point x="278" y="369" type="curve"/>
      <point x="302" y="366" type="line" smooth="yes"/>
      <point x="319" y="364"/>
      <point x="324" y="361"/>
      <point x="324" y="356" type="curve" smooth="yes"/>
      <point x="324" y="351"/>
      <point x="317" y="340"/>
      <point x="289" y="310" type="curve" smooth="yes"/>
      <point x="248" y="266" type="line" smooth="yes"/>
      <point x="221" y="238"/>
      <point x="202" y="227"/>
      <point x="180" y="227" type="curve" smooth="yes"/>
      <point x="163" y="227"/>
      <point x="162" y="229"/>
      <point x="162" y="242" type="curve" smooth="yes"/>
      <point x="162" y="585" type="line" smooth="yes"/>
      <point x="162" y="629"/>
      <point x="164" y="679"/>
      <point x="165" y="709" type="curve"/>
      <point x="163" y="713"/>
      <point x="159" y="715"/>
      <point x="155" y="715" type="curve"/>
      <point x="119" y="696"/>
      <point x="72" y="681"/>
      <point x="47" y="673" type="curve"/>
      <point x="42" y="670"/>
      <point x="42" y="656"/>
      <point x="47" y="653" type="curve" smooth="yes"/>
      <point x="57" y="647" type="line" smooth="yes"/>
      <point x="87" y="629"/>
      <point x="88" y="623"/>
      <point x="88" y="564" type="curve" smooth="yes"/>
    </contour>
  </outline>
</glyph>
<glyph name="q" format="1">
  <advance width="497"/>
  <unicode hex="0071"/>
  <outline>
    <contour>
      <point x="423" y="278" type="line" smooth="yes" name="hr00"/>
      <point x="423" y="341"/>
      <point x="425" y="375"/>
      <point x="431" y="399" type="curve"/>
      <point x="429" y="404"/>
      <point x="425" y="408"/>
      <point x="420" y="408" type="curve"/>
      <point x="409" y="398"/>
      <point x="401" y="391"/>
      <point x="393" y="391" type="curve" smooth="yes"/>
      <point x="384" y="391"/>
      <point x="373" y="394"/>
      <point x="358" y="398" type="curve" smooth="yes"/>
      <point x="344" y="402"/>
      <point x="308" y="408"/>
      <point x="275" y="408" type="curve" smooth="yes"/>
      <point x="146" y="408"/>
      <point x="35" y="327"/>
      <point x="35" y="182" type="curve" smooth="yes"/>
      <point x="35" y="104"/>
      <point x="89" y="-14"/>
      <point x="238" y="-14" type="curve" smooth="yes"/>
      <point x="277" y="-14"/>
      <point x="314" y="-4"/>
      <point x="340" y="11" type="curve"/>
      <point x="348" y="11"/>
      <point x="349" y="6"/>
      <point x="349" y="-13" type="curve" smooth="yes"/>
      <point x="349" y="-143" type="line" smooth="yes"/>
      <point x="349" y="-215"/>
      <point x="348" y="-226"/>
      <point x="311" y="-230" type="curve" smooth="yes"/>
      <point x="280" y="-233" type="line"/>
      <point x="273" y="-238"/>
      <point x="275" y="-255"/>
      <point x="282" y="-258" type="curve"/>
      <point x="320" y="-256"/>
      <point x="350" y="-255"/>
      <point x="386" y="-255" type="curve" smooth="yes"/>
      <point x="421" y="-255"/>
      <point x="450" y="-256"/>
      <point x="488" y="-258" type="curve"/>
      <point x="495" y="-255"/>
      <point x="497" y="-238"/>
      <point x="490" y="-233" type="curve"/>
      <point x="461" y="-228" type="line" smooth="yes"/>
      <point x="426" y="-222"/>
      <point x="423" y="-215"/>
      <point x="423" y="-143" type="curve" smooth="yes"/>
    </contour>
    <contour>
      <point x="349" y="82" type="line" smooth="yes"/>
      <point x="349" y="60"/>
      <point x="347" y="48"/>
      <point x="342" y="42" type="curve" smooth="yes"/>
      <point x="337" y="36"/>
      <point x="321" y="26"/>
      <point x="277" y="26" type="curve" smooth="yes"/>
      <point x="183" y="26"/>
      <point x="119" y="104"/>
      <point x="119" y="214" type="curve" smooth="yes"/>
      <point x="119" y="308"/>
      <point x="174" y="377"/>
      <point x="250" y="377" type="curve" smooth="yes"/>
      <point x="293" y="377"/>
      <point x="322" y="356"/>
      <point x="336" y="331" type="curve" smooth="yes"/>
      <point x="344" y="316"/>
      <point x="349" y="283"/>
      <point x="349" y="231" type="curve" smooth="yes"/>
    </contour>
  </outline>
</glyph>
<glyph name="t" format="1">
  <advance width="307"/>
  <unicode hex="0074"/>
  <outline>
    <contour>
      <point x="293" y="352" type="line" name="hr00"/>
      <point x="302" y="358"/>
      <point x="304" y="385"/>
      <point x="292" y="394" type="curve"/>
      <point x="181" y="394" type="line" smooth="yes"/>
      <point x="164" y="394"/>
      <point x="163" y="395"/>
      <point x="163" y="413" type="curve" smooth="yes"/>
      <point x="163" y="458" type="line"/>
      <point x="159" y="465"/>
      <point x="147" y="465"/>
      <point x="142" y="463" type="curve"/>
      <point x="132" y="443"/>
      <point x="113" y="416"/>
      <point x="100" y="404" type="curve" smooth="yes"/>
      <point x="90" y="395"/>
      <point x="65" y="382"/>
      <point x="36" y="373" type="curve"/>
      <point x="32" y="367"/>
      <point x="33" y="356"/>
      <point x="39" y="352" type="curve"/>
      <point x="67" y="352" type="line" smooth="yes"/>
      <point x="87" y="352"/>
      <point x="88" y="350"/>
      <point x="88" y="323" type="curve" smooth="yes"/>
      <point x="88" y="94" type="line" smooth="yes"/>
      <point x="88" y="34"/>
      <point x="106" y="-14"/>
      <point x="192" y="-14" type="curve" smooth="yes"/>
      <point x="243" y="-14"/>
      <point x="279" y="11"/>
      <point x="297" y="32" type="curve"/>
      <point x="299" y="38"/>
      <point x="295" y="49"/>
      <point x="287" y="49" type="curve" smooth="yes"/>
      <point x="284" y="49"/>
      <point x="271" y="38"/>
      <point x="262" y="35" type="curve" smooth="yes"/>
      <point x="254" y="32"/>
      <point x="245" y="30"/>
      <point x="235" y="30" type="curve" smooth="yes"/>
      <point x="169" y="30"/>
      <point x="162" y="83"/>
      <point x="162" y="141" type="curve" smooth="yes"/>
      <point x="162" y="328" type="line" smooth="yes"/>
      <point x="162" y="349"/>
      <point x="163" y="352"/>
      <point x="180" y="352" type="curve" smooth="yes"/>
    </contour>
  </outline>
</glyph>
<glyph name="cent" format="1">
  <advance width="500"/>
  <unicode hex="00A2"/>
  <outline>
    <contour>
      <point x="314" y="490" type="line" name="hr00"/>
      <point x="351" y="481"/>
      <point x="379" y="459"/>
      <point x="395" y="440" type="curve" smooth="yes"/>
      <point x="401" y="433"/>
      <point x="405" y="431"/>
      <point x="409" y="431" type="curve" smooth="yes"/>
      <point x="414" y="431"/>
      <point x="421" y="446"/>
      <point x="421" y="466" type="curve" smooth="yes"/>
      <point x="421" y="486"/>
      <point x="413" y="505"/>
      <point x="399" y="517" type="curve"/>
      <point x="372" y="523"/>
      <point x="346" y="528"/>
      <point x="319" y="528" type="curve"/>
      <point x="329" y="612" type="line"/>
      <point x="320" y="617"/>
      <point x="305" y="617"/>
      <point x="296" y="612" type="curve"/>
      <point x="286" y="526" type="line"/>
      <point x="164" y="516"/>
      <point x="65" y="438"/>
      <point x="65" y="305" type="curve" smooth="yes"/>
      <point x="65" y="191"/>
      <point x="139" y="121"/>
      <point x="236" y="109" type="curve"/>
      <point x="223" y="4" type="line"/>
      <point x="231" y="-1"/>
      <point x="247" y="-1"/>
      <point x="256" y="4" type="curve"/>
      <point x="268" y="106" type="line"/>
      <point x="343" y="106"/>
      <point x="404" y="130"/>
      <point x="445" y="197" type="curve"/>
      <point x="446" y="204"/>
      <point x="438" y="211"/>
      <point x="429" y="209" type="curve"/>
      <point x="404" y="182"/>
      <point x="373" y="153"/>
      <point x="314" y="153" type="curve" smooth="yes"/>
      <point x="300" y="153"/>
      <point x="286" y="154"/>
      <point x="274" y="157" type="curve"/>
    </contour>
    <contour>
      <point x="243" y="166" type="line"/>
      <point x="167" y="197"/>
      <point x="134" y="273"/>
      <point x="134" y="337" type="curve" smooth="yes"/>
      <point x="134" y="436"/>
      <point x="199" y="494"/>
      <point x="282" y="493" type="curve"/>
    </contour>
  </outline>
</glyph>
<glyph name="logicalnot" format="1">
  <advance width="500"/>
  <unicode hex="00AC"/>
  <outline>
    <contour>
      <point x="408" y="50" type="line" name="hr00"/>
      <point x="467" y="50" type="line"/>
      <point x="467" y="305" type="line"/>
      <point x="33" y="305" type="line"/>
      <point x="33" y="256" type="line"/>
      <point x="408" y="256" type="line"/>
    </contour>
  </outline>
</glyph>
<glyph name="degree" format="1">
  <advance width="302"/>
  <unicode hex="00B0"/>
  <outline>
    <contour>
      <point x="151" y="640" type="curve" smooth="yes" name="hr00"/>
      <point x="85" y="640"/>
      <point x="30" y="594"/>
      <point x="30" y="524" type="curve" smooth="yes"/>
      <point x="30" y="450"/>
      <point x="85" y="408"/>
      <point x="151" y="408" type="curve" smooth="yes"/>
      <point x="217" y="408"/>
      <point x="272" y="450"/>
      <point x="272" y="524" type="curve" smooth="yes"/>
      <point x="272" y="594"/>
      <point x="217" y="640"/>
    </contour>
    <contour>
      <point x="151" y="609" type="curve" smooth="yes"/>
      <point x="191" y="609"/>
      <point x="221" y="575"/>
      <point x="221" y="524" type="curve" smooth="yes"/>
      <point x="221" y="473"/>
      <point x="191" y="439"/>
      <point x="151" y="439" type="curve" smooth="yes"/>
      <point x="111" y="439"/>
      <point x="81" y="473"/>
      <point x="81" y="524" type="curve" smooth="yes"/>
      <point x="81" y="575"/>
      <point x="111" y="609"/>
    </contour>
  </outline>
</glyph>
<glyph name="acute" format="1">
  <advance width="360"/>
  <unicode hex="00B4"/>
  <outline>
    <contour>
      <point x="275" y="596" type="line" smooth="yes" name="hr00"/>
      <point x="285" y="606"/>
      <point x="291" y="617"/>
      <point x="291" y="623" type="curve" smooth="yes"/>
      <point x="291" y="631"/>
      <point x="284" y="641"/>
      <point x="274" y="649" type="curve" smooth="yes"/>
      <point x="262" y="659"/>
      <point x="250" y="664"/>
      <point x="243" y="664" type="curve" smooth="yes"/>
      <point x="233" y="664"/>
      <point x="225" y="651"/>
      <point x="219" y="640" type="curve" smooth="yes"/>
      <point x="133" y="477" type="line"/>
      <point x="134" y="470"/>
      <point x="143" y="465"/>
      <point x="150" y="466" type="curve"/>
    </contour>
  </outline>
</glyph>
<glyph name="cedilla" format="1">
  <advance width="360"/>
  <unicode hex="00B8"/>
  <outline>
    <contour>
      <point x="204" y="0" type="line" name="hr00"/>
      <point x="144" y="-97" type="line"/>
      <point x="144" y="-102" type="line"/>
      <point x="175" y="-114"/>
      <point x="199" y="-138"/>
      <point x="199" y="-161" type="curve" smooth="yes"/>
      <point x="199" y="-182"/>
      <point x="186" y="-189"/>
      <point x="175" y="-189" type="curve" smooth="yes"/>
      <point x="163" y="-189"/>
      <point x="146" y="-163"/>
      <point x="129" y="-163" type="curve" smooth="yes"/>
      <point x="115" y="-163"/>
      <point x="107" y="-176"/>
      <point x="107" y="-186" type="curve" smooth="yes"/>
      <point x="107" y="-204"/>
      <point x="125" y="-217"/>
      <point x="158" y="-217" type="curve" smooth="yes"/>
      <point x="204" y="-217"/>
      <point x="250" y="-184"/>
      <point x="250" y="-139" type="curve" smooth="yes"/>
      <point x="250" y="-113"/>
      <point x="233" y="-92"/>
      <point x="209" y="-76" type="curve" smooth="yes"/>
      <point x="198" y="-69"/>
      <point x="197" y="-62"/>
      <point x="201" y="-55" type="curve" smooth="yes"/>
      <point x="235" y="0" type="line"/>
    </contour>
  </outline>
</glyph>
<glyph name="questiondown" format="1">
  <advance width="321"/>
  <unicode hex="00BF"/>
  <outline>
    <contour>
      <point x="217" y="-266" type="curve" smooth="yes" name="hr01"/>
      <point x="243" y="-266"/>
      <point x="257" y="-248"/>
      <point x="257" y="-228" type="curve" smooth="yes"/>
      <point x="257" y="-202"/>
      <point x="233" y="-186"/>
      <point x="224" y="-186" type="curve" smooth="yes"/>
      <point x="172" y="-186"/>
      <point x="136" y="-182"/>
      <point x="108" y="-154" type="curve" smooth="yes"/>
      <point x="91" y="-137"/>
      <point x="86" y="-114"/>
      <point x="86" y="-93" type="curve" smooth="yes"/>
      <point x="86" y="-67"/>
      <point x="101" y="-41"/>
      <point x="141" y="-20" type="curve" smooth="yes"/>
      <point x="190" y="6" type="line" smooth="yes" name="hr02"/>
      <point x="220" y="22"/>
      <point x="244" y="37"/>
      <point x="244" y="78" type="curve" smooth="yes"/>
      <point x="244" y="108"/>
      <point x="222" y="154"/>
      <point x="208" y="177" type="curve"/>
      <point x="202" y="182"/>
      <point x="191" y="180"/>
      <point x="187" y="172" type="curve"/>
      <point x="192" y="152"/>
      <point x="197" y="130"/>
      <point x="197" y="114" type="curve" smooth="yes"/>
      <point x="197" y="96"/>
      <point x="185" y="82"/>
      <point x="162" y="70" type="curve" smooth="yes"/>
      <point x="83" y="28" type="line" smooth="yes"/>
      <point x="68" y="20"/>
      <point x="45" y="-7"/>
      <point x="45" y="-62" type="curve" smooth="yes"/>
      <point x="45" y="-168"/>
      <point x="137" y="-266"/>
    </contour>
    <contour>
      <point x="196" y="280" type="curve" smooth="yes"/>
      <point x="230" y="280"/>
      <point x="252" y="303"/>
      <point x="252" y="335" type="curve" smooth="yes"/>
      <point x="252" y="367"/>
      <point x="230" y="394"/>
      <point x="196" y="394" type="curve" smooth="yes"/>
      <point x="164" y="394"/>
      <point x="140" y="369"/>
      <point x="140" y="335" type="curve" smooth="yes"/>
      <point x="140" y="301"/>
      <point x="167" y="280"/>
    </contour>
  </outline>
</glyph>
<glyph name="Oacute" format="1">
  <advance width="795"/>
  <unicode hex="00D3"/>
  <outline>
    <contour>
      <point x="402" y="-16" type="curve" smooth="yes" name="hr00"/>
      <point x="595" y="-16"/>
      <point x="749" y="131"/>
      <point x="749" y="333" type="curve" smooth="yes"/>
      <point x="749" y="509"/>
      <point x="633" y="676"/>
      <point x="402" y="676" type="curve" smooth="yes"/>
      <point x="196" y="676"/>
      <point x="46" y="523"/>
      <point x="46" y="323" type="curve" smooth="yes"/>
      <point x="46" y="143"/>
      <point x="180" y="-16"/>
    </contour>
    <contour>
      <point x="415" y="15" type="curve" smooth="yes"/>
      <point x="218" y="15"/>
      <point x="146" y="207"/>
      <point x="146" y="355" type="curve" smooth="yes"/>
      <point x="146" y="574"/>
      <point x="281" y="645"/>
      <point x="385" y="645" type="curve" smooth="yes"/>
      <point x="576" y="645"/>
      <point x="649" y="467"/>
      <point x="649" y="302" type="curve" smooth="yes"/>
      <point x="649" y="105"/>
      <point x="535" y="15"/>
    </contour>
    <contour>
      <point x="529" y="783" type="line" smooth="yes"/>
      <point x="544" y="789"/>
      <point x="551" y="794"/>
      <point x="555" y="799" type="curve"/>
      <point x="558" y="807"/>
      <point x="558" y="821"/>
      <point x="548" y="840" type="curve" smooth="yes"/>
      <point x="540" y="856"/>
      <point x="527" y="863"/>
      <point x="520" y="863" type="curve" smooth="yes"/>
      <point x="514" y="863"/>
      <point x="505" y="858"/>
      <point x="493" y="850" type="curve"/>
      <point x="352" y="735" type="line"/>
      <point x="349" y="724"/>
      <point x="355" y="713"/>
      <point x="362" y="711" type="curve"/>
    </contour>
  </outline>
</glyph>
<glyph name="Odieresis" format="1">
  <advance width="795"/>
  <unicode hex="00D6"/>
  <outline>
    <contour>
      <point x="402" y="-16" type="curve" smooth="yes" name="hr00"/>
      <point x="595" y="-16"/>
      <point x="749" y="131"/>
      <point x="749" y="333" type="curve" smooth="yes"/>
      <point x="749" y="509"/>
      <point x="633" y="676"/>
      <point x="402" y="676" type="curve" smooth="yes"/>
      <point x="196" y="676"/>
      <point x="46" y="523"/>
      <point x="46" y="323" type="curve" smooth="yes"/>
      <point x="46" y="143"/>
      <point x="180" y="-16"/>
    </contour>
    <contour>
      <point x="415" y="15" type="curve" smooth="yes"/>
      <point x="218" y="15"/>
      <point x="146" y="207"/>
      <point x="146" y="355" type="curve" smooth="yes"/>
      <point x="146" y="574"/>
      <point x="281" y="645"/>
      <point x="385" y="645" type="curve" smooth="yes"/>
      <point x="576" y="645"/>
      <point x="649" y="467"/>
      <point x="649" y="302" type="curve" smooth="yes"/>
      <point x="649" y="105"/>
      <point x="535" y="15"/>
    </contour>
    <contour>
      <point x="305" y="715" type="curve" smooth="yes"/>
      <point x="336" y="715"/>
      <point x="356" y="739"/>
      <point x="356" y="768" type="curve" smooth="yes"/>
      <point x="356" y="794"/>
      <point x="336" y="822"/>
      <point x="305" y="822" type="curve" smooth="yes"/>
      <point x="274" y="822"/>
      <point x="253" y="795"/>
      <point x="256" y="766" type="curve"/>
      <point x="256" y="732"/>
      <point x="274" y="715"/>
    </contour>
    <contour>
      <point x="496" y="715" type="curve" smooth="yes"/>
      <point x="527" y="715"/>
      <point x="544" y="739"/>
      <point x="544" y="768" type="curve" smooth="yes"/>
      <point x="544" y="794"/>
      <point x="527" y="822"/>
      <point x="496" y="822" type="curve" smooth="yes"/>
      <point x="465" y="822"/>
      <point x="444" y="795"/>
      <point x="444" y="766" type="curve" smooth="yes"/>
      <point x="445" y="732"/>
      <point x="466" y="715"/>
    </contour>
  </outline>
</glyph>
<glyph name="ae" format="1">
  <advance width="585"/>
  <unicode hex="00E6"/>
  <outline>
    <contour>
      <point x="243" y="110" type="line" smooth="yes" name="hr01"/>
      <point x="243" y="89"/>
      <point x="238" y="72"/>
      <point x="226" y="59" type="curve" smooth="yes"/>
      <point x="216" y="49"/>
      <point x="193" y="31"/>
      <point x="165" y="31" type="curve" smooth="yes"/>
      <point x="134" y="31"/>
      <point x="111" y="53"/>
      <point x="111" y="86" type="curve" smooth="yes"/>
      <point x="111" y="120"/>
      <point x="134" y="145"/>
      <point x="177" y="160" type="curve" smooth="yes"/>
      <point x="221" y="175" type="line" smooth="yes"/>
      <point x="237" y="180"/>
      <point x="243" y="179"/>
      <point x="243" y="163" type="curve" smooth="yes"/>
    </contour>
    <contour>
      <point x="243" y="231" type="line" smooth="yes"/>
      <point x="243" y="215"/>
      <point x="240" y="213"/>
      <point x="220" y="206" type="curve" smooth="yes"/>
      <point x="114" y="166" type="line" smooth="yes"/>
      <point x="73" y="151"/>
      <point x="35" y="121"/>
      <point x="35" y="74" type="curve" smooth="yes" name="hr02"/>
      <point x="35" y="22"/>
      <point x="74" y="-14"/>
      <point x="121" y="-14" type="curve" smooth="yes"/>
      <point x="158" y="-14"/>
      <point x="185" y="-3"/>
      <point x="223" y="23" type="curve" smooth="yes"/>
      <point x="264" y="51" type="line"/>
      <point x="288" y="17"/>
      <point x="332" y="-14"/>
      <point x="398" y="-14" type="curve" smooth="yes"/>
      <point x="472" y="-14"/>
      <point x="527" y="15"/>
      <point x="568" y="90" type="curve"/>
      <point x="569" y="97"/>
      <point x="559" y="106"/>
      <point x="551" y="102" type="curve"/>
      <point x="508" y="50"/>
      <point x="477" y="39"/>
      <point x="435" y="39" type="curve" smooth="yes"/>
      <point x="362" y="39"/>
      <point x="311" y="81"/>
      <point x="311" y="162" type="curve" smooth="yes"/>
      <point x="311" y="186" type="line" smooth="yes"/>
      <point x="311" y="201"/>
      <point x="314" y="204"/>
      <point x="329" y="209" type="curve" smooth="yes"/>
      <point x="550" y="280" type="line" smooth="yes"/>
      <point x="562" y="284"/>
      <point x="568" y="294"/>
      <point x="568" y="306" type="curve" smooth="yes"/>
      <point x="568" y="366"/>
      <point x="504" y="408"/>
      <point x="438" y="408" type="curve" smooth="yes"/>
      <point x="376" y="408"/>
      <point x="331" y="381"/>
      <point x="301" y="352" type="curve"/>
      <point x="288" y="386"/>
      <point x="259" y="408"/>
      <point x="214" y="408" type="curve" smooth="yes"/>
      <point x="156" y="408"/>
      <point x="116" y="382"/>
      <point x="90" y="363" type="curve" smooth="yes"/>
      <point x="61" y="342"/>
      <point x="37" y="312"/>
      <point x="37" y="290" type="curve" smooth="yes" name="hr03"/>
      <point x="37" y="282"/>
      <point x="42" y="276"/>
      <point x="49" y="276" type="curve" smooth="yes"/>
      <point x="67" y="276"/>
      <point x="94" y="287"/>
      <point x="105" y="295" type="curve" smooth="yes"/>
      <point x="113" y="301"/>
      <point x="115" y="314"/>
      <point x="116" y="326" type="curve" smooth="yes"/>
      <point x="118" y="346"/>
      <point x="134" y="374"/>
      <point x="175" y="374" type="curve" smooth="yes"/>
      <point x="241" y="374"/>
      <point x="243" y="321"/>
      <point x="243" y="272" type="curve" smooth="yes"/>
    </contour>
    <contour>
      <point x="329" y="241" type="line" smooth="yes"/>
      <point x="313" y="236"/>
      <point x="311" y="239"/>
      <point x="311" y="254" type="curve" smooth="yes"/>
      <point x="311" y="315"/>
      <point x="351" y="378"/>
      <point x="413" y="378" type="curve" smooth="yes" name="hr04"/>
      <point x="452" y="378"/>
      <point x="486" y="351"/>
      <point x="486" y="315" type="curve" smooth="yes"/>
      <point x="486" y="294"/>
      <point x="474" y="288"/>
      <point x="442" y="278" type="curve" smooth="yes"/>
    </contour>
  </outline>
</glyph>
<glyph name="yacute" format="1">
  <advance width="438"/>
  <unicode hex="00FD"/>
  <outline>
    <contour>
      <point x="68" y="-249" type="curve" smooth="yes" name="hr01"/>
      <point x="91" y="-249"/>
      <point x="115" y="-240"/>
      <point x="132" y="-202" type="curve" smooth="yes"/>
      <point x="181" y="-93"/>
      <point x="263" y="81"/>
      <point x="296" y="148" type="curve" smooth="yes"/>
      <point x="352" y="263" type="line" smooth="yes" name="hr02"/>
      <point x="386" y="334"/>
      <point x="404" y="363"/>
      <point x="437" y="369" type="curve" smooth="yes"/>
      <point x="454" y="372" type="line"/>
      <point x="461" y="378"/>
      <point x="460" y="393"/>
      <point x="452" y="397" type="curve"/>
      <point x="424" y="395"/>
      <point x="401" y="394"/>
      <point x="376" y="394" type="curve" smooth="yes"/>
      <point x="350" y="394"/>
      <point x="320" y="395"/>
      <point x="288" y="397" type="curve"/>
      <point x="280" y="394"/>
      <point x="279" y="377"/>
      <point x="286" y="372" type="curve"/>
      <point x="317" y="367" type="line" smooth="yes"/>
      <point x="335" y="364"/>
      <point x="341" y="357"/>
      <point x="341" y="350" type="curve" smooth="yes"/>
      <point x="341" y="339"/>
      <point x="328" y="302"/>
      <point x="306" y="250" type="curve" smooth="yes"/>
      <point x="272" y="171" type="line" smooth="yes"/>
      <point x="254" y="130"/>
      <point x="238" y="99"/>
      <point x="235" y="97" type="curve"/>
      <point x="231" y="99"/>
      <point x="212" y="152"/>
      <point x="206" y="168" type="curve" smooth="yes"/>
      <point x="174" y="260" type="line" smooth="yes"/>
      <point x="168" y="277"/>
      <point x="145" y="342"/>
      <point x="145" y="354" type="curve" smooth="yes"/>
      <point x="145" y="361"/>
      <point x="153" y="364"/>
      <point x="167" y="367" type="curve" smooth="yes"/>
      <point x="192" y="372" type="line"/>
      <point x="199" y="377"/>
      <point x="198" y="394"/>
      <point x="190" y="397" type="curve"/>
      <point x="158" y="395"/>
      <point x="130" y="394"/>
      <point x="103" y="394" type="curve" smooth="yes"/>
      <point x="70" y="394"/>
      <point x="40" y="395"/>
      <point x="8" y="397" type="curve"/>
      <point x="0" y="394"/>
      <point x="-1" y="377"/>
      <point x="5" y="372" type="curve"/>
      <point x="30" y="367" type="line" smooth="yes"/>
      <point x="65" y="360"/>
      <point x="72" y="336"/>
      <point x="89" y="289" type="curve" smooth="yes"/>
      <point x="167" y="75" type="line" smooth="yes"/>
      <point x="180" y="38"/>
      <point x="184" y="26"/>
      <point x="184" y="6" type="curve" smooth="yes"/>
      <point x="184" y="-8"/>
      <point x="177" y="-29"/>
      <point x="174" y="-37" type="curve" smooth="yes"/>
      <point x="165" y="-61"/>
      <point x="145" y="-103"/>
      <point x="116" y="-148" type="curve" smooth="yes"/>
      <point x="109" y="-159"/>
      <point x="99" y="-166"/>
      <point x="83" y="-166" type="curve" smooth="yes"/>
      <point x="64" y="-166" type="line" smooth="yes"/>
      <point x="42" y="-166"/>
      <point x="24" y="-179"/>
      <point x="24" y="-206" type="curve" smooth="yes"/>
      <point x="24" y="-231"/>
      <point x="39" y="-249"/>
    </contour>
    <contour>
      <point x="354" y="588" type="line" smooth="yes"/>
      <point x="364" y="598"/>
      <point x="370" y="609"/>
      <point x="370" y="615" type="curve" smooth="yes"/>
      <point x="370" y="623"/>
      <point x="363" y="633"/>
      <point x="353" y="641" type="curve" smooth="yes"/>
      <point x="341" y="651"/>
      <point x="329" y="656"/>
      <point x="322" y="656" type="curve" smooth="yes"/>
      <point x="312" y="656"/>
      <point x="304" y="643"/>
      <point x="298" y="632" type="curve" smooth="yes"/>
      <point x="212" y="469" type="line"/>
      <point x="213" y="462"/>
      <point x="222" y="457"/>
      <point x="229" y="458" type="curve"/>
    </contour>
  </outline>
</glyph>
<glyph name="Cacute" format="1">
  <advance width="696"/>
  <unicode hex="0106"/>
  <outline>
    <contour>
      <point x="44" y="326" type="curve" smooth="yes" name="hr01"/>
      <point x="44" y="197"/>
      <point x="106" y="106"/>
      <point x="186" y="51" type="curve" smooth="yes"/>
      <point x="259" y="2"/>
      <point x="345" y="-16"/>
      <point x="435" y="-16" type="curve" smooth="yes"/>
      <point x="499" y="-16"/>
      <point x="571" y="-1"/>
      <point x="593" y="7" type="curve" smooth="yes"/>
      <point x="604" y="11"/>
      <point x="616" y="15"/>
      <point x="628" y="17" type="curve"/>
      <point x="643" y="36"/>
      <point x="669" y="102"/>
      <point x="676" y="154" type="curve"/>
      <point x="672" y="161"/>
      <point x="657" y="163"/>
      <point x="650" y="158" type="curve"/>
      <point x="627" y="99"/>
      <point x="570" y="15"/>
      <point x="441" y="15" type="curve" smooth="yes"/>
      <point x="277" y="15"/>
      <point x="144" y="131"/>
      <point x="144" y="341" type="curve" smooth="yes"/>
      <point x="144" y="548"/>
      <point x="274" y="645"/>
      <point x="427" y="645" type="curve" smooth="yes"/>
      <point x="572" y="645"/>
      <point x="617" y="567"/>
      <point x="632" y="499" type="curve"/>
      <point x="639" y="493"/>
      <point x="654" y="494"/>
      <point x="659" y="501" type="curve" name="hr02"/>
      <point x="651" y="562"/>
      <point x="646" y="625"/>
      <point x="645" y="648" type="curve"/>
      <point x="636" y="647"/>
      <point x="629" y="649"/>
      <point x="617" y="652" type="curve" smooth="yes"/>
      <point x="570" y="665"/>
      <point x="494" y="676"/>
      <point x="440" y="676" type="curve" smooth="yes" name="hr03"/>
      <point x="336" y="676"/>
      <point x="243" y="648"/>
      <point x="170" y="591" type="curve" smooth="yes"/>
      <point x="94" y="532"/>
      <point x="44" y="437"/>
    </contour>
    <contour>
      <point x="539" y="778" type="line" smooth="yes"/>
      <point x="554" y="784"/>
      <point x="561" y="789"/>
      <point x="565" y="794" type="curve"/>
      <point x="568" y="802"/>
      <point x="568" y="816"/>
      <point x="558" y="835" type="curve" smooth="yes"/>
      <point x="550" y="851"/>
      <point x="537" y="858"/>
      <point x="530" y="858" type="curve" smooth="yes"/>
      <point x="524" y="858"/>
      <point x="515" y="853"/>
      <point x="503" y="844" type="curve" smooth="yes"/>
      <point x="362" y="730" type="line"/>
      <point x="359" y="719"/>
      <point x="365" y="708"/>
      <point x="372" y="706" type="curve"/>
    </contour>
  </outline>
</glyph>
<glyph name="ecaron" format="1">
  <advance width="396"/>
  <unicode hex="011B"/>
  <outline>
    <contour>
      <point x="315" y="256" type="line" smooth="yes" name="hr00"/>
      <point x="357" y="256"/>
      <point x="371" y="257"/>
      <point x="374" y="263" type="curve" smooth="yes"/>
      <point x="376" y="267"/>
      <point x="378" y="275"/>
      <point x="378" y="289" type="curve" smooth="yes"/>
      <point x="378" y="349"/>
      <point x="322" y="408"/>
      <point x="236" y="408" type="curve" smooth="yes"/>
      <point x="116" y="408"/>
      <point x="35" y="305"/>
      <point x="35" y="182" type="curve" smooth="yes"/>
      <point x="35" y="138"/>
      <point x="47" y="91"/>
      <point x="77" y="52" type="curve" smooth="yes"/>
      <point x="106" y="14"/>
      <point x="157" y="-14"/>
      <point x="222" y="-14" type="curve" smooth="yes"/>
      <point x="274" y="-14"/>
      <point x="346" y="11"/>
      <point x="379" y="79" type="curve"/>
      <point x="378" y="88"/>
      <point x="371" y="94"/>
      <point x="361" y="91" type="curve"/>
      <point x="330" y="52"/>
      <point x="302" y="42"/>
      <point x="269" y="42" type="curve" smooth="yes"/>
      <point x="162" y="42"/>
      <point x="103" y="128"/>
      <point x="103" y="229" type="curve" smooth="yes"/>
      <point x="103" y="254"/>
      <point x="104" y="256"/>
      <point x="130" y="256" type="curve" smooth="yes"/>
    </contour>
    <contour>
      <point x="121" y="286" type="line" smooth="yes"/>
      <point x="114" y="286"/>
      <point x="114" y="289"/>
      <point x="114" y="291" type="curve" smooth="yes"/>
      <point x="115" y="324"/>
      <point x="166" y="378"/>
      <point x="225" y="378" type="curve" smooth="yes"/>
      <point x="283" y="378"/>
      <point x="302" y="343"/>
      <point x="302" y="315" type="curve" smooth="yes"/>
      <point x="302" y="302"/>
      <point x="299" y="298"/>
      <point x="296" y="296" type="curve" smooth="yes"/>
      <point x="288" y="290"/>
      <point x="266" y="286"/>
      <point x="192" y="286" type="curve" smooth="yes"/>
    </contour>
    <contour>
      <point x="138" y="663" type="line"/>
      <point x="133" y="663"/>
      <point x="119" y="660"/>
      <point x="118" y="650" type="curve"/>
      <point x="210" y="473" type="line" smooth="yes"/>
      <point x="220" y="454"/>
      <point x="233" y="453"/>
      <point x="243" y="473" type="curve" smooth="yes"/>
      <point x="333" y="650" type="line"/>
      <point x="332" y="660"/>
      <point x="321" y="664"/>
      <point x="315" y="663" type="curve"/>
      <point x="240" y="570" type="line" smooth="yes"/>
      <point x="230" y="558"/>
      <point x="223" y="557"/>
      <point x="213" y="570" type="curve" smooth="yes"/>
    </contour>
  </outline>
</glyph>
<glyph name="gbreve" format="1">
  <advance width="446"/>
  <unicode hex="011F"/>
  <outline>
    <contour>
      <point x="365" y="372" type="line" smooth="yes" name="hr01"/>
      <point x="343" y="372"/>
      <point x="336" y="374"/>
      <point x="304" y="388" type="curve" smooth="yes"/>
      <point x="281" y="398"/>
      <point x="246" y="408"/>
      <point x="208" y="408" type="curve" smooth="yes" name="hr02"/>
      <point x="119" y="408"/>
      <point x="45" y="343"/>
      <point x="45" y="257" type="curve" smooth="yes"/>
      <point x="45" y="193"/>
      <point x="86" y="154"/>
      <point x="120" y="136" type="curve"/>
      <point x="120" y="131"/>
      <point x="115" y="123"/>
      <point x="110" y="117" type="curve" smooth="yes" name="hr03"/>
      <point x="93" y="99"/>
      <point x="74" y="82"/>
      <point x="57" y="71" type="curve" smooth="yes"/>
      <point x="46" y="63"/>
      <point x="42" y="59"/>
      <point x="42" y="54" type="curve" smooth="yes"/>
      <point x="42" y="19"/>
      <point x="76" y="-15"/>
      <point x="115" y="-25" type="curve"/>
      <point x="124" y="-31"/>
      <point x="116" y="-40"/>
      <point x="107" y="-49" type="curve" smooth="yes" name="hr04"/>
      <point x="84" y="-72"/>
      <point x="56" y="-98"/>
      <point x="39" y="-116" type="curve" smooth="yes"/>
      <point x="32" y="-124"/>
      <point x="28" y="-137"/>
      <point x="28" y="-153" type="curve" smooth="yes"/>
      <point x="28" y="-203"/>
      <point x="71" y="-269"/>
      <point x="194" y="-269" type="curve" smooth="yes"/>
      <point x="324" y="-269"/>
      <point x="443" y="-189"/>
      <point x="443" y="-80" type="curve" smooth="yes"/>
      <point x="443" y="20"/>
      <point x="359" y="30"/>
      <point x="303" y="30" type="curve" smooth="yes"/>
      <point x="259" y="30"/>
      <point x="218" y="27"/>
      <point x="184" y="27" type="curve" smooth="yes" name="hr05"/>
      <point x="137" y="27"/>
      <point x="114" y="46"/>
      <point x="114" y="69" type="curve" smooth="yes"/>
      <point x="114" y="98"/>
      <point x="146" y="117"/>
      <point x="158" y="124" type="curve"/>
      <point x="170" y="123"/>
      <point x="184" y="121"/>
      <point x="202" y="121" type="curve" smooth="yes"/>
      <point x="329" y="121"/>
      <point x="370" y="211"/>
      <point x="370" y="280" type="curve" smooth="yes"/>
      <point x="370" y="297"/>
      <point x="370" y="314"/>
      <point x="368" y="331" type="curve"/>
      <point x="440" y="331" type="line"/>
      <point x="455" y="333"/>
      <point x="457" y="367"/>
      <point x="446" y="372" type="curve"/>
    </contour>
    <contour>
      <point x="271" y="-32" type="line" smooth="yes"/>
      <point x="343" y="-32"/>
      <point x="385" y="-58"/>
      <point x="385" y="-119" type="curve" smooth="yes" name="hr06"/>
      <point x="385" y="-176"/>
      <point x="326" y="-226"/>
      <point x="237" y="-226" type="curve" smooth="yes"/>
      <point x="146" y="-226"/>
      <point x="103" y="-181"/>
      <point x="103" y="-127" type="curve" smooth="yes"/>
      <point x="103" y="-89"/>
      <point x="127" y="-58"/>
      <point x="151" y="-43" type="curve" smooth="yes"/>
      <point x="165" y="-34"/>
      <point x="205" y="-32"/>
      <point x="237" y="-32" type="curve" smooth="yes"/>
    </contour>
    <contour>
      <point x="217" y="150" type="curve" smooth="yes" name="hr07"/>
      <point x="169" y="150"/>
      <point x="126" y="196"/>
      <point x="126" y="267" type="curve" smooth="yes"/>
      <point x="126" y="335"/>
      <point x="162" y="379"/>
      <point x="210" y="379" type="curve" smooth="yes"/>
      <point x="271" y="379"/>
      <point x="299" y="322"/>
      <point x="299" y="254" type="curve" smooth="yes"/>
      <point x="299" y="193"/>
      <point x="271" y="150"/>
    </contour>
    <contour>
      <point x="220" y="482" type="curve" smooth="yes" name="hr08"/>
      <point x="289" y="482"/>
      <point x="329" y="524"/>
      <point x="325" y="613" type="curve"/>
      <point x="319" y="617"/>
      <point x="307" y="617"/>
      <point x="303" y="613" type="curve"/>
      <point x="290" y="560"/>
      <point x="252" y="539"/>
      <point x="220" y="539" type="curve" smooth="yes"/>
      <point x="188" y="539"/>
      <point x="150" y="560"/>
      <point x="138" y="613" type="curve"/>
      <point x="133" y="617"/>
      <point x="121" y="617"/>
      <point x="116" y="613" type="curve"/>
      <point x="111" y="524"/>
      <point x="151" y="482"/>
    </contour>
  </outline>
</glyph>
<glyph name="uni0122" format="1">
  <advance width="747"/>
  <unicode hex="0122"/>
  <outline>
    <contour>
      <point x="648" y="158" type="line" smooth="yes" name="hr01"/>
      <point x="648" y="209"/>
      <point x="649" y="237"/>
      <point x="691" y="242" type="curve" smooth="yes"/>
      <point x="707" y="244" type="line"/>
      <point x="714" y="250"/>
      <point x="713" y="265"/>
      <point x="706" y="269" type="curve"/>
      <point x="673" y="267"/>
      <point x="639" y="266"/>
      <point x="600" y="266" type="curve" smooth="yes"/>
      <point x="541" y="266"/>
      <point x="486" y="267"/>
      <point x="457" y="269" type="curve"/>
      <point x="450" y="266"/>
      <point x="449" y="248"/>
      <point x="457" y="244" type="curve"/>
      <point x="501" y="239" type="line" smooth="yes"/>
      <point x="563" y="232"/>
      <point x="566" y="226"/>
      <point x="566" y="142" type="curve" smooth="yes"/>
      <point x="566" y="102" type="line" smooth="yes"/>
      <point x="566" y="70"/>
      <point x="561" y="52"/>
      <point x="556" y="45" type="curve" smooth="yes"/>
      <point x="545" y="28"/>
      <point x="508" y="15"/>
      <point x="446" y="15" type="curve" smooth="yes"/>
      <point x="245" y="15"/>
      <point x="146" y="166"/>
      <point x="146" y="358" type="curve" smooth="yes"/>
      <point x="146" y="508"/>
      <point x="231" y="646"/>
      <point x="425" y="646" type="curve" smooth="yes"/>
      <point x="527" y="646"/>
      <point x="602" y="612"/>
      <point x="630" y="504" type="curve"/>
      <point x="636" y="498"/>
      <point x="654" y="499"/>
      <point x="657" y="507" type="curve" name="hr02"/>
      <point x="648" y="567"/>
      <point x="642" y="619"/>
      <point x="642" y="652" type="curve"/>
      <point x="630" y="650"/>
      <point x="599" y="657"/>
      <point x="580" y="661" type="curve" smooth="yes"/>
      <point x="563" y="665"/>
      <point x="510" y="676"/>
      <point x="453" y="676" type="curve" smooth="yes" name="hr03"/>
      <point x="302" y="676"/>
      <point x="203" y="629"/>
      <point x="136" y="559" type="curve" smooth="yes"/>
      <point x="74" y="493"/>
      <point x="46" y="407"/>
      <point x="46" y="322" type="curve" smooth="yes"/>
      <point x="46" y="234"/>
      <point x="78" y="155"/>
      <point x="138" y="95" type="curve" smooth="yes"/>
      <point x="215" y="17"/>
      <point x="324" y="-16"/>
      <point x="443" y="-16" type="curve" smooth="yes"/>
      <point x="497" y="-16"/>
      <point x="569" y="-4"/>
      <point x="622" y="10" type="curve" smooth="yes"/>
      <point x="641" y="15"/>
      <point x="659" y="19"/>
      <point x="671" y="19" type="curve"/>
      <point x="675" y="22"/>
      <point x="675" y="28"/>
      <point x="672" y="31" type="curve"/>
      <point x="654" y="38"/>
      <point x="648" y="62"/>
      <point x="648" y="102" type="curve" smooth="yes"/>
    </contour>
    <contour>
      <point x="410" y="-58" type="curve" smooth="yes"/>
      <point x="383" y="-58"/>
      <point x="368" y="-77"/>
      <point x="368" y="-96" type="curve" smooth="yes"/>
      <point x="368" y="-106"/>
      <point x="372" y="-115"/>
      <point x="383" y="-121" type="curve" smooth="yes"/>
      <point x="390" y="-125"/>
      <point x="425" y="-137"/>
      <point x="425" y="-168" type="curve" smooth="yes"/>
      <point x="425" y="-207"/>
      <point x="386" y="-230"/>
      <point x="362" y="-238" type="curve"/>
      <point x="358" y="-242"/>
      <point x="359" y="-265"/>
      <point x="367" y="-269" type="curve"/>
      <point x="426" y="-251"/>
      <point x="477" y="-212"/>
      <point x="477" y="-141" type="curve" smooth="yes"/>
      <point x="477" y="-85"/>
      <point x="439" y="-58"/>
    </contour>
  </outline>
</glyph>
<glyph name="iogonek" format="1">
  <advance width="257"/>
  <unicode hex="012F"/>
  <outline>
    <contour>
      <point x="131" y="624" type="curve" smooth="yes" name="hr01"/>
      <point x="101" y="624"/>
      <point x="77" y="603"/>
      <point x="77" y="570" type="curve" smooth="yes"/>
      <point x="77" y="543"/>
      <point x="97" y="520"/>
      <point x="128" y="520" type="curve" smooth="yes"/>
      <point x="156" y="520"/>
      <point x="181" y="536"/>
      <point x="181" y="572" type="curve" smooth="yes"/>
      <point x="181" y="600"/>
      <point x="161" y="624"/>
    </contour>
    <contour>
      <point x="98" y="112" type="line" smooth="yes" name="hr02"/>
      <point x="98" y="40"/>
      <point x="97" y="30"/>
      <point x="60" y="25" type="curve" smooth="yes"/>
      <point x="39" y="22" type="line" name="hr03"/>
      <point x="32" y="17"/>
      <point x="34" y="0"/>
      <point x="41" y="-3" type="curve"/>
      <point x="61" y="-2"/>
      <point x="101" y="-1"/>
      <point x="127" y="-1" type="curve"/>
      <point x="83" y="-42"/>
      <point x="54" y="-85"/>
      <point x="54" y="-123" type="curve" smooth="yes"/>
      <point x="54" y="-174"/>
      <point x="86" y="-209"/>
      <point x="139" y="-209" type="curve" smooth="yes"/>
      <point x="175" y="-209"/>
      <point x="213" y="-192"/>
      <point x="238" y="-161" type="curve"/>
      <point x="238" y="-152"/>
      <point x="235" y="-147"/>
      <point x="230" y="-144" type="curve"/>
      <point x="217" y="-151"/>
      <point x="197" y="-154"/>
      <point x="185" y="-154" type="curve" smooth="yes"/>
      <point x="148" y="-154"/>
      <point x="120" y="-138"/>
      <point x="120" y="-92" type="curve" smooth="yes"/>
      <point x="120" y="-67"/>
      <point x="129" y="-36"/>
      <point x="157" y="0" type="curve"/>
      <point x="182" y="0"/>
      <point x="199" y="-1"/>
      <point x="229" y="-3" type="curve" name="hr04"/>
      <point x="236" y="0"/>
      <point x="238" y="17"/>
      <point x="231" y="22" type="curve"/>
      <point x="210" y="25" type="line" smooth="yes"/>
      <point x="174" y="30"/>
      <point x="172" y="40"/>
      <point x="172" y="112" type="curve" smooth="yes"/>
      <point x="172" y="292" type="line" smooth="yes"/>
      <point x="172" y="333"/>
      <point x="174" y="381"/>
      <point x="176" y="416" type="curve"/>
      <point x="175" y="420"/>
      <point x="171" y="422"/>
      <point x="166" y="422" type="curve"/>
      <point x="143" y="407"/>
      <point x="86" y="381"/>
      <point x="63" y="373" type="curve"/>
      <point x="58" y="370"/>
      <point x="58" y="359"/>
      <point x="62" y="355" type="curve"/>
      <point x="71" y="349" type="line" smooth="yes"/>
      <point x="98" y="331"/>
      <point x="98" y="326"/>
      <point x="98" y="287" type="curve" smooth="yes"/>
    </contour>
  </outline>
</glyph>
<glyph name="lslash" format="1">
  <advance width="261"/>
  <unicode hex="0142"/>
  <outline>
    <contour>
      <point x="250" y="418" type="line" name="hr00"/>
      <point x="252" y="428"/>
      <point x="244" y="445"/>
      <point x="232" y="448" type="curve"/>
      <point x="170" y="410" type="line"/>
      <point x="170" y="585" type="line" smooth="yes"/>
      <point x="170" y="629"/>
      <point x="172" y="679"/>
      <point x="173" y="709" type="curve"/>
      <point x="171" y="713"/>
      <point x="167" y="715"/>
      <point x="163" y="715" type="curve"/>
      <point x="127" y="696"/>
      <point x="80" y="681"/>
      <point x="55" y="673" type="curve"/>
      <point x="50" y="670"/>
      <point x="50" y="656"/>
      <point x="55" y="653" type="curve" smooth="yes"/>
      <point x="65" y="647" type="line" smooth="yes"/>
      <point x="95" y="629"/>
      <point x="96" y="623"/>
      <point x="96" y="564" type="curve" smooth="yes"/>
      <point x="96" y="368" type="line"/>
      <point x="17" y="320" type="line"/>
      <point x="14" y="307"/>
      <point x="22" y="293"/>
      <point x="32" y="290" type="curve"/>
      <point x="96" y="327" type="line"/>
      <point x="96" y="112" type="line" smooth="yes"/>
      <point x="96" y="40"/>
      <point x="95" y="30"/>
      <point x="58" y="25" type="curve" smooth="yes"/>
      <point x="35" y="22" type="line"/>
      <point x="28" y="17"/>
      <point x="30" y="0"/>
      <point x="37" y="-3" type="curve"/>
      <point x="67" y="-1"/>
      <point x="97" y="0"/>
      <point x="133" y="0" type="curve" smooth="yes"/>
      <point x="168" y="0"/>
      <point x="197" y="-1"/>
      <point x="230" y="-3" type="curve"/>
      <point x="237" y="0"/>
      <point x="239" y="17"/>
      <point x="232" y="22" type="curve"/>
      <point x="208" y="25" type="line" smooth="yes"/>
      <point x="172" y="30"/>
      <point x="170" y="40"/>
      <point x="170" y="112" type="curve" smooth="yes"/>
      <point x="170" y="369" type="line"/>
    </contour>
  </outline>
</glyph>
<glyph name="Ohungarumlaut" format="1">
  <advance width="795"/>
  <unicode hex="0150"/>
  <outline>
    <contour>
      <point x="402" y="-16" type="curve" smooth="yes" name="hr00"/>
      <point x="595" y="-16"/>
      <point x="749" y="131"/>
      <point x="749" y="333" type="curve" smooth="yes"/>
      <point x="749" y="509"/>
      <point x="633" y="676"/>
      <point x="402" y="676" type="curve" smooth="yes"/>
      <point x="196" y="676"/>
      <point x="46" y="523"/>
      <point x="46" y="323" type="curve" smooth="yes"/>
      <point x="46" y="143"/>
      <point x="180" y="-16"/>
    </contour>
    <contour>
      <point x="415" y="15" type="curve" smooth="yes"/>
      <point x="218" y="15"/>
      <point x="146" y="207"/>
      <point x="146" y="355" type="curve" smooth="yes"/>
      <point x="146" y="574"/>
      <point x="281" y="645"/>
      <point x="385" y="645" type="curve" smooth="yes"/>
      <point x="576" y="645"/>
      <point x="649" y="467"/>
      <point x="649" y="302" type="curve" smooth="yes"/>
      <point x="649" y="105"/>
      <point x="535" y="15"/>
    </contour>
    <contour>
      <point x="532" y="861" type="curve" smooth="yes"/>
      <point x="518" y="861"/>
      <point x="512" y="856"/>
      <point x="503" y="839" type="curve" smooth="yes"/>
      <point x="447" y="725" type="line"/>
      <point x="444" y="715"/>
      <point x="456" y="708"/>
      <point x="466" y="706" type="curve"/>
      <point x="553" y="789" type="line" smooth="yes"/>
      <point x="562" y="798"/>
      <point x="572" y="806"/>
      <point x="576" y="812" type="curve"/>
      <point x="583" y="819"/>
      <point x="579" y="834"/>
      <point x="561" y="847" type="curve" smooth="yes"/>
      <point x="550" y="855"/>
      <point x="539" y="861"/>
    </contour>
    <contour>
      <point x="374" y="861" type="curve" smooth="yes"/>
      <point x="360" y="861"/>
      <point x="354" y="856"/>
      <point x="345" y="839" type="curve" smooth="yes"/>
      <point x="289" y="725" type="line"/>
      <point x="286" y="715"/>
      <point x="298" y="708"/>
      <point x="308" y="706" type="curve"/>
      <point x="395" y="789" type="line" smooth="yes"/>
      <point x="403" y="796"/>
      <point x="413" y="806"/>
      <point x="417" y="814" type="curve" smooth="yes"/>
      <point x="422" y="824"/>
      <point x="418" y="834"/>
      <point x="404" y="846" type="curve" smooth="yes"/>
      <point x="395" y="853"/>
      <point x="381" y="861"/>
    </contour>
  </outline>
</glyph>
<glyph name="uni0157" format="1">
  <advance width="332"/>
  <unicode hex="0157"/>
  <outline>
    <contour>
      <point x="98" y="112" type="line" smooth="yes" name="hr01"/>
      <point x="98" y="40"/>
      <point x="97" y="31"/>
      <point x="60" y="25" type="curve" smooth="yes"/>
      <point x="41" y="22" type="line"/>
      <point x="34" y="17"/>
      <point x="36" y="0"/>
      <point x="43" y="-3" type="curve"/>
      <point x="69" y="-1"/>
      <point x="99" y="0"/>
      <point x="135" y="0" type="curve" smooth="yes"/>
      <point x="170" y="0"/>
      <point x="199" y="-1"/>
      <point x="246" y="-3" type="curve"/>
      <point x="253" y="0"/>
      <point x="255" y="17"/>
      <point x="248" y="22" type="curve"/>
      <point x="212" y="25" type="line" smooth="yes"/>
      <point x="174" y="28"/>
      <point x="172" y="40"/>
      <point x="172" y="112" type="curve" smooth="yes"/>
      <point x="172" y="248" type="line" smooth="yes" name="hr02"/>
      <point x="172" y="282"/>
      <point x="175" y="311"/>
      <point x="185" y="325" type="curve" smooth="yes"/>
      <point x="193" y="336"/>
      <point x="205" y="345"/>
      <point x="221" y="345" type="curve" smooth="yes"/>
      <point x="235" y="345"/>
      <point x="250" y="339"/>
      <point x="265" y="329" type="curve" smooth="yes"/>
      <point x="272" y="325"/>
      <point x="277" y="322"/>
      <point x="287" y="322" type="curve" smooth="yes" name="hr03"/>
      <point x="303" y="322"/>
      <point x="330" y="335"/>
      <point x="330" y="368" type="curve" smooth="yes"/>
      <point x="330" y="392"/>
      <point x="310" y="408"/>
      <point x="285" y="408" type="curve" smooth="yes"/>
      <point x="248" y="408"/>
      <point x="210" y="377"/>
      <point x="175" y="348" type="curve"/>
      <point x="173" y="349"/>
      <point x="172" y="352"/>
      <point x="172" y="357" type="curve" smooth="yes"/>
      <point x="172" y="415" type="line" smooth="yes"/>
      <point x="172" y="419"/>
      <point x="169" y="421"/>
      <point x="164" y="422" type="curve"/>
      <point x="139" y="407"/>
      <point x="86" y="381"/>
      <point x="63" y="373" type="curve"/>
      <point x="58" y="370"/>
      <point x="58" y="359"/>
      <point x="62" y="355" type="curve"/>
      <point x="71" y="349" type="line" smooth="yes"/>
      <point x="98" y="331"/>
      <point x="98" y="326"/>
      <point x="98" y="287" type="curve" smooth="yes"/>
    </contour>
    <contour>
      <point x="129" y="-58" type="curve" smooth="yes" name="hr04"/>
      <point x="102" y="-58"/>
      <point x="87" y="-77"/>
      <point x="87" y="-96" type="curve" smooth="yes"/>
      <point x="87" y="-106"/>
      <point x="91" y="-115"/>
      <point x="102" y="-121" type="curve" smooth="yes"/>
      <point x="109" y="-125"/>
      <point x="140" y="-137"/>
      <point x="140" y="-168" type="curve" smooth="yes"/>
      <point x="140" y="-207"/>
      <point x="105" y="-230"/>
      <point x="81" y="-238" type="curve"/>
      <point x="77" y="-242"/>
      <point x="78" y="-265"/>
      <point x="86" y="-269" type="curve"/>
      <point x="149" y="-251"/>
      <point x="200" y="-212"/>
      <point x="200" y="-141" type="curve" smooth="yes"/>
      <point x="200" y="-85"/>
      <point x="158" y="-58"/>
    </contour>
  </outline>
</glyph>
<glyph name="Sacute" format="1">
  <advance width="489"/>
  <unicode hex="015A"/>
  <outline>
    <contour>
      <point x="437" y="169" type="curve" smooth="yes" name="hr01"/>
      <point x="437" y="264"/>
      <point x="375" y="322"/>
      <point x="312" y="361" type="curve" smooth="yes"/>
      <point x="232" y="411" type="line" smooth="yes"/>
      <point x="195" y="434"/>
      <point x="147" y="476"/>
      <point x="147" y="534" type="curve" smooth="yes"/>
      <point x="147" y="580"/>
      <point x="168" y="645"/>
      <point x="266" y="645" type="curve" smooth="yes"/>
      <point x="362" y="645"/>
      <point x="389" y="580"/>
      <point x="402" y="532" type="curve"/>
      <point x="407" y="526"/>
      <point x="423" y="529"/>
      <point x="427" y="535" type="curve" name="hr02"/>
      <point x="427" y="577"/>
      <point x="418" y="633"/>
      <point x="409" y="657" type="curve"/>
      <point x="401" y="657"/>
      <point x="387" y="659"/>
      <point x="374" y="663" type="curve" smooth="yes"/>
      <point x="348" y="670"/>
      <point x="312" y="676"/>
      <point x="281" y="676" type="curve" smooth="yes" name="hr03"/>
      <point x="151" y="676"/>
      <point x="77" y="599"/>
      <point x="77" y="504" type="curve" smooth="yes"/>
      <point x="77" y="422"/>
      <point x="135" y="365"/>
      <point x="185" y="332" type="curve" smooth="yes"/>
      <point x="280" y="270" type="line" smooth="yes"/>
      <point x="353" y="223"/>
      <point x="362" y="174"/>
      <point x="362" y="130" type="curve" smooth="yes"/>
      <point x="362" y="70"/>
      <point x="321" y="15"/>
      <point x="237" y="15" type="curve" smooth="yes"/>
      <point x="121" y="15"/>
      <point x="80" y="113"/>
      <point x="65" y="164" type="curve"/>
      <point x="61" y="170"/>
      <point x="46" y="168"/>
      <point x="41" y="161" type="curve"/>
      <point x="43" y="114"/>
      <point x="56" y="43"/>
      <point x="68" y="21" type="curve"/>
      <point x="87" y="10"/>
      <point x="140" y="-16"/>
      <point x="224" y="-16" type="curve" smooth="yes"/>
      <point x="354" y="-16"/>
      <point x="437" y="59"/>
    </contour>
    <contour>
      <point x="387" y="778" type="line" smooth="yes"/>
      <point x="402" y="784"/>
      <point x="409" y="789"/>
      <point x="413" y="794" type="curve"/>
      <point x="416" y="802"/>
      <point x="416" y="816"/>
      <point x="406" y="835" type="curve" smooth="yes"/>
      <point x="398" y="851"/>
      <point x="385" y="858"/>
      <point x="378" y="858" type="curve" smooth="yes"/>
      <point x="372" y="858"/>
      <point x="363" y="853"/>
      <point x="351" y="845" type="curve"/>
      <point x="210" y="730" type="line"/>
      <point x="207" y="719"/>
      <point x="213" y="708"/>
      <point x="220" y="706" type="curve"/>
    </contour>
  </outline>
</glyph>
<glyph name="Scaron" format="1">
  <advance width="489"/>
  <unicode hex="0160"/>
  <outline>
    <contour>
      <point x="437" y="169" type="curve" smooth="yes" name="hr01"/>
      <point x="437" y="264"/>
      <point x="375" y="322"/>
      <point x="312" y="361" type="curve" smooth="yes"/>
      <point x="232" y="411" type="line" smooth="yes"/>
      <point x="195" y="434"/>
      <point x="147" y="476"/>
      <point x="147" y="534" type="curve" smooth="yes"/>
      <point x="147" y="580"/>
      <point x="168" y="645"/>
      <point x="266" y="645" type="curve" smooth="yes"/>
      <point x="362" y="645"/>
      <point x="389" y="580"/>
      <point x="402" y="532" type="curve"/>
      <point x="407" y="526"/>
      <point x="423" y="529"/>
      <point x="427" y="535" type="curve" name="hr02"/>
      <point x="427" y="577"/>
      <point x="418" y="633"/>
      <point x="409" y="657" type="curve"/>
      <point x="401" y="657"/>
      <point x="387" y="659"/>
      <point x="374" y="663" type="curve" smooth="yes"/>
      <point x="348" y="670"/>
      <point x="312" y="676"/>
      <point x="281" y="676" type="curve" smooth="yes" name="hr03"/>
      <point x="151" y="676"/>
      <point x="77" y="599"/>
      <point x="77" y="504" type="curve" smooth="yes"/>
      <point x="77" y="422"/>
      <point x="135" y="365"/>
      <point x="185" y="332" type="curve" smooth="yes"/>
      <point x="280" y="270" type="line" smooth="yes"/>
      <point x="353" y="223"/>
      <point x="362" y="174"/>
      <point x="362" y="130" type="curve" smooth="yes"/>
      <point x="362" y="70"/>
      <point x="321" y="15"/>
      <point x="237" y="15" type="curve" smooth="yes"/>
      <point x="121" y="15"/>
      <point x="80" y="113"/>
      <point x="65" y="164" type="curve"/>
      <point x="61" y="170"/>
      <point x="46" y="168"/>
      <point x="41" y="161" type="curve"/>
      <point x="43" y="114"/>
      <point x="56" y="43"/>
      <point x="68" y="21" type="curve"/>
      <point x="87" y="10"/>
      <point x="140" y="-16"/>
      <point x="224" y="-16" type="curve" smooth="yes"/>
      <point x="354" y="-16"/>
      <point x="437" y="59"/>
    </contour>
    <contour>
      <point x="238" y="721" type="line" smooth="yes" name="hr04"/>
      <point x="252" y="709"/>
      <point x="266" y="708"/>
      <point x="280" y="721" type="curve" smooth="yes"/>
      <point x="402" y="834" type="line"/>
      <point x="402" y="843"/>
      <point x="397" y="853"/>
      <point x="391" y="854" type="curve"/>
      <point x="275" y="796" type="line" smooth="yes"/>
      <point x="260" y="788"/>
      <point x="257" y="789"/>
      <point x="243" y="796" type="curve" smooth="yes"/>
      <point x="129" y="854" type="line"/>
      <point x="121" y="854"/>
      <point x="115" y="843"/>
      <point x="115" y="834" type="curve"/>
    </contour>
  </outline>
</glyph>
<glyph name="uni0163" format="1">
  <advance width="307"/>
  <unicode hex="0163"/>
  <outline>
    <contour>
      <point x="293" y="352" type="line" name="hr01"/>
      <point x="302" y="358"/>
      <point x="304" y="385"/>
      <point x="292" y="394" type="curve"/>
      <point x="181" y="394" type="line" smooth="yes"/>
      <point x="164" y="394"/>
      <point x="163" y="395"/>
      <point x="163" y="413" type="curve" smooth="yes"/>
      <point x="163" y="458" type="line"/>
      <point x="159" y="465"/>
      <point x="147" y="465"/>
      <point x="142" y="463" type="curve"/>
      <point x="132" y="443"/>
      <point x="113" y="416"/>
      <point x="100" y="404" type="curve" smooth="yes"/>
      <point x="90" y="395"/>
      <point x="65" y="382"/>
      <point x="36" y="373" type="curve"/>
      <point x="32" y="367"/>
      <point x="33" y="356"/>
      <point x="39" y="352" type="curve"/>
      <point x="67" y="352" type="line" smooth="yes"/>
      <point x="87" y="352"/>
      <point x="88" y="350"/>
      <point x="88" y="323" type="curve" smooth="yes"/>
      <point x="88" y="94" type="line" smooth="yes"/>
      <point x="88" y="38"/>
      <point x="103" y="-7"/>
      <point x="175" y="-13" type="curve"/>
      <point x="123" y="-97" type="line" name="hr02"/>
      <point x="123" y="-102" type="line"/>
      <point x="154" y="-114"/>
      <point x="178" y="-138"/>
      <point x="178" y="-161" type="curve" smooth="yes"/>
      <point x="178" y="-182"/>
      <point x="165" y="-189"/>
      <point x="154" y="-189" type="curve" smooth="yes"/>
      <point x="142" y="-189"/>
      <point x="125" y="-163"/>
      <point x="108" y="-163" type="curve" smooth="yes"/>
      <point x="94" y="-163"/>
      <point x="86" y="-176"/>
      <point x="86" y="-186" type="curve" smooth="yes"/>
      <point x="86" y="-204"/>
      <point x="104" y="-217"/>
      <point x="137" y="-217" type="curve" smooth="yes"/>
      <point x="183" y="-217"/>
      <point x="229" y="-184"/>
      <point x="229" y="-139" type="curve" smooth="yes"/>
      <point x="229" y="-113"/>
      <point x="212" y="-92"/>
      <point x="188" y="-76" type="curve" smooth="yes"/>
      <point x="177" y="-69"/>
      <point x="176" y="-62"/>
      <point x="180" y="-55" type="curve" smooth="yes"/>
      <point x="205" y="-13" type="line"/>
      <point x="249" y="-9"/>
      <point x="280" y="13"/>
      <point x="297" y="32" type="curve"/>
      <point x="299" y="38"/>
      <point x="295" y="49"/>
      <point x="287" y="49" type="curve" smooth="yes"/>
      <point x="284" y="49"/>
      <point x="271" y="38"/>
      <point x="262" y="35" type="curve" smooth="yes" name="hr03"/>
      <point x="254" y="32"/>
      <point x="245" y="30"/>
      <point x="235" y="30" type="curve" smooth="yes"/>
      <point x="169" y="30"/>
      <point x="162" y="83"/>
      <point x="162" y="141" type="curve" smooth="yes"/>
      <point x="162" y="328" type="line" smooth="yes"/>
      <point x="162" y="349"/>
      <point x="163" y="352"/>
      <point x="180" y="352" type="curve" smooth="yes"/>
    </contour>
  </outline>
</glyph>
<glyph name="Tcaron" format="1">
  <advance width="660"/>
  <unicode hex="0164"/>
  <outline>
    <contour>
      <point x="368" y="595" type="line" smooth="yes" name="hr01"/>
      <point x="368" y="628"/>
      <point x="367" y="629"/>
      <point x="397" y="629" type="curve" smooth="yes"/>
      <point x="468" y="629" type="line" smooth="yes"/>
      <point x="523" y="629"/>
      <point x="561" y="621"/>
      <point x="584" y="604" type="curve" smooth="yes"/>
      <point x="599" y="593"/>
      <point x="606" y="556"/>
      <point x="609" y="531" type="curve" name="hr02"/>
      <point x="614" y="525"/>
      <point x="631" y="525"/>
      <point x="635" y="533" type="curve"/>
      <point x="632" y="563"/>
      <point x="639" y="644"/>
      <point x="650" y="685" type="curve" name="hr03"/>
      <point x="648" y="689"/>
      <point x="637" y="690"/>
      <point x="632" y="688" type="curve"/>
      <point x="617" y="662"/>
      <point x="608" y="660"/>
      <point x="554" y="660" type="curve" smooth="yes"/>
      <point x="149" y="660" type="line" smooth="yes"/>
      <point x="103" y="660"/>
      <point x="70" y="659"/>
      <point x="64" y="691" type="curve"/>
      <point x="61" y="694"/>
      <point x="48" y="693"/>
      <point x="45" y="691" type="curve"/>
      <point x="38" y="651"/>
      <point x="23" y="587"/>
      <point x="7" y="542" type="curve"/>
      <point x="11" y="534"/>
      <point x="25" y="529"/>
      <point x="33" y="535" type="curve"/>
      <point x="44" y="560"/>
      <point x="54" y="582"/>
      <point x="78" y="604" type="curve" smooth="yes"/>
      <point x="103" y="627"/>
      <point x="158" y="629"/>
      <point x="201" y="629" type="curve" smooth="yes"/>
      <point x="256" y="629" type="line" smooth="yes"/>
      <point x="286" y="629"/>
      <point x="286" y="628"/>
      <point x="286" y="597" type="curve" smooth="yes"/>
      <point x="286" y="150" type="line" smooth="yes"/>
      <point x="286" y="45"/>
      <point x="281" y="30"/>
      <point x="224" y="25" type="curve" smooth="yes"/>
      <point x="188" y="22" type="line"/>
      <point x="180" y="17"/>
      <point x="182" y="0"/>
      <point x="188" y="-3" type="curve"/>
      <point x="252" y="-1"/>
      <point x="287" y="0"/>
      <point x="327" y="0" type="curve" smooth="yes"/>
      <point x="367" y="0"/>
      <point x="401" y="-1"/>
      <point x="458" y="-3" type="curve"/>
      <point x="464" y="0"/>
      <point x="466" y="18"/>
      <point x="460" y="22" type="curve"/>
      <point x="428" y="25" type="line" smooth="yes"/>
      <point x="370" y="30"/>
      <point x="368" y="45"/>
      <point x="368" y="150" type="curve" smooth="yes"/>
    </contour>
    <contour>
      <point x="311" y="713" type="line" smooth="yes"/>
      <point x="325" y="701"/>
      <point x="339" y="700"/>
      <point x="353" y="713" type="curve" smooth="yes"/>
      <point x="475" y="826" type="line"/>
      <point x="475" y="835"/>
      <point x="470" y="845"/>
      <point x="464" y="846" type="curve"/>
      <point x="348" y="789" type="line" smooth="yes"/>
      <point x="333" y="782"/>
      <point x="329" y="781"/>
      <point x="315" y="788" type="curve" smooth="yes"/>
      <point x="202" y="846" type="line"/>
      <point x="194" y="846"/>
      <point x="188" y="835"/>
      <point x="188" y="826" type="curve"/>
    </contour>
  </outline>
</glyph>
<glyph name="umacron" format="1">
  <advance width="512"/>
  <unicode hex="016B"/>
  <outline>
    <contour>
      <point x="159" y="314" type="line" smooth="yes" name="hr01"/>
      <point x="159" y="363"/>
      <point x="160" y="384"/>
      <point x="162" y="401" type="curve"/>
      <point x="161" y="405"/>
      <point x="158" y="407"/>
      <point x="152" y="408" type="curve"/>
      <point x="130" y="400"/>
      <point x="91" y="391"/>
      <point x="45" y="390" type="curve"/>
      <point x="38" y="387"/>
      <point x="37" y="373"/>
      <point x="43" y="368" type="curve"/>
      <point x="55" y="363" type="line" smooth="yes"/>
      <point x="85" y="350"/>
      <point x="85" y="341"/>
      <point x="85" y="278" type="curve" smooth="yes"/>
      <point x="85" y="111" type="line" smooth="yes"/>
      <point x="85" y="30"/>
      <point x="118" y="-14"/>
      <point x="206" y="-14" type="curve" smooth="yes"/>
      <point x="265" y="-14"/>
      <point x="314" y="19"/>
      <point x="344" y="38" type="curve"/>
      <point x="350" y="38"/>
      <point x="353" y="33"/>
      <point x="353" y="24" type="curve" smooth="yes"/>
      <point x="353" y="-17" type="line"/>
      <point x="355" y="-21"/>
      <point x="360" y="-24"/>
      <point x="365" y="-24" type="curve"/>
      <point x="399" y="-5"/>
      <point x="457" y="5"/>
      <point x="496" y="13" type="curve"/>
      <point x="504" y="17"/>
      <point x="503" y="37"/>
      <point x="497" y="42" type="curve"/>
      <point x="483" y="39"/>
      <point x="470" y="37"/>
      <point x="458" y="37" type="curve" smooth="yes"/>
      <point x="430" y="37"/>
      <point x="427" y="67"/>
      <point x="427" y="146" type="curve" smooth="yes"/>
      <point x="427" y="314" type="line" smooth="yes"/>
      <point x="427" y="351"/>
      <point x="428" y="382"/>
      <point x="430" y="401" type="curve"/>
      <point x="429" y="405"/>
      <point x="426" y="407"/>
      <point x="421" y="408" type="curve"/>
      <point x="399" y="398"/>
      <point x="344" y="391"/>
      <point x="304" y="390" type="curve"/>
      <point x="296" y="386"/>
      <point x="296" y="372"/>
      <point x="303" y="368" type="curve"/>
      <point x="316" y="363" type="line" smooth="yes"/>
      <point x="346" y="351"/>
      <point x="353" y="349"/>
      <point x="353" y="284" type="curve" smooth="yes"/>
      <point x="353" y="120" type="line" smooth="yes"/>
      <point x="353" y="89"/>
      <point x="346" y="74"/>
      <point x="333" y="62" type="curve" smooth="yes"/>
      <point x="311" y="43"/>
      <point x="279" y="32"/>
      <point x="252" y="32" type="curve" smooth="yes"/>
      <point x="176" y="32"/>
      <point x="159" y="78"/>
      <point x="159" y="147" type="curve" smooth="yes"/>
    </contour>
    <contour>
      <point x="352" y="514" type="line" name="hr02"/>
      <point x="361" y="528"/>
      <point x="361" y="557"/>
      <point x="352" y="571" type="curve"/>
      <point x="138" y="571" type="line"/>
      <point x="127" y="557"/>
      <point x="127" y="528"/>
      <point x="138" y="514" type="curve"/>
    </contour>
  </outline>
</glyph>
<glyph name="uogonek" format="1">
  <advance width="512"/>
  <unicode hex="0173"/>
  <outline>
    <contour>
      <point x="85" y="111" type="line" smooth="yes" name="hr01"/>
      <point x="85" y="30"/>
      <point x="118" y="-14"/>
      <point x="206" y="-14" type="curve" smooth="yes"/>
      <point x="265" y="-14"/>
      <point x="314" y="19"/>
      <point x="344" y="38" type="curve"/>
      <point x="350" y="38"/>
      <point x="353" y="33"/>
      <point x="353" y="24" type="curve" smooth="yes"/>
      <point x="353" y="-17" type="line"/>
      <point x="355" y="-21"/>
      <point x="360" y="-24"/>
      <point x="365" y="-24" type="curve"/>
      <point x="390" y="-10"/>
      <point x="428" y="-1"/>
      <point x="455" y="5" type="curve"/>
      <point x="382" y="-55"/>
      <point x="355" y="-94"/>
      <point x="355" y="-135" type="curve" smooth="yes"/>
      <point x="355" y="-175"/>
      <point x="385" y="-209"/>
      <point x="437" y="-209" type="curve" smooth="yes"/>
      <point x="467" y="-209"/>
      <point x="504" y="-195"/>
      <point x="528" y="-163" type="curve"/>
      <point x="528" y="-155"/>
      <point x="526" y="-150"/>
      <point x="519" y="-148" type="curve"/>
      <point x="507" y="-157"/>
      <point x="488" y="-162"/>
      <point x="467" y="-162" type="curve" smooth="yes"/>
      <point x="441" y="-162"/>
      <point x="425" y="-141"/>
      <point x="425" y="-113" type="curve" smooth="yes"/>
      <point x="425" y="-79"/>
      <point x="444" y="-32"/>
      <point x="493" y="12" type="curve" smooth="yes" name="hr02"/>
      <point x="494" y="13"/>
      <point x="495" y="13"/>
      <point x="496" y="13" type="curve" smooth="yes"/>
      <point x="504" y="17"/>
      <point x="503" y="37"/>
      <point x="497" y="42" type="curve"/>
      <point x="483" y="39"/>
      <point x="470" y="37"/>
      <point x="458" y="37" type="curve" smooth="yes"/>
      <point x="430" y="37"/>
      <point x="427" y="67"/>
      <point x="427" y="146" type="curve" smooth="yes"/>
      <point x="427" y="314" type="line" smooth="yes"/>
      <point x="427" y="351"/>
      <point x="428" y="382"/>
      <point x="430" y="401" type="curve"/>
      <point x="429" y="405"/>
      <point x="426" y="407"/>
      <point x="421" y="408" type="curve"/>
      <point x="399" y="398"/>
      <point x="344" y="391"/>
      <point x="304" y="390" type="curve"/>
      <point x="296" y="386"/>
      <point x="296" y="372"/>
      <point x="303" y="368" type="curve"/>
      <point x="316" y="363" type="line" smooth="yes"/>
      <point x="346" y="351"/>
      <point x="353" y="349"/>
      <point x="353" y="284" type="curve" smooth="yes"/>
      <point x="353" y="120" type="line" smooth="yes" name="hr03"/>
      <point x="353" y="89"/>
      <point x="346" y="74"/>
      <point x="333" y="62" type="curve" smooth="yes"/>
      <point x="311" y="43"/>
      <point x="279" y="32"/>
      <point x="252" y="32" type="curve" smooth="yes"/>
      <point x="176" y="32"/>
      <point x="159" y="78"/>
      <point x="159" y="147" type="curve" smooth="yes"/>
      <point x="159" y="314" type="line" smooth="yes"/>
      <point x="159" y="363"/>
      <point x="160" y="384"/>
      <point x="162" y="401" type="curve"/>
      <point x="161" y="405"/>
      <point x="158" y="407"/>
      <point x="152" y="408" type="curve"/>
      <point x="130" y="400"/>
      <point x="91" y="391"/>
      <point x="45" y="390" type="curve"/>
      <point x="38" y="387"/>
      <point x="37" y="373"/>
      <point x="43" y="368" type="curve"/>
      <point x="55" y="363" type="line" smooth="yes"/>
      <point x="85" y="350"/>
      <point x="85" y="341"/>
      <point x="85" y="278" type="curve" smooth="yes"/>
    </contour>
  </outline>
</glyph>
<glyph name="Zcaron" format="1">
  <advance width="641"/>
  <unicode hex="017D"/>
  <outline>
    <contour>
      <point x="136" y="145" type="line" smooth="yes" name="hr01"/>
      <point x="105" y="100"/>
      <point x="48" y="29"/>
      <point x="27" y="9" type="curve" name="hr02"/>
      <point x="27" y="4"/>
      <point x="28" y="-1"/>
      <point x="32" y="-3" type="curve"/>
      <point x="55" y="-2"/>
      <point x="91" y="0"/>
      <point x="144" y="0" type="curve" smooth="yes" name="hr03"/>
      <point x="401" y="0" type="line" smooth="yes"/>
      <point x="471" y="0"/>
      <point x="528" y="-1"/>
      <point x="583" y="-3" type="curve"/>
      <point x="599" y="22"/>
      <point x="619" y="93"/>
      <point x="628" y="139" type="curve"/>
      <point x="625" y="148"/>
      <point x="612" y="149"/>
      <point x="603" y="146" type="curve"/>
      <point x="586" y="107"/>
      <point x="562" y="70"/>
      <point x="533" y="54" type="curve" smooth="yes"/>
      <point x="495" y="33"/>
      <point x="412" y="31"/>
      <point x="348" y="31" type="curve" smooth="yes"/>
      <point x="278" y="31"/>
      <point x="226" y="31"/>
      <point x="200" y="33" type="curve" smooth="yes"/>
      <point x="182" y="35"/>
      <point x="172" y="37"/>
      <point x="172" y="47" type="curve" smooth="yes"/>
      <point x="172" y="62"/>
      <point x="260" y="186"/>
      <point x="271" y="202" type="curve" smooth="yes"/>
      <point x="436" y="440" type="line" smooth="yes"/>
      <point x="488" y="515"/>
      <point x="573" y="631"/>
      <point x="600" y="654" type="curve"/>
      <point x="600" y="658"/>
      <point x="598" y="662"/>
      <point x="594" y="663" type="curve"/>
      <point x="583" y="661"/>
      <point x="551" y="660"/>
      <point x="479" y="660" type="curve" smooth="yes" name="hr04"/>
      <point x="215" y="660" type="line" smooth="yes"/>
      <point x="134" y="660"/>
      <point x="119" y="661"/>
      <point x="116" y="685" type="curve"/>
      <point x="111" y="688"/>
      <point x="103" y="688"/>
      <point x="99" y="685" type="curve"/>
      <point x="87" y="630"/>
      <point x="70" y="570"/>
      <point x="58" y="535" type="curve"/>
      <point x="62" y="527"/>
      <point x="74" y="524"/>
      <point x="83" y="528" type="curve"/>
      <point x="91" y="545"/>
      <point x="106" y="573"/>
      <point x="127" y="596" type="curve" smooth="yes"/>
      <point x="151" y="622"/>
      <point x="196" y="629"/>
      <point x="276" y="629" type="curve" smooth="yes"/>
      <point x="425" y="629" type="line" smooth="yes"/>
      <point x="451" y="629"/>
      <point x="461" y="626"/>
      <point x="461" y="621" type="curve" smooth="yes"/>
      <point x="461" y="614"/>
      <point x="456" y="606"/>
      <point x="449" y="594" type="curve" smooth="yes"/>
      <point x="433" y="564"/>
      <point x="404" y="526"/>
      <point x="352" y="452" type="curve" smooth="yes"/>
    </contour>
    <contour>
      <point x="321" y="713" type="line" smooth="yes"/>
      <point x="335" y="701"/>
      <point x="348" y="700"/>
      <point x="362" y="713" type="curve" smooth="yes"/>
      <point x="484" y="826" type="line"/>
      <point x="484" y="835"/>
      <point x="480" y="845"/>
      <point x="473" y="846" type="curve"/>
      <point x="358" y="784" type="line" smooth="yes"/>
      <point x="343" y="776"/>
      <point x="339" y="777"/>
      <point x="326" y="784" type="curve" smooth="yes"/>
      <point x="212" y="846" type="line"/>
      <point x="204" y="846"/>
      <point x="197" y="835"/>
      <point x="197" y="826" type="curve"/>
    </contour>
  </outline>
</glyph>
<glyph name="uni021A" format="1">
  <advance width="660"/>
  <unicode hex="021A"/>
  <outline>
    <contour>
      <point x="368" y="595" type="line" smooth="yes" name="hr01"/>
      <point x="368" y="628"/>
      <point x="367" y="629"/>
      <point x="397" y="629" type="curve" smooth="yes"/>
      <point x="468" y="629" type="line" smooth="yes"/>
      <point x="523" y="629"/>
      <point x="561" y="621"/>
      <point x="584" y="604" type="curve" smooth="yes"/>
      <point x="599" y="593"/>
      <point x="606" y="556"/>
      <point x="609" y="531" type="curve" name="hr02"/>
      <point x="614" y="525"/>
      <point x="631" y="525"/>
      <point x="635" y="533" type="curve"/>
      <point x="632" y="563"/>
      <point x="639" y="644"/>
      <point x="650" y="685" type="curve" name="hr03"/>
      <point x="648" y="689"/>
      <point x="637" y="690"/>
      <point x="632" y="688" type="curve"/>
      <point x="617" y="662"/>
      <point x="608" y="660"/>
      <point x="554" y="660" type="curve" smooth="yes"/>
      <point x="149" y="660" type="line" smooth="yes"/>
      <point x="103" y="660"/>
      <point x="70" y="659"/>
      <point x="64" y="691" type="curve"/>
      <point x="61" y="694"/>
      <point x="48" y="693"/>
      <point x="45" y="691" type="curve"/>
      <point x="38" y="651"/>
      <point x="23" y="587"/>
      <point x="7" y="542" type="curve"/>
      <point x="11" y="534"/>
      <point x="25" y="529"/>
      <point x="33" y="535" type="curve"/>
      <point x="44" y="560"/>
      <point x="54" y="582"/>
      <point x="78" y="604" type="curve" smooth="yes"/>
      <point x="103" y="627"/>
      <point x="158" y="629"/>
      <point x="201" y="629" type="curve" smooth="yes"/>
      <point x="256" y="629" type="line" smooth="yes"/>
      <point x="286" y="629"/>
      <point x="286" y="628"/>
      <point x="286" y="597" type="curve" smooth="yes"/>
      <point x="286" y="150" type="line" smooth="yes"/>
      <point x="286" y="45"/>
      <point x="281" y="30"/>
      <point x="224" y="25" type="curve" smooth="yes"/>
      <point x="188" y="22" type="line"/>
      <point x="180" y="17"/>
      <point x="182" y="0"/>
      <point x="188" y="-3" type="curve"/>
      <point x="252" y="-1"/>
      <point x="287" y="0"/>
      <point x="327" y="0" type="curve" smooth="yes"/>
      <point x="367" y="0"/>
      <point x="401" y="-1"/>
      <point x="458" y="-3" type="curve"/>
      <point x="464" y="0"/>
      <point x="466" y="18"/>
      <point x="460" y="22" type="curve"/>
      <point x="428" y="25" type="line" smooth="yes"/>
      <point x="370" y="30"/>
      <point x="368" y="45"/>
      <point x="368" y="150" type="curve" smooth="yes"/>
    </contour>
    <contour>
      <point x="317" y="-58" type="curve" smooth="yes" name="hr04"/>
      <point x="287" y="-58"/>
      <point x="270" y="-77"/>
      <point x="270" y="-96" type="curve" smooth="yes"/>
      <point x="270" y="-106"/>
      <point x="275" y="-115"/>
      <point x="287" y="-121" type="curve" smooth="yes"/>
      <point x="295" y="-125"/>
      <point x="333" y="-137"/>
      <point x="333" y="-168" type="curve" smooth="yes"/>
      <point x="333" y="-207"/>
      <point x="290" y="-230"/>
      <point x="264" y="-238" type="curve"/>
      <point x="259" y="-242"/>
      <point x="260" y="-265"/>
      <point x="269" y="-269" type="curve"/>
      <point x="334" y="-251"/>
      <point x="390" y="-212"/>
      <point x="390" y="-141" type="curve" smooth="yes"/>
      <point x="390" y="-85"/>
      <point x="348" y="-58"/>
    </contour>
  </outline>
</glyph>
<glyph name="caron" format="1">
  <advance width="360"/>
  <unicode hex="02C7"/>
  <outline>
    <contour>
      <point x="93" y="670" type="line" name="hr00"/>
      <point x="88" y="670"/>
      <point x="74" y="667"/>
      <point x="73" y="657" type="curve"/>
      <point x="165" y="480" type="line" smooth="yes"/>
      <point x="175" y="461"/>
      <point x="188" y="460"/>
      <point x="198" y="480" type="curve" smooth="yes"/>
      <point x="288" y="657" type="line"/>
      <point x="287" y="667"/>
      <point x="276" y="671"/>
      <point x="270" y="670" type="curve"/>
      <point x="195" y="577" type="line" smooth="yes"/>
      <point x="185" y="565"/>
      <point x="178" y="564"/>
      <point x="168" y="577" type="curve" smooth="yes"/>
    </contour>
  </outline>
</glyph>
<glyph name="ring" format="1">
  <advance width="360"/>
  <unicode hex="02DA"/>
  <outline>
    <contour>
      <point x="180" y="641" type="curve" smooth="yes" name="hr00"/>
      <point x="130" y="641"/>
      <point x="95" y="602"/>
      <point x="95" y="560" type="curve" smooth="yes"/>
      <point x="95" y="517"/>
      <point x="130" y="479"/>
      <point x="180" y="479" type="curve" smooth="yes"/>
      <point x="230" y="479"/>
      <point x="265" y="517"/>
      <point x="265" y="560" type="curve" smooth="yes"/>
      <point x="265" y="602"/>
      <point x="230" y="641"/>
    </contour>
    <contour>
      <point x="135" y="560" type="curve" smooth="yes"/>
      <point x="135" y="590"/>
      <point x="155" y="612"/>
      <point x="180" y="612" type="curve" smooth="yes"/>
      <point x="206" y="612"/>
      <point x="225" y="590"/>
      <point x="225" y="560" type="curve" smooth="yes"/>
      <point x="225" y="529"/>
      <point x="206" y="507"/>
      <point x="180" y="507" type="curve" smooth="yes"/>
      <point x="155" y="507"/>
      <point x="135" y="529"/>
    </contour>
  </outline>
</glyph>
<glyph name="hungarumlaut" format="1">
  <advance width="360"/>
  <unicode hex="02DD"/>
  <outline>
    <contour>
      <point x="204" y="604" type="line" smooth="yes" name="hr00"/>
      <point x="212" y="615"/>
      <point x="216" y="628"/>
      <point x="215" y="635" type="curve" smooth="yes"/>
      <point x="214" y="643"/>
      <point x="208" y="649"/>
      <point x="199" y="655" type="curve" smooth="yes"/>
      <point x="184" y="663"/>
      <point x="175" y="668"/>
      <point x="167" y="666" type="curve" smooth="yes"/>
      <point x="160" y="665"/>
      <point x="155" y="655"/>
      <point x="150" y="644" type="curve"/>
      <point x="95" y="481" type="line"/>
      <point x="95" y="473"/>
      <point x="105" y="469"/>
      <point x="112" y="470" type="curve"/>
    </contour>
    <contour>
      <point x="336" y="604" type="line" smooth="yes"/>
      <point x="343" y="615"/>
      <point x="348" y="628"/>
      <point x="347" y="636" type="curve" smooth="yes"/>
      <point x="346" y="644"/>
      <point x="340" y="651"/>
      <point x="331" y="655" type="curve" smooth="yes"/>
      <point x="316" y="663"/>
      <point x="307" y="668"/>
      <point x="299" y="667" type="curve"/>
      <point x="293" y="665"/>
      <point x="287" y="655"/>
      <point x="282" y="644" type="curve"/>
      <point x="227" y="481" type="line"/>
      <point x="226" y="473"/>
      <point x="237" y="469"/>
      <point x="244" y="470" type="curve"/>
    </contour>
  </outline>
</glyph>
<glyph name="emdash" format="1">
  <advance width="1000"/>
  <unicode hex="2014"/>
  <outline>
    <contour>
      <point x="0" y="230" type="line" name="hr00"/>
      <point x="0" y="181" type="line"/>
      <point x="1000" y="181" type="line"/>
      <point x="1000" y="230" type="line"/>
    </contour>
  </outline>
</glyph>
<glyph name="quotesinglbase" format="1">
  <advance width="215"/>
  <unicode hex="201A"/>
  <outline>
    <contour>
      <point x="93" y="100" type="curve" smooth="yes" name="hr00"/>
      <point x="54" y="100"/>
      <point x="45" y="74"/>
      <point x="45" y="59" type="curve" smooth="yes"/>
      <point x="45" y="40"/>
      <point x="58" y="32"/>
      <point x="72" y="31" type="curve" smooth="yes"/>
      <point x="91" y="30"/>
      <point x="122" y="13"/>
      <point x="122" y="-25" type="curve" smooth="yes"/>
      <point x="122" y="-66"/>
      <point x="83" y="-94"/>
      <point x="46" y="-111" type="curve"/>
      <point x="41" y="-118"/>
      <point x="45" y="-128"/>
      <point x="53" y="-132" type="curve"/>
      <point x="116" y="-113"/>
      <point x="169" y="-65"/>
      <point x="170" y="4" type="curve" smooth="yes"/>
      <point x="170" y="56"/>
      <point x="134" y="100"/>
    </contour>
  </outline>
</glyph>
<glyph name="bullet" format="1">
  <advance width="388"/>
  <unicode hex="2022"/>
  <outline>
    <contour>
      <point x="194" y="475" type="curve" smooth="yes" name="hr00"/>
      <point x="117" y="475"/>
      <point x="55" y="414"/>
      <point x="55" y="336" type="curve" smooth="yes"/>
      <point x="55" y="258"/>
      <point x="117" y="198"/>
      <point x="194" y="198" type="curve" smooth="yes"/>
      <point x="271" y="198"/>
      <point x="333" y="258"/>
      <point x="333" y="336" type="curve" smooth="yes"/>
      <point x="333" y="414"/>
      <point x="271" y="475"/>
    </contour>
  </outline>
</glyph>
<glyph name="guilsinglleft" format="1">
  <advance width="233"/>
  <unicode hex="2039"/>
  <outline>
    <contour>
      <point x="188" y="358" type="line" name="hr00"/>
      <point x="185" y="366"/>
      <point x="178" y="370"/>
      <point x="171" y="371" type="curve"/>
      <point x="132" y="321"/>
      <point x="94" y="271"/>
      <point x="52" y="221" type="curve" smooth="yes"/>
      <point x="42" y="210"/>
      <point x="43" y="201"/>
      <point x="52" y="190" type="curve" smooth="yes"/>
      <point x="94" y="140"/>
      <point x="132" y="89"/>
      <point x="171" y="39" type="curve"/>
      <point x="180" y="41"/>
      <point x="185" y="45"/>
      <point x="188" y="52" type="curve"/>
      <point x="118" y="194" type="line" smooth="yes"/>
      <point x="115" y="201"/>
      <point x="114" y="209"/>
      <point x="118" y="218" type="curve" smooth="yes"/>
    </contour>
  </outline>
</glyph>
<glyph name="four.superior" format="1">
  <advance width="360"/>
  <unicode hex="2074"/>
  <outline>
    <contour>
      <point x="191" y="431" type="line" smooth="yes" name="hr00"/>
      <point x="209" y="431"/>
      <point x="210" y="428"/>
      <point x="210" y="413" type="curve" smooth="yes"/>
      <point x="210" y="401" type="line" smooth="yes"/>
      <point x="210" y="347"/>
      <point x="210" y="341"/>
      <point x="169" y="336" type="curve" smooth="yes"/>
      <point x="151" y="334" type="line"/>
      <point x="146" y="328"/>
      <point x="147" y="316"/>
      <point x="153" y="313" type="curve"/>
      <point x="166" y="314"/>
      <point x="205" y="315"/>
      <point x="242" y="315" type="curve" smooth="yes"/>
      <point x="285" y="315"/>
      <point x="308" y="314"/>
      <point x="329" y="313" type="curve"/>
      <point x="335" y="316"/>
      <point x="335" y="328"/>
      <point x="331" y="334" type="curve"/>
      <point x="313" y="336" type="line" smooth="yes"/>
      <point x="273" y="340"/>
      <point x="274" y="345"/>
      <point x="274" y="401" type="curve" smooth="yes"/>
      <point x="274" y="415" type="line" smooth="yes"/>
      <point x="274" y="429"/>
      <point x="275" y="431"/>
      <point x="293" y="431" type="curve" smooth="yes"/>
      <point x="326" y="431" type="line"/>
      <point x="334" y="437"/>
      <point x="334" y="455"/>
      <point x="326" y="460" type="curve"/>
      <point x="289" y="460" type="line" smooth="yes"/>
      <point x="276" y="460"/>
      <point x="274" y="462"/>
      <point x="274" y="474" type="curve" smooth="yes"/>
      <point x="274" y="589" type="line" smooth="yes"/>
      <point x="274" y="601"/>
      <point x="274" y="608"/>
      <point x="263" y="608" type="curve" smooth="yes"/>
      <point x="247" y="608"/>
      <point x="225" y="602"/>
      <point x="216" y="597" type="curve" smooth="yes"/>
      <point x="211" y="594"/>
      <point x="210" y="589"/>
      <point x="210" y="585" type="curve" smooth="yes"/>
      <point x="210" y="476" type="line" smooth="yes"/>
      <point x="210" y="462"/>
      <point x="208" y="460"/>
      <point x="192" y="460" type="curve" smooth="yes"/>
      <point x="102" y="460" type="line" smooth="yes"/>
      <point x="83" y="460"/>
      <point x="74" y="460"/>
      <point x="84" y="472" type="curve" smooth="yes"/>
      <point x="290" y="736" type="line" smooth="yes"/>
      <point x="291" y="738"/>
      <point x="292" y="740"/>
      <point x="292" y="742" type="curve" smooth="yes"/>
      <point x="292" y="746"/>
      <point x="282" y="747"/>
      <point x="270" y="747" type="curve" smooth="yes"/>
      <point x="260" y="747"/>
      <point x="256" y="744"/>
      <point x="249" y="735" type="curve" smooth="yes"/>
      <point x="36" y="461" type="line" smooth="yes"/>
      <point x="29" y="452"/>
      <point x="27" y="448"/>
      <point x="27" y="441" type="curve" smooth="yes"/>
      <point x="27" y="435"/>
      <point x="31" y="431"/>
      <point x="36" y="431" type="curve" smooth="yes"/>
    </contour>
  </outline>
</glyph>
<glyph name="parenleft.superior" format="1">
  <advance width="220"/>
  <unicode hex="207D"/>
  <outline>
    <contour>
      <point x="107" y="496" type="curve" smooth="yes" name="hr00"/>
      <point x="107" y="607"/>
      <point x="147" y="687"/>
      <point x="211" y="738" type="curve"/>
      <point x="215" y="747"/>
      <point x="208" y="755"/>
      <point x="201" y="756" type="curve"/>
      <point x="96" y="707"/>
      <point x="41" y="609"/>
      <point x="41" y="496" type="curve" smooth="yes"/>
      <point x="41" y="383"/>
      <point x="96" y="285"/>
      <point x="201" y="236" type="curve"/>
      <point x="208" y="237"/>
      <point x="215" y="245"/>
      <point x="211" y="254" type="curve"/>
      <point x="147" y="305"/>
      <point x="107" y="385"/>
    </contour>
  </outline>
</glyph>
<glyph name="zero.inferior" format="1">
  <advance width="360"/>
  <unicode hex="2080"/>
  <outline>
    <contour>
      <point x="181" y="229" type="curve" smooth="yes" name="hr00"/>
      <point x="77" y="229"/>
      <point x="32" y="122"/>
      <point x="32" y="29" type="curve" smooth="yes"/>
      <point x="32" y="-68"/>
      <point x="77" y="-171"/>
      <point x="181" y="-171" type="curve" smooth="yes"/>
      <point x="284" y="-171"/>
      <point x="329" y="-68"/>
      <point x="329" y="29" type="curve" smooth="yes"/>
      <point x="329" y="122"/>
      <point x="284" y="229"/>
    </contour>
    <contour>
      <point x="181" y="203" type="curve" smooth="yes"/>
      <point x="245" y="203"/>
      <point x="254" y="78"/>
      <point x="254" y="27" type="curve" smooth="yes"/>
      <point x="254" y="-24"/>
      <point x="249" y="-145"/>
      <point x="181" y="-145" type="curve" smooth="yes"/>
      <point x="112" y="-145"/>
      <point x="107" y="-24"/>
      <point x="107" y="27" type="curve" smooth="yes"/>
      <point x="107" y="78"/>
      <point x="108" y="203"/>
    </contour>
  </outline>
</glyph>
<glyph name="three.inferior" format="1">
  <advance width="360"/>
  <unicode hex="2083"/>
  <outline>
    <contour>
      <point x="254" y="-52" type="curve" smooth="yes" name="hr01"/>
      <point x="254" y="-133"/>
      <point x="180" y="-176"/>
      <point x="140" y="-176" type="curve" smooth="yes"/>
      <point x="125" y="-176"/>
      <point x="115" y="-169"/>
      <point x="108" y="-158" type="curve" smooth="yes"/>
      <point x="101" y="-147"/>
      <point x="90" y="-132"/>
      <point x="75" y="-132" type="curve" smooth="yes"/>
      <point x="56" y="-132"/>
      <point x="42" y="-146"/>
      <point x="42" y="-164" type="curve" smooth="yes"/>
      <point x="42" y="-194"/>
      <point x="80" y="-203"/>
      <point x="113" y="-203" type="curve" smooth="yes"/>
      <point x="146" y="-203"/>
      <point x="204" y="-189"/>
      <point x="257" y="-150" type="curve" smooth="yes"/>
      <point x="303" y="-116"/>
      <point x="326" y="-72"/>
      <point x="326" y="-27" type="curve" smooth="yes"/>
      <point x="326" y="33"/>
      <point x="279" y="68"/>
      <point x="228" y="68" type="curve" smooth="yes"/>
      <point x="220" y="68"/>
      <point x="215" y="72"/>
      <point x="220" y="78" type="curve"/>
      <point x="278" y="105"/>
      <point x="293" y="129"/>
      <point x="293" y="158" type="curve" smooth="yes" name="hr02"/>
      <point x="293" y="195"/>
      <point x="255" y="229"/>
      <point x="197" y="229" type="curve" smooth="yes"/>
      <point x="141" y="229"/>
      <point x="93" y="198"/>
      <point x="68" y="148" type="curve"/>
      <point x="70" y="141"/>
      <point x="76" y="136"/>
      <point x="85" y="137" type="curve"/>
      <point x="108" y="174"/>
      <point x="138" y="195"/>
      <point x="170" y="195" type="curve" smooth="yes"/>
      <point x="198" y="195"/>
      <point x="223" y="177"/>
      <point x="223" y="142" type="curve" smooth="yes"/>
      <point x="223" y="116"/>
      <point x="208" y="97"/>
      <point x="192" y="86" type="curve" smooth="yes"/>
      <point x="165" y="68"/>
      <point x="110" y="45"/>
      <point x="86" y="35" type="curve"/>
      <point x="82" y="22"/>
      <point x="89" y="13"/>
      <point x="99" y="8" type="curve"/>
      <point x="115" y="23"/>
      <point x="139" y="37"/>
      <point x="171" y="37" type="curve" smooth="yes" name="hr03"/>
      <point x="231" y="37"/>
      <point x="254" y="-8"/>
    </contour>
  </outline>
</glyph>
<glyph name="five.inferior" format="1">
  <advance width="360"/>
  <unicode hex="2085"/>
  <outline>
    <contour>
      <point x="269" y="178" type="line" name="hr00"/>
      <point x="283" y="195"/>
      <point x="290" y="212"/>
      <point x="295" y="227" type="curve" smooth="yes"/>
      <point x="295" y="229"/>
      <point x="292" y="231"/>
      <point x="288" y="232" type="curve"/>
      <point x="117" y="211" type="line" smooth="yes"/>
      <point x="106" y="210"/>
      <point x="105" y="206"/>
      <point x="101" y="195" type="curve" smooth="yes"/>
      <point x="64" y="89" type="line" smooth="yes"/>
      <point x="57" y="70"/>
      <point x="59" y="62"/>
      <point x="70" y="62" type="curve" smooth="yes"/>
      <point x="151" y="62"/>
      <point x="249" y="39"/>
      <point x="249" y="-42" type="curve" smooth="yes"/>
      <point x="249" y="-115"/>
      <point x="166" y="-170"/>
      <point x="58" y="-171" type="curve"/>
      <point x="49" y="-179"/>
      <point x="52" y="-197"/>
      <point x="61" y="-201" type="curve"/>
      <point x="173" y="-199"/>
      <point x="307" y="-134"/>
      <point x="307" y="-24" type="curve" smooth="yes"/>
      <point x="307" y="73"/>
      <point x="213" y="101"/>
      <point x="126" y="110" type="curve" smooth="yes"/>
      <point x="116" y="111" type="line" smooth="yes"/>
      <point x="101" y="112"/>
      <point x="99" y="119"/>
      <point x="102" y="126" type="curve" smooth="yes"/>
      <point x="111" y="147" type="line" smooth="yes"/>
      <point x="115" y="156"/>
      <point x="116" y="159"/>
      <point x="139" y="162" type="curve" smooth="yes"/>
    </contour>
  </outline>
</glyph>
<glyph name="nine.inferior" format="1">
  <advance width="360"/>
  <unicode hex="2089"/>
  <outline>
    <contour>
      <point x="152" y="-128" type="curve" smooth="yes" name="hr00"/>
      <point x="125" y="-145"/>
      <point x="88" y="-160"/>
      <point x="47" y="-171" type="curve"/>
      <point x="42" y="-176"/>
      <point x="44" y="-189"/>
      <point x="52" y="-191" type="curve"/>
      <point x="103" y="-184"/>
      <point x="173" y="-164"/>
      <point x="219" y="-130" type="curve" smooth="yes"/>
      <point x="294" y="-73"/>
      <point x="325" y="-7"/>
      <point x="327" y="64" type="curve" smooth="yes"/>
      <point x="330" y="164"/>
      <point x="272" y="229"/>
      <point x="184" y="229" type="curve" smooth="yes"/>
      <point x="100" y="229"/>
      <point x="34" y="175"/>
      <point x="34" y="99" type="curve" smooth="yes"/>
      <point x="34" y="35"/>
      <point x="84" y="-5"/>
      <point x="145" y="-5" type="curve" smooth="yes"/>
      <point x="174" y="-5"/>
      <point x="197" y="7"/>
      <point x="212" y="19" type="curve"/>
      <point x="215" y="23"/>
      <point x="214" y="31"/>
      <point x="210" y="34" type="curve"/>
      <point x="201" y="33"/>
      <point x="191" y="32"/>
      <point x="177" y="32" type="curve" smooth="yes"/>
      <point x="126" y="32"/>
      <point x="99" y="81"/>
      <point x="99" y="125" type="curve" smooth="yes"/>
      <point x="99" y="173"/>
      <point x="134" y="203"/>
      <point x="170" y="203" type="curve" smooth="yes"/>
      <point x="231" y="203"/>
      <point x="253" y="129"/>
      <point x="253" y="77" type="curve" smooth="yes"/>
      <point x="253" y="-30"/>
      <point x="208" y="-93"/>
    </contour>
  </outline>
</glyph>
<glyph name="uni20B9" format="1">
  <advance width="500"/>
  <unicode hex="20B9"/>
  <outline>
    <contour>
      <point x="438" y="487" type="line" name="hr00"/>
      <point x="445" y="493"/>
      <point x="445" y="513"/>
      <point x="438" y="519" type="curve"/>
      <point x="344" y="519" type="line"/>
      <point x="331" y="558"/>
      <point x="305" y="582"/>
      <point x="286" y="594" type="curve"/>
      <point x="443" y="594" type="line"/>
      <point x="452" y="602"/>
      <point x="452" y="623"/>
      <point x="443" y="626" type="curve"/>
      <point x="57" y="626" type="line"/>
      <point x="50" y="623"/>
      <point x="49" y="602"/>
      <point x="57" y="590" type="curve"/>
      <point x="69" y="591"/>
      <point x="82" y="592"/>
      <point x="114" y="592" type="curve" smooth="yes"/>
      <point x="202" y="592"/>
      <point x="243" y="564"/>
      <point x="259" y="519" type="curve"/>
      <point x="63" y="519" type="line"/>
      <point x="56" y="513"/>
      <point x="56" y="493"/>
      <point x="63" y="487" type="curve"/>
      <point x="266" y="487" type="line"/>
      <point x="267" y="478"/>
      <point x="268" y="468"/>
      <point x="268" y="458" type="curve" smooth="yes"/>
      <point x="268" y="376"/>
      <point x="215" y="311"/>
      <point x="81" y="296" type="curve"/>
      <point x="73" y="296"/>
      <point x="70" y="288"/>
      <point x="77" y="278" type="curve" smooth="yes"/>
      <point x="108" y="230"/>
      <point x="156" y="159"/>
      <point x="185" y="121" type="curve" smooth="yes"/>
      <point x="261" y="22"/>
      <point x="307" y="-11"/>
      <point x="392" y="-11" type="curve" smooth="yes"/>
      <point x="411" y="-11"/>
      <point x="427" y="-9"/>
      <point x="436" y="-6" type="curve"/>
      <point x="441" y="-2"/>
      <point x="441" y="8"/>
      <point x="436" y="10" type="curve"/>
      <point x="409" y="12"/>
      <point x="380" y="24"/>
      <point x="363" y="39" type="curve" smooth="yes"/>
      <point x="295" y="96"/>
      <point x="253" y="152"/>
      <point x="173" y="281" type="curve"/>
      <point x="266" y="304"/>
      <point x="352" y="362"/>
      <point x="352" y="465" type="curve" smooth="yes"/>
      <point x="352" y="472"/>
      <point x="352" y="480"/>
      <point x="351" y="487" type="curve"/>
    </contour>
  </outline>
</glyph>
<glyph name="uni20BA" format="1">
  <advance width="500"/>
  <unicode hex="20BA"/>
  <outline>
    <contour>
      <point x="37" y="341" type="line" name="hr00"/>
      <point x="35" y="327"/>
      <point x="38" y="314"/>
      <point x="51" y="311" type="curve"/>
      <point x="131" y="349" type="line"/>
      <point x="131" y="275" type="line"/>
      <point x="37" y="230" type="line"/>
      <point x="35" y="216"/>
      <point x="38" y="203"/>
      <point x="51" y="200" type="curve"/>
      <point x="131" y="238" type="line"/>
      <point x="131" y="49" type="line" smooth="yes"/>
      <point x="131" y="28"/>
      <point x="122" y="22"/>
      <point x="115" y="16" type="curve" smooth="yes"/>
      <point x="106" y="9"/>
      <point x="97" y="6"/>
      <point x="89" y="2" type="curve" smooth="yes"/>
      <point x="81" y="-3"/>
      <point x="83" y="-15"/>
      <point x="91" y="-16" type="curve"/>
      <point x="162" y="-10"/>
      <point x="260" y="4"/>
      <point x="336" y="49" type="curve" smooth="yes"/>
      <point x="402" y="88"/>
      <point x="463" y="153"/>
      <point x="463" y="261" type="curve" smooth="yes"/>
      <point x="463" y="281"/>
      <point x="457" y="319"/>
      <point x="430" y="319" type="curve" smooth="yes"/>
      <point x="412" y="319"/>
      <point x="382" y="297"/>
      <point x="382" y="268" type="curve" smooth="yes"/>
      <point x="382" y="262"/>
      <point x="385" y="257"/>
      <point x="390" y="251" type="curve" smooth="yes"/>
      <point x="408" y="225"/>
      <point x="410" y="214"/>
      <point x="410" y="200" type="curve" smooth="yes"/>
      <point x="411" y="120"/>
      <point x="309" y="56"/>
      <point x="217" y="48" type="curve" smooth="yes"/>
      <point x="206" y="47"/>
      <point x="205" y="49"/>
      <point x="205" y="67" type="curve" smooth="yes"/>
      <point x="205" y="274" type="line"/>
      <point x="330" y="335" type="line"/>
      <point x="334" y="348"/>
      <point x="329" y="359"/>
      <point x="317" y="364" type="curve"/>
      <point x="205" y="310" type="line"/>
      <point x="205" y="385" type="line"/>
      <point x="330" y="446" type="line"/>
      <point x="334" y="459"/>
      <point x="329" y="470"/>
      <point x="317" y="475" type="curve"/>
      <point x="205" y="421" type="line"/>
      <point x="205" y="510" type="line" smooth="yes"/>
      <point x="205" y="567"/>
      <point x="207" y="617"/>
      <point x="209" y="635" type="curve"/>
      <point x="207" y="638"/>
      <point x="203" y="640"/>
      <point x="199" y="640" type="curve"/>
      <point x="182" y="633"/>
      <point x="133" y="612"/>
      <point x="80" y="602" type="curve"/>
      <point x="74" y="598"/>
      <point x="74" y="584"/>
      <point x="82" y="580" type="curve"/>
      <point x="127" y="565"/>
      <point x="131" y="562"/>
      <point x="131" y="519" type="curve" smooth="yes"/>
      <point x="131" y="386" type="line"/>
    </contour>
  </outline>
</glyph>
<glyph name="uni2113" format="1">
  <advance width="420"/>
  <unicode hex="2113"/>
  <outline>
    <contour>
      <point x="114" y="252" type="line" name="hr00"/>
      <point x="82" y="220"/>
      <point x="51" y="194"/>
      <point x="23" y="169" type="curve"/>
      <point x="20" y="162"/>
      <point x="28" y="152"/>
      <point x="34" y="152" type="curve"/>
      <point x="61" y="173"/>
      <point x="87" y="193"/>
      <point x="114" y="219" type="curve"/>
      <point x="114" y="162" type="line" smooth="yes"/>
      <point x="114" y="59"/>
      <point x="143" y="-14"/>
      <point x="242" y="-14" type="curve" smooth="yes"/>
      <point x="311" y="-14"/>
      <point x="360" y="26"/>
      <point x="390" y="106" type="curve"/>
      <point x="390" y="116"/>
      <point x="377" y="125"/>
      <point x="371" y="120" type="curve"/>
      <point x="337" y="47"/>
      <point x="300" y="30"/>
      <point x="270" y="30" type="curve" smooth="yes"/>
      <point x="212" y="30"/>
      <point x="188" y="72"/>
      <point x="188" y="166" type="curve" smooth="yes"/>
      <point x="188" y="284" type="line"/>
      <point x="272" y="361"/>
      <point x="375" y="450"/>
      <point x="375" y="569" type="curve" smooth="yes"/>
      <point x="375" y="629"/>
      <point x="336" y="676"/>
      <point x="275" y="676" type="curve" smooth="yes"/>
      <point x="169" y="676"/>
      <point x="114" y="574"/>
      <point x="114" y="422" type="curve" smooth="yes"/>
    </contour>
    <contour>
      <point x="188" y="515" type="line" smooth="yes"/>
      <point x="188" y="601"/>
      <point x="217" y="644"/>
      <point x="260" y="644" type="curve" smooth="yes"/>
      <point x="311" y="644"/>
      <point x="328" y="598"/>
      <point x="328" y="557" type="curve" smooth="yes"/>
      <point x="328" y="487"/>
      <point x="285" y="413"/>
      <point x="188" y="324" type="curve"/>
    </contour>
  </outline>
</glyph>
<glyph name="seveneighths" format="1">
  <advance width="780"/>
  <unicode hex="215E"/>
  <outline>
    <contour>
      <point x="621" y="393" type="curve" smooth="yes" name="hr01"/>
      <point x="550" y="393"/>
      <point x="494" y="351"/>
      <point x="494" y="288" type="curve" smooth="yes"/>
      <point x="494" y="244"/>
      <point x="528" y="212"/>
      <point x="567" y="196" type="curve"/>
      <point x="567" y="194" type="line"/>
      <point x="521" y="179"/>
      <point x="478" y="144"/>
      <point x="478" y="93" type="curve" smooth="yes" name="hr02"/>
      <point x="478" y="20"/>
      <point x="545" y="-7"/>
      <point x="614" y="-7" type="curve" smooth="yes"/>
      <point x="695" y="-7"/>
      <point x="753" y="31"/>
      <point x="753" y="97" type="curve" smooth="yes"/>
      <point x="753" y="157"/>
      <point x="713" y="188"/>
      <point x="668" y="211" type="curve"/>
      <point x="699" y="226"/>
      <point x="742" y="253"/>
      <point x="742" y="297" type="curve" smooth="yes" name="hr03"/>
      <point x="742" y="361"/>
      <point x="689" y="393"/>
    </contour>
    <contour>
      <point x="595" y="182" type="curve" name="hr05"/>
      <point x="650" y="165"/>
      <point x="694" y="134"/>
      <point x="694" y="87" type="curve" smooth="yes"/>
      <point x="694" y="47"/>
      <point x="664" y="19"/>
      <point x="618" y="19" type="curve" smooth="yes"/>
      <point x="571" y="19"/>
      <point x="538" y="57"/>
      <point x="538" y="96" type="curve" smooth="yes"/>
      <point x="538" y="131"/>
      <point x="553" y="166"/>
    </contour>
    <contour>
      <point x="641" y="224" type="curve" name="hr06"/>
      <point x="595" y="239"/>
      <point x="551" y="263"/>
      <point x="551" y="302" type="curve" smooth="yes"/>
      <point x="551" y="338"/>
      <point x="577" y="367"/>
      <point x="618" y="367" type="curve" smooth="yes"/>
      <point x="658" y="367"/>
      <point x="686" y="333"/>
      <point x="686" y="299" type="curve" smooth="yes"/>
      <point x="686" y="261"/>
      <point x="667" y="238"/>
    </contour>
    <contour>
      <point x="154" y="-14" type="curve"/>
      <point x="155" y="-29"/>
      <point x="164" y="-40"/>
      <point x="181" y="-40" type="curve"/>
      <point x="326" y="184"/>
      <point x="472" y="407"/>
      <point x="621" y="631" type="curve"/>
      <point x="614" y="647"/>
      <point x="602" y="654"/>
      <point x="590" y="654" type="curve"/>
      <point x="447" y="431"/>
      <point x="301" y="209"/>
    </contour>
    <contour>
      <point x="260" y="582" type="line" smooth="yes"/>
      <point x="293" y="582"/>
      <point x="273" y="556"/>
      <point x="261" y="534" type="curve" smooth="yes"/>
      <point x="93" y="231" type="line"/>
      <point x="93" y="220"/>
      <point x="110" y="214"/>
      <point x="121" y="217" type="curve"/>
      <point x="293" y="528" type="line" smooth="yes"/>
      <point x="317" y="572"/>
      <point x="336" y="602"/>
      <point x="357" y="628" type="curve"/>
      <point x="357" y="631"/>
      <point x="356" y="634"/>
      <point x="353" y="635" type="curve"/>
      <point x="343" y="633"/>
      <point x="297" y="633"/>
      <point x="260" y="633" type="curve" smooth="yes"/>
      <point x="145" y="633" type="line" smooth="yes"/>
      <point x="108" y="633"/>
      <point x="94" y="634"/>
      <point x="73" y="635" type="curve"/>
      <point x="68" y="612"/>
      <point x="59" y="586"/>
      <point x="48" y="557" type="curve"/>
      <point x="50" y="550"/>
      <point x="59" y="546"/>
      <point x="67" y="550" type="curve"/>
      <point x="84" y="581"/>
      <point x="96" y="582"/>
      <point x="137" y="582" type="curve" smooth="yes"/>
    </contour>
  </outline>
</glyph>
<glyph name="uni2219" format="1">
  <advance width="250"/>
  <unicode hex="2219"/>
  <outline>
    <contour>
      <point x="125" y="148" type="curve" smooth="yes" name="hr00"/>
      <point x="159" y="148"/>
      <point x="181" y="171"/>
      <point x="181" y="203" type="curve" smooth="yes"/>
      <point x="181" y="235"/>
      <point x="159" y="262"/>
      <point x="125" y="262" type="curve" smooth="yes"/>
      <point x="93" y="262"/>
      <point x="69" y="237"/>
      <point x="69" y="203" type="curve" smooth="yes"/>
      <point x="69" y="169"/>
      <point x="96" y="148"/>
    </contour>
  </outline>
</glyph>
<glyph name="integral" format="1">
  <advance width="274"/>
  <unicode hex="222B"/>
  <outline>
    <contour>
      <point x="190" y="388" type="line" smooth="yes" name="hr00"/>
      <point x="191" y="510"/>
      <point x="169" y="652"/>
      <point x="171" y="685" type="curve" smooth="yes"/>
      <point x="172" y="701"/>
      <point x="188" y="716"/>
      <point x="211" y="694" type="curve" smooth="yes"/>
      <point x="219" y="687"/>
      <point x="229" y="682"/>
      <point x="240" y="682" type="curve" smooth="yes"/>
      <point x="267" y="682"/>
      <point x="292" y="701"/>
      <point x="292" y="722" type="curve" smooth="yes"/>
      <point x="292" y="739"/>
      <point x="273" y="773"/>
      <point x="225" y="773" type="curve" smooth="yes"/>
      <point x="189" y="773"/>
      <point x="160" y="747"/>
      <point x="146" y="707" type="curve" smooth="yes"/>
      <point x="125" y="643"/>
      <point x="120" y="571"/>
      <point x="120" y="428" type="curve" smooth="yes"/>
      <point x="120" y="298" type="line" smooth="yes"/>
      <point x="120" y="149"/>
      <point x="124" y="82"/>
      <point x="126" y="15" type="curve" smooth="yes"/>
      <point x="128" y="-39"/>
      <point x="116" y="-105"/>
      <point x="86" y="-76" type="curve" smooth="yes"/>
      <point x="68" y="-59"/>
      <point x="52" y="-48"/>
      <point x="29" y="-58" type="curve" smooth="yes"/>
      <point x="5" y="-69"/>
      <point x="-3" y="-88"/>
      <point x="5" y="-108" type="curve" smooth="yes"/>
      <point x="12" y="-125"/>
      <point x="29" y="-148"/>
      <point x="63" y="-148" type="curve" smooth="yes"/>
      <point x="153" y="-148"/>
      <point x="188" y="-31"/>
      <point x="189" y="194" type="curve" smooth="yes"/>
    </contour>
  </outline>
</glyph>
<glyph name="lessequal" format="1">
  <advance width="500"/>
  <unicode hex="2264"/>
  <outline>
    <contour>
      <point x="443" y="49" type="line" name="hr00"/>
      <point x="58" y="49" type="line"/>
      <point x="58" y="0" type="line"/>
      <point x="443" y="0" type="line"/>
    </contour>
    <contour>
      <point x="56" y="328" type="line"/>
      <point x="56" y="283" type="line"/>
      <point x="445" y="99" type="line"/>
      <point x="445" y="156" type="line"/>
      <point x="128" y="305" type="line"/>
      <point x="128" y="307" type="line"/>
      <point x="445" y="455" type="line"/>
      <point x="445" y="513" type="line"/>
    </contour>
  </outline>
</glyph>
<glyph name="lozenge" format="1">
  <advance width="518"/>
  <unicode hex="25CA"/>
  <outline>
    <contour>
      <point x="289" y="-40" type="line" name="hr00"/>
      <point x="483" y="342" type="line"/>
      <point x="289" y="715" type="line"/>
      <point x="229" y="715" type="line"/>
      <point x="35" y="342" type="line"/>
      <point x="229" y="-40" type="line"/>
    </contour>
    <contour>
      <point x="423" y="342" type="line"/>
      <point x="259" y="14" type="line"/>
      <point x="95" y="342" type="line"/>
      <point x="259" y="661" type="line"/>
    </contour>
  </outline>
</glyph>
<glyph name="Eth.titling" format="1">
  <advance width="794"/>
  <unicode hex="E01C"/>
  <outline>
    <contour>
      <point x="134" y="159" type="line" smooth="yes" name="hr01"/>
      <point x="134" y="101"/>
      <point x="131" y="54"/>
      <point x="121" y="39" type="curve" smooth="yes" name="hr02"/>
      <point x="112" y="26"/>
      <point x="89" y="21"/>
      <point x="74" y="18" type="curve" smooth="yes"/>
      <point x="49" y="13" type="line"/>
      <point x="45" y="8"/>
      <point x="46" y="-2"/>
      <point x="51" y="-3" type="curve" name="hr03"/>
      <point x="83" y="-1"/>
      <point x="123" y="0"/>
      <point x="177" y="0" type="curve" smooth="yes" name="hr04"/>
      <point x="195" y="0"/>
      <point x="218" y="-2"/>
      <point x="245" y="-4" type="curve" smooth="yes"/>
      <point x="272" y="-6"/>
      <point x="301" y="-8"/>
      <point x="330" y="-8" type="curve" smooth="yes" name="hr05"/>
      <point x="408" y="-8"/>
      <point x="497" y="5"/>
      <point x="562" y="39" type="curve" smooth="yes"/>
      <point x="680" y="101"/>
      <point x="738" y="213"/>
      <point x="738" y="340" type="curve" smooth="yes"/>
      <point x="738" y="462"/>
      <point x="670" y="584"/>
      <point x="537" y="631" type="curve" smooth="yes"/>
      <point x="468" y="655"/>
      <point x="400" y="663"/>
      <point x="310" y="663" type="curve" smooth="yes"/>
      <point x="239" y="663"/>
      <point x="149" y="660"/>
      <point x="66" y="655" type="curve"/>
      <point x="61" y="652"/>
      <point x="61" y="641"/>
      <point x="65" y="639" type="curve"/>
      <point x="78" y="636" type="line" smooth="yes"/>
      <point x="92" y="633"/>
      <point x="107" y="629"/>
      <point x="117" y="616" type="curve" smooth="yes"/>
      <point x="127" y="602"/>
      <point x="134" y="559"/>
      <point x="134" y="488" type="curve" smooth="yes"/>
      <point x="134" y="359" type="line"/>
      <point x="47" y="359" type="line"/>
      <point x="41" y="353"/>
      <point x="40" y="338"/>
      <point x="47" y="330" type="curve"/>
      <point x="134" y="330" type="line"/>
    </contour>
    <contour>
      <point x="210" y="538" type="line" smooth="yes"/>
      <point x="210" y="583"/>
      <point x="213" y="617"/>
      <point x="221" y="625" type="curve" smooth="yes"/>
      <point x="230" y="633"/>
      <point x="264" y="640"/>
      <point x="324" y="640" type="curve" smooth="yes"/>
      <point x="590" y="641"/>
      <point x="648" y="449"/>
      <point x="648" y="336" type="curve" smooth="yes"/>
      <point x="648" y="144"/>
      <point x="556" y="15"/>
      <point x="349" y="15" type="curve" smooth="yes"/>
      <point x="291" y="15"/>
      <point x="251" y="27"/>
      <point x="229" y="57" type="curve" smooth="yes"/>
      <point x="212" y="82"/>
      <point x="210" y="133"/>
      <point x="210" y="179" type="curve" smooth="yes"/>
      <point x="210" y="330" type="line"/>
      <point x="384" y="330" type="line"/>
      <point x="388" y="338"/>
      <point x="388" y="353"/>
      <point x="384" y="359" type="curve"/>
      <point x="210" y="359" type="line"/>
    </contour>
  </outline>
</glyph>
<glyph name="Iacute.titling" format="1">
  <advance width="344"/>
  <unicode hex="E026"/>
  <outline>
    <contour>
      <point x="210" y="500" type="line" smooth="yes" name="hr00"/>
      <point x="210" y="558"/>
      <point x="213" y="608"/>
      <point x="224" y="623" type="curve" smooth="yes"/>
      <point x="234" y="636"/>
      <point x="255" y="640"/>
      <point x="271" y="643" type="curve" smooth="yes"/>
      <point x="296" y="647" type="line"/>
      <point x="300" y="653"/>
      <point x="300" y="660"/>
      <point x="295" y="663" type="curve"/>
      <point x="250" y="661"/>
      <point x="215" y="660"/>
      <point x="172" y="660" type="curve" smooth="yes"/>
      <point x="131" y="660"/>
      <point x="99" y="661"/>
      <point x="50" y="663" type="curve"/>
      <point x="45" y="659"/>
      <point x="45" y="653"/>
      <point x="49" y="647" type="curve"/>
      <point x="73" y="643" type="line" smooth="yes"/>
      <point x="89" y="640"/>
      <point x="110" y="636"/>
      <point x="120" y="623" type="curve" smooth="yes"/>
      <point x="131" y="609"/>
      <point x="134" y="558"/>
      <point x="134" y="500" type="curve" smooth="yes"/>
      <point x="134" y="160" type="line" smooth="yes"/>
      <point x="134" y="102"/>
      <point x="131" y="52"/>
      <point x="120" y="37" type="curve" smooth="yes"/>
      <point x="110" y="24"/>
      <point x="89" y="20"/>
      <point x="73" y="17" type="curve" smooth="yes"/>
      <point x="48" y="13" type="line"/>
      <point x="45" y="8"/>
      <point x="45" y="0"/>
      <point x="50" y="-3" type="curve"/>
      <point x="102" y="-1"/>
      <point x="132" y="0"/>
      <point x="172" y="0" type="curve" smooth="yes"/>
      <point x="212" y="0"/>
      <point x="242" y="-1"/>
      <point x="294" y="-3" type="curve"/>
      <point x="299" y="0"/>
      <point x="299" y="8"/>
      <point x="296" y="13" type="curve"/>
      <point x="271" y="17" type="line" smooth="yes"/>
      <point x="255" y="20"/>
      <point x="234" y="24"/>
      <point x="224" y="37" type="curve" smooth="yes"/>
      <point x="213" y="52"/>
      <point x="210" y="102"/>
      <point x="210" y="160" type="curve" smooth="yes"/>
    </contour>
    <contour>
      <point x="270" y="765" type="line" smooth="yes"/>
      <point x="280" y="770"/>
      <point x="287" y="774"/>
      <point x="289" y="779" type="curve"/>
      <point x="292" y="783"/>
      <point x="290" y="793"/>
      <point x="284" y="806" type="curve" smooth="yes"/>
      <point x="278" y="818"/>
      <point x="269" y="823"/>
      <point x="263" y="823" type="curve" smooth="yes"/>
      <point x="258" y="823"/>
      <point x="253" y="822"/>
      <point x="243" y="812" type="curve"/>
      <point x="133" y="721" type="line"/>
      <point x="130" y="714"/>
      <point x="134" y="708"/>
      <point x="139" y="706" type="curve"/>
    </contour>
  </outline>
</glyph>
<glyph name="Imacron.titling" format="1">
  <advance width="344"/>
  <unicode hex="E02B"/>
  <outline>
    <contour>
      <point x="210" y="500" type="line" smooth="yes" name="hr01"/>
      <point x="210" y="558"/>
      <point x="213" y="608"/>
      <point x="224" y="623" type="curve" smooth="yes"/>
      <point x="234" y="636"/>
      <point x="255" y="640"/>
      <point x="271" y="643" type="curve" smooth="yes"/>
      <point x="296" y="647" type="line"/>
      <point x="300" y="653"/>
      <point x="300" y="660"/>
      <point x="295" y="663" type="curve"/>
      <point x="250" y="661"/>
      <point x="215" y="660"/>
      <point x="172" y="660" type="curve" smooth="yes"/>
      <point x="131" y="660"/>
      <point x="99" y="661"/>
      <point x="50" y="663" type="curve"/>
      <point x="45" y="659"/>
      <point x="45" y="653"/>
      <point x="49" y="647" type="curve"/>
      <point x="73" y="643" type="line" smooth="yes"/>
      <point x="89" y="640"/>
      <point x="110" y="636"/>
      <point x="120" y="623" type="curve" smooth="yes"/>
      <point x="131" y="609"/>
      <point x="134" y="558"/>
      <point x="134" y="500" type="curve" smooth="yes"/>
      <point x="134" y="160" type="line" smooth="yes"/>
      <point x="134" y="102"/>
      <point x="131" y="52"/>
      <point x="120" y="37" type="curve" smooth="yes"/>
      <point x="110" y="24"/>
      <point x="89" y="20"/>
      <point x="73" y="17" type="curve" smooth="yes"/>
      <point x="48" y="13" type="line"/>
      <point x="45" y="8"/>
      <point x="45" y="0"/>
      <point x="50" y="-3" type="curve"/>
      <point x="102" y="-1"/>
      <point x="132" y="0"/>
      <point x="172" y="0" type="curve" smooth="yes"/>
      <point x="212" y="0"/>
      <point x="242" y="-1"/>
      <point x="294" y="-3" type="curve"/>
      <point x="299" y="0"/>
      <point x="299" y="8"/>
      <point x="296" y="13" type="curve"/>
      <point x="271" y="17" type="line" smooth="yes"/>
      <point x="255" y="20"/>
      <point x="234" y="24"/>
      <point x="224" y="37" type="curve" smooth="yes"/>
      <point x="213" y="52"/>
      <point x="210" y="102"/>
      <point x="210" y="160" type="curve" smooth="yes"/>
    </contour>
    <contour>
      <point x="257" y="717" type="line" name="hr02"/>
      <point x="266" y="728"/>
      <point x="266" y="750"/>
      <point x="257" y="761" type="curve"/>
      <point x="86" y="761" type="line"/>
      <point x="77" y="750"/>
      <point x="77" y="728"/>
      <point x="86" y="717" type="curve"/>
    </contour>
  </outline>
</glyph>
<glyph name="Iogonek.titling" format="1">
  <advance width="344"/>
  <unicode hex="E02C"/>
  <outline>
    <contour>
      <point x="134" y="160" type="line" smooth="yes" name="hr01"/>
      <point x="134" y="102"/>
      <point x="131" y="52"/>
      <point x="120" y="37" type="curve" smooth="yes"/>
      <point x="110" y="24"/>
      <point x="89" y="20"/>
      <point x="73" y="17" type="curve" smooth="yes" name="hr02"/>
      <point x="48" y="13" type="line"/>
      <point x="45" y="8"/>
      <point x="45" y="0"/>
      <point x="50" y="-3" type="curve" name="hr03"/>
      <point x="93" y="-1"/>
      <point x="148" y="0"/>
      <point x="179" y="0" type="curve" name="hr04"/>
      <point x="131" y="-41"/>
      <point x="102" y="-80"/>
      <point x="102" y="-119" type="curve" smooth="yes"/>
      <point x="102" y="-173"/>
      <point x="142" y="-198"/>
      <point x="181" y="-198" type="curve" smooth="yes"/>
      <point x="214" y="-198"/>
      <point x="250" y="-183"/>
      <point x="273" y="-154" type="curve"/>
      <point x="273" y="-148"/>
      <point x="271" y="-142"/>
      <point x="267" y="-141" type="curve"/>
      <point x="253" y="-147"/>
      <point x="237" y="-151"/>
      <point x="218" y="-151" type="curve" smooth="yes"/>
      <point x="184" y="-151"/>
      <point x="163" y="-128"/>
      <point x="163" y="-94" type="curve" smooth="yes"/>
      <point x="163" y="-64"/>
      <point x="175" y="-29"/>
      <point x="203" y="0" type="curve"/>
      <point x="205" y="0" type="line" smooth="yes"/>
      <point x="223" y="0"/>
      <point x="242" y="-1"/>
      <point x="294" y="-3" type="curve" name="hr05"/>
      <point x="299" y="0"/>
      <point x="299" y="8"/>
      <point x="296" y="13" type="curve"/>
      <point x="271" y="17" type="line" smooth="yes"/>
      <point x="255" y="20"/>
      <point x="234" y="24"/>
      <point x="224" y="37" type="curve" smooth="yes"/>
      <point x="213" y="52"/>
      <point x="210" y="102"/>
      <point x="210" y="160" type="curve" smooth="yes"/>
      <point x="210" y="500" type="line" smooth="yes"/>
      <point x="210" y="558"/>
      <point x="213" y="608"/>
      <point x="224" y="623" type="curve" smooth="yes"/>
      <point x="234" y="636"/>
      <point x="255" y="640"/>
      <point x="271" y="643" type="curve" smooth="yes"/>
      <point x="296" y="647" type="line"/>
      <point x="300" y="653"/>
      <point x="300" y="660"/>
      <point x="295" y="663" type="curve"/>
      <point x="250" y="661"/>
      <point x="215" y="660"/>
      <point x="172" y="660" type="curve" smooth="yes"/>
      <point x="131" y="660"/>
      <point x="99" y="661"/>
      <point x="50" y="663" type="curve"/>
      <point x="45" y="659"/>
      <point x="45" y="653"/>
      <point x="49" y="647" type="curve"/>
      <point x="73" y="643" type="line" smooth="yes"/>
      <point x="89" y="640"/>
      <point x="110" y="636"/>
      <point x="120" y="623" type="curve" smooth="yes"/>
      <point x="131" y="609"/>
      <point x="134" y="558"/>
      <point x="134" y="500" type="curve" smooth="yes"/>
    </contour>
  </outline>
</glyph>
<glyph name="M.titling" format="1">
  <advance width="912"/>
  <unicode hex="E035"/>
  <outline>
    <contour>
      <point x="38" y="13" type="line" name="hr00"/>
      <point x="33" y="9"/>
      <point x="34" y="-1"/>
      <point x="39" y="-3" type="curve"/>
      <point x="74" y="-1"/>
      <point x="105" y="0"/>
      <point x="138" y="0" type="curve" smooth="yes"/>
      <point x="176" y="0"/>
      <point x="215" y="-1"/>
      <point x="249" y="-3" type="curve"/>
      <point x="253" y="0"/>
      <point x="253" y="8"/>
      <point x="249" y="13" type="curve"/>
      <point x="211" y="19" type="line" smooth="yes"/>
      <point x="194" y="22"/>
      <point x="178" y="30"/>
      <point x="172" y="43" type="curve" smooth="yes"/>
      <point x="167" y="54"/>
      <point x="165" y="76"/>
      <point x="165" y="133" type="curve" smooth="yes"/>
      <point x="165" y="203"/>
      <point x="168" y="292"/>
      <point x="170" y="353" type="curve" smooth="yes"/>
      <point x="172" y="395"/>
      <point x="176" y="525"/>
      <point x="179" y="537" type="curve"/>
      <point x="187" y="529"/>
      <point x="201" y="495"/>
      <point x="244" y="400" type="curve" smooth="yes"/>
      <point x="337" y="195" type="line" smooth="yes"/>
      <point x="360" y="145"/>
      <point x="407" y="47"/>
      <point x="427" y="-8" type="curve"/>
      <point x="431" y="-11"/>
      <point x="437" y="-11"/>
      <point x="442" y="-7" type="curve"/>
      <point x="458" y="40"/>
      <point x="505" y="135"/>
      <point x="548" y="222" type="curve" smooth="yes"/>
      <point x="634" y="397" type="line" smooth="yes"/>
      <point x="657" y="444"/>
      <point x="691" y="507"/>
      <point x="703" y="532" type="curve"/>
      <point x="707" y="524"/>
      <point x="707" y="491"/>
      <point x="707" y="473" type="curve" smooth="yes"/>
      <point x="709" y="105" type="line" smooth="yes"/>
      <point x="709" y="84"/>
      <point x="709" y="61"/>
      <point x="705" y="43" type="curve" smooth="yes"/>
      <point x="702" y="29"/>
      <point x="685" y="22"/>
      <point x="662" y="18" type="curve" smooth="yes"/>
      <point x="630" y="13" type="line"/>
      <point x="626" y="7"/>
      <point x="627" y="0"/>
      <point x="632" y="-3" type="curve"/>
      <point x="673" y="-1"/>
      <point x="710" y="0"/>
      <point x="750" y="0" type="curve" smooth="yes"/>
      <point x="783" y="0"/>
      <point x="825" y="-1"/>
      <point x="865" y="-3" type="curve"/>
      <point x="870" y="1"/>
      <point x="870" y="7"/>
      <point x="867" y="13" type="curve"/>
      <point x="833" y="19" type="line" smooth="yes"/>
      <point x="821" y="21"/>
      <point x="806" y="26"/>
      <point x="799" y="34" type="curve" smooth="yes"/>
      <point x="790" y="45"/>
      <point x="788" y="69"/>
      <point x="786" y="106" type="curve" smooth="yes"/>
      <point x="782" y="198"/>
      <point x="779" y="333"/>
      <point x="778" y="387" type="curve" smooth="yes"/>
      <point x="777" y="431"/>
      <point x="779" y="512"/>
      <point x="780" y="541" type="curve" smooth="yes"/>
      <point x="781" y="584"/>
      <point x="784" y="610"/>
      <point x="798" y="622" type="curve" smooth="yes"/>
      <point x="807" y="630"/>
      <point x="825" y="638"/>
      <point x="841" y="641" type="curve" smooth="yes"/>
      <point x="871" y="647" type="line"/>
      <point x="875" y="651"/>
      <point x="874" y="660"/>
      <point x="870" y="663" type="curve"/>
      <point x="844" y="661"/>
      <point x="800" y="660"/>
      <point x="781" y="660" type="curve" smooth="yes"/>
      <point x="762" y="660"/>
      <point x="745" y="660"/>
      <point x="720" y="663" type="curve"/>
      <point x="698" y="577"/>
      <point x="640" y="472"/>
      <point x="617" y="426" type="curve" smooth="yes"/>
      <point x="545" y="281" type="line" smooth="yes"/>
      <point x="510" y="211"/>
      <point x="479" y="148"/>
      <point x="459" y="115" type="curve"/>
      <point x="443" y="148"/>
      <point x="423" y="186"/>
      <point x="385" y="266" type="curve" smooth="yes"/>
      <point x="299" y="449" type="line" smooth="yes"/>
      <point x="255" y="543"/>
      <point x="224" y="605"/>
      <point x="219" y="663" type="curve"/>
      <point x="197" y="660"/>
      <point x="162" y="660"/>
      <point x="139" y="660" type="curve" smooth="yes"/>
      <point x="103" y="660"/>
      <point x="75" y="662"/>
      <point x="61" y="663" type="curve"/>
      <point x="56" y="660"/>
      <point x="55" y="652"/>
      <point x="59" y="647" type="curve"/>
      <point x="79" y="642" type="line" smooth="yes"/>
      <point x="102" y="636"/>
      <point x="122" y="631"/>
      <point x="132" y="620" type="curve" smooth="yes"/>
      <point x="142" y="609"/>
      <point x="148" y="587"/>
      <point x="148" y="554" type="curve" smooth="yes"/>
      <point x="147" y="495"/>
      <point x="143" y="410"/>
      <point x="140" y="342" type="curve" smooth="yes"/>
      <point x="135" y="238"/>
      <point x="130" y="157"/>
      <point x="125" y="107" type="curve" smooth="yes"/>
      <point x="122" y="79"/>
      <point x="117" y="48"/>
      <point x="106" y="36" type="curve" smooth="yes"/>
      <point x="97" y="25"/>
      <point x="77" y="20"/>
      <point x="60" y="17" type="curve" smooth="yes"/>
    </contour>
  </outline>
</glyph>
<glyph name="Oacute.titling" format="1">
  <advance width="797"/>
  <unicode hex="E03D"/>
  <outline>
    <contour>
      <point x="403" y="676" type="curve" smooth="yes" name="hr00"/>
      <point x="200" y="676"/>
      <point x="50" y="523"/>
      <point x="50" y="323" type="curve" smooth="yes"/>
      <point x="50" y="143"/>
      <point x="181" y="-16"/>
      <point x="401" y="-16" type="curve" smooth="yes"/>
      <point x="596" y="-16"/>
      <point x="747" y="129"/>
      <point x="747" y="334" type="curve" smooth="yes"/>
      <point x="747" y="512"/>
      <point x="629" y="676"/>
    </contour>
    <contour>
      <point x="388" y="653" type="curve" smooth="yes"/>
      <point x="584" y="653"/>
      <point x="657" y="464"/>
      <point x="657" y="307" type="curve" smooth="yes"/>
      <point x="657" y="92"/>
      <point x="540" y="7"/>
      <point x="411" y="7" type="curve" smooth="yes"/>
      <point x="213" y="7"/>
      <point x="140" y="205"/>
      <point x="140" y="358" type="curve" smooth="yes"/>
      <point x="140" y="583"/>
      <point x="277" y="653"/>
    </contour>
    <contour>
      <point x="497" y="765" type="line" smooth="yes"/>
      <point x="507" y="770"/>
      <point x="514" y="774"/>
      <point x="516" y="779" type="curve"/>
      <point x="519" y="783"/>
      <point x="517" y="793"/>
      <point x="511" y="806" type="curve" smooth="yes"/>
      <point x="505" y="818"/>
      <point x="496" y="823"/>
      <point x="490" y="823" type="curve" smooth="yes"/>
      <point x="485" y="823"/>
      <point x="480" y="822"/>
      <point x="470" y="812" type="curve"/>
      <point x="360" y="721" type="line"/>
      <point x="357" y="714"/>
      <point x="361" y="708"/>
      <point x="366" y="706" type="curve"/>
    </contour>
  </outline>
</glyph>
<glyph name="Odieresis.titling" format="1">
  <advance width="797"/>
  <unicode hex="E03F"/>
  <outline>
    <contour>
      <point x="403" y="676" type="curve" smooth="yes" name="hr01"/>
      <point x="200" y="676"/>
      <point x="50" y="523"/>
      <point x="50" y="323" type="curve" smooth="yes"/>
      <point x="50" y="143"/>
      <point x="181" y="-16"/>
      <point x="401" y="-16" type="curve" smooth="yes"/>
      <point x="596" y="-16"/>
      <point x="747" y="129"/>
      <point x="747" y="334" type="curve" smooth="yes"/>
      <point x="747" y="512"/>
      <point x="629" y="676"/>
    </contour>
    <contour>
      <point x="388" y="653" type="curve" smooth="yes"/>
      <point x="584" y="653"/>
      <point x="657" y="464"/>
      <point x="657" y="307" type="curve" smooth="yes"/>
      <point x="657" y="92"/>
      <point x="540" y="7"/>
      <point x="411" y="7" type="curve" smooth="yes"/>
      <point x="213" y="7"/>
      <point x="140" y="205"/>
      <point x="140" y="358" type="curve" smooth="yes"/>
      <point x="140" y="583"/>
      <point x="277" y="653"/>
    </contour>
    <contour>
      <point x="322" y="705" type="curve" smooth="yes" name="hr02"/>
      <point x="345" y="705"/>
      <point x="362" y="723"/>
      <point x="362" y="746" type="curve" smooth="yes"/>
      <point x="362" y="766"/>
      <point x="345" y="787"/>
      <point x="322" y="787" type="curve" smooth="yes"/>
      <point x="299" y="787"/>
      <point x="283" y="767"/>
      <point x="283" y="745" type="curve" smooth="yes"/>
      <point x="284" y="719"/>
      <point x="299" y="705"/>
    </contour>
    <contour>
      <point x="477" y="705" type="curve" smooth="yes"/>
      <point x="500" y="705"/>
      <point x="515" y="723"/>
      <point x="515" y="746" type="curve" smooth="yes"/>
      <point x="515" y="766"/>
      <point x="500" y="787"/>
      <point x="477" y="787" type="curve" smooth="yes"/>
      <point x="453" y="787"/>
      <point x="436" y="767"/>
      <point x="436" y="745" type="curve" smooth="yes"/>
      <point x="437" y="719"/>
      <point x="454" y="705"/>
    </contour>
  </outline>
</glyph>
<glyph name="Q.titling" format="1">
  <advance width="797"/>
  <unicode hex="E048"/>
  <outline>
    <contour>
      <point x="403" y="676" type="curve" smooth="yes" name="hr00"/>
      <point x="200" y="676"/>
      <point x="50" y="523"/>
      <point x="50" y="323" type="curve" smooth="yes"/>
      <point x="50" y="124"/>
      <point x="205" y="-8"/>
      <point x="369" y="-14" type="curve" smooth="yes"/>
      <point x="389" y="-15"/>
      <point x="404" y="-24"/>
      <point x="424" y="-43" type="curve" smooth="yes"/>
      <point x="466" y="-83"/>
      <point x="533" y="-142"/>
      <point x="608" y="-178" type="curve" smooth="yes"/>
      <point x="666" y="-206"/>
      <point x="728" y="-219"/>
      <point x="774" y="-219" type="curve" smooth="yes"/>
      <point x="811" y="-219"/>
      <point x="863" y="-211"/>
      <point x="893" y="-190" type="curve"/>
      <point x="894" y="-185"/>
      <point x="892" y="-180"/>
      <point x="888" y="-178" type="curve"/>
      <point x="872" y="-186"/>
      <point x="848" y="-190"/>
      <point x="825" y="-190" type="curve" smooth="yes"/>
      <point x="801" y="-190"/>
      <point x="773" y="-187"/>
      <point x="740" y="-175" type="curve" smooth="yes"/>
      <point x="655" y="-145"/>
      <point x="560" y="-60"/>
      <point x="509" y="-17" type="curve" smooth="yes"/>
      <point x="499" y="-9"/>
      <point x="498" y="-4"/>
      <point x="502" y="-1" type="curve"/>
      <point x="644" y="36"/>
      <point x="747" y="168"/>
      <point x="747" y="334" type="curve" smooth="yes"/>
      <point x="747" y="512"/>
      <point x="629" y="676"/>
    </contour>
    <contour>
      <point x="388" y="653" type="curve" smooth="yes"/>
      <point x="584" y="653"/>
      <point x="657" y="464"/>
      <point x="657" y="307" type="curve" smooth="yes"/>
      <point x="657" y="92"/>
      <point x="540" y="7"/>
      <point x="411" y="7" type="curve" smooth="yes"/>
      <point x="213" y="7"/>
      <point x="140" y="205"/>
      <point x="140" y="358" type="curve" smooth="yes"/>
      <point x="140" y="583"/>
      <point x="277" y="653"/>
    </contour>
  </outline>
</glyph>
<glyph name="Scaron.titling" format="1">
  <advance width="497"/>
  <unicode hex="E04F"/>
  <outline>
    <contour>
      <point x="285" y="676" type="curve" smooth="yes" name="hr00"/>
      <point x="161" y="676"/>
      <point x="88" y="599"/>
      <point x="88" y="507" type="curve" smooth="yes"/>
      <point x="88" y="419"/>
      <point x="141" y="366"/>
      <point x="199" y="330" type="curve" smooth="yes"/>
      <point x="287" y="275" type="line" smooth="yes"/>
      <point x="360" y="230"/>
      <point x="371" y="177"/>
      <point x="371" y="132" type="curve" smooth="yes"/>
      <point x="371" y="65"/>
      <point x="329" y="7"/>
      <point x="245" y="7" type="curve" smooth="yes"/>
      <point x="135" y="7"/>
      <point x="86" y="105"/>
      <point x="68" y="157" type="curve"/>
      <point x="64" y="161"/>
      <point x="55" y="162"/>
      <point x="51" y="156" type="curve"/>
      <point x="51" y="99"/>
      <point x="63" y="41"/>
      <point x="80" y="21" type="curve"/>
      <point x="98" y="10"/>
      <point x="149" y="-16"/>
      <point x="227" y="-16" type="curve" smooth="yes"/>
      <point x="356" y="-16"/>
      <point x="438" y="60"/>
      <point x="438" y="168" type="curve" smooth="yes"/>
      <point x="438" y="264"/>
      <point x="374" y="322"/>
      <point x="329" y="350" type="curve" smooth="yes"/>
      <point x="235" y="408" type="line" smooth="yes"/>
      <point x="200" y="430"/>
      <point x="149" y="473"/>
      <point x="149" y="534" type="curve" smooth="yes"/>
      <point x="149" y="576"/>
      <point x="170" y="653"/>
      <point x="269" y="653" type="curve" smooth="yes"/>
      <point x="367" y="653"/>
      <point x="393" y="586"/>
      <point x="410" y="540" type="curve"/>
      <point x="415" y="535"/>
      <point x="425" y="537"/>
      <point x="428" y="542" type="curve"/>
      <point x="428" y="577"/>
      <point x="419" y="635"/>
      <point x="410" y="659" type="curve"/>
      <point x="398" y="660"/>
      <point x="387" y="663"/>
      <point x="376" y="665" type="curve" smooth="yes"/>
      <point x="351" y="671"/>
      <point x="314" y="676"/>
    </contour>
    <contour>
      <point x="250" y="716" type="line" smooth="yes"/>
      <point x="261" y="705"/>
      <point x="273" y="706"/>
      <point x="284" y="716" type="curve" smooth="yes"/>
      <point x="381" y="810" type="line"/>
      <point x="381" y="816"/>
      <point x="377" y="820"/>
      <point x="372" y="821" type="curve"/>
      <point x="280" y="769" type="line" smooth="yes"/>
      <point x="268" y="762"/>
      <point x="266" y="763"/>
      <point x="255" y="769" type="curve" smooth="yes"/>
      <point x="164" y="821" type="line"/>
      <point x="158" y="821"/>
      <point x="153" y="816"/>
      <point x="153" y="810" type="curve"/>
    </contour>
  </outline>
</glyph>
<glyph name="Tcaron.titling" format="1">
  <advance width="660"/>
  <unicode hex="E056"/>
  <outline>
    <contour>
      <point x="154" y="660" type="line" smooth="yes" name="hr00"/>
      <point x="128" y="660"/>
      <point x="93" y="663"/>
      <point x="82" y="667" type="curve" smooth="yes"/>
      <point x="71" y="671"/>
      <point x="67" y="680"/>
      <point x="65" y="685" type="curve"/>
      <point x="61" y="688"/>
      <point x="56" y="688"/>
      <point x="51" y="685" type="curve"/>
      <point x="45" y="648"/>
      <point x="29" y="589"/>
      <point x="13" y="548" type="curve"/>
      <point x="15" y="541"/>
      <point x="25" y="539"/>
      <point x="31" y="541" type="curve"/>
      <point x="44" y="566"/>
      <point x="55" y="589"/>
      <point x="78" y="612" type="curve" smooth="yes"/>
      <point x="99" y="634"/>
      <point x="142" y="637"/>
      <point x="204" y="637" type="curve" smooth="yes"/>
      <point x="262" y="637" type="line" smooth="yes"/>
      <point x="292" y="637"/>
      <point x="293" y="636"/>
      <point x="293" y="598" type="curve" smooth="yes"/>
      <point x="293" y="158" type="line" smooth="yes"/>
      <point x="293" y="100"/>
      <point x="290" y="50"/>
      <point x="279" y="36" type="curve" smooth="yes"/>
      <point x="269" y="24"/>
      <point x="251" y="20"/>
      <point x="235" y="18" type="curve" smooth="yes"/>
      <point x="191" y="13" type="line"/>
      <point x="187" y="8"/>
      <point x="187" y="1"/>
      <point x="192" y="-3" type="curve"/>
      <point x="233" y="-1"/>
      <point x="274" y="0"/>
      <point x="332" y="0" type="curve" smooth="yes"/>
      <point x="383" y="0"/>
      <point x="420" y="-1"/>
      <point x="463" y="-3" type="curve"/>
      <point x="468" y="1"/>
      <point x="468" y="8"/>
      <point x="464" y="13" type="curve"/>
      <point x="430" y="17" type="line" smooth="yes"/>
      <point x="414" y="19"/>
      <point x="393" y="24"/>
      <point x="383" y="36" type="curve" smooth="yes"/>
      <point x="372" y="51"/>
      <point x="369" y="100"/>
      <point x="369" y="158" type="curve" smooth="yes"/>
      <point x="369" y="598" type="line" smooth="yes"/>
      <point x="369" y="636"/>
      <point x="370" y="637"/>
      <point x="400" y="637" type="curve" smooth="yes"/>
      <point x="469" y="637" type="line" smooth="yes"/>
      <point x="524" y="637"/>
      <point x="562" y="632"/>
      <point x="588" y="610" type="curve" smooth="yes"/>
      <point x="600" y="600"/>
      <point x="608" y="576"/>
      <point x="615" y="537" type="curve"/>
      <point x="620" y="533"/>
      <point x="630" y="534"/>
      <point x="633" y="539" type="curve"/>
      <point x="630" y="563"/>
      <point x="637" y="644"/>
      <point x="648" y="683" type="curve"/>
      <point x="646" y="687"/>
      <point x="638" y="688"/>
      <point x="634" y="686" type="curve"/>
      <point x="628" y="676"/>
      <point x="620" y="668"/>
      <point x="612" y="666" type="curve" smooth="yes"/>
      <point x="595" y="661"/>
      <point x="574" y="660"/>
      <point x="542" y="660" type="curve" smooth="yes"/>
    </contour>
    <contour>
      <point x="313" y="716" type="line" smooth="yes"/>
      <point x="324" y="705"/>
      <point x="336" y="706"/>
      <point x="347" y="716" type="curve" smooth="yes"/>
      <point x="444" y="810" type="line"/>
      <point x="444" y="816"/>
      <point x="440" y="820"/>
      <point x="435" y="821" type="curve"/>
      <point x="343" y="769" type="line" smooth="yes"/>
      <point x="331" y="762"/>
      <point x="329" y="763"/>
      <point x="318" y="769" type="curve" smooth="yes"/>
      <point x="227" y="821" type="line"/>
      <point x="221" y="821"/>
      <point x="216" y="816"/>
      <point x="216" y="810" type="curve"/>
    </contour>
  </outline>
</glyph>
<glyph name="Uhungarumlaut.titling" format="1">
  <advance width="753"/>
  <unicode hex="E05E"/>
  <outline>
    <contour>
      <point x="651" y="414" type="line" smooth="yes" name="hr00"/>
      <point x="651" y="450"/>
      <point x="650" y="584"/>
      <point x="666" y="620" type="curve" smooth="yes"/>
      <point x="670" y="630"/>
      <point x="689" y="638"/>
      <point x="708" y="642" type="curve" smooth="yes"/>
      <point x="735" y="647" type="line"/>
      <point x="739" y="653"/>
      <point x="738" y="660"/>
      <point x="734" y="663" type="curve"/>
      <point x="700" y="661"/>
      <point x="673" y="660"/>
      <point x="636" y="660" type="curve" smooth="yes"/>
      <point x="598" y="660"/>
      <point x="561" y="661"/>
      <point x="521" y="663" type="curve"/>
      <point x="517" y="661"/>
      <point x="516" y="651"/>
      <point x="520" y="647" type="curve"/>
      <point x="550" y="643" type="line" smooth="yes"/>
      <point x="575" y="640"/>
      <point x="593" y="632"/>
      <point x="600" y="621" type="curve" smooth="yes"/>
      <point x="617" y="591"/>
      <point x="619" y="461"/>
      <point x="619" y="414" type="curve" smooth="yes"/>
      <point x="619" y="282" type="line" smooth="yes"/>
      <point x="619" y="130"/>
      <point x="564" y="17"/>
      <point x="409" y="17" type="curve" smooth="yes"/>
      <point x="254" y="17"/>
      <point x="201" y="127"/>
      <point x="201" y="281" type="curve" smooth="yes"/>
      <point x="201" y="500" type="line" smooth="yes"/>
      <point x="201" y="558"/>
      <point x="204" y="608"/>
      <point x="215" y="623" type="curve" smooth="yes"/>
      <point x="225" y="636"/>
      <point x="246" y="640"/>
      <point x="262" y="643" type="curve" smooth="yes"/>
      <point x="287" y="647" type="line"/>
      <point x="291" y="653"/>
      <point x="291" y="660"/>
      <point x="286" y="663" type="curve"/>
      <point x="241" y="661"/>
      <point x="206" y="660"/>
      <point x="163" y="660" type="curve" smooth="yes"/>
      <point x="122" y="660"/>
      <point x="90" y="661"/>
      <point x="43" y="663" type="curve"/>
      <point x="38" y="659"/>
      <point x="38" y="653"/>
      <point x="42" y="647" type="curve"/>
      <point x="64" y="643" type="line" smooth="yes"/>
      <point x="80" y="640"/>
      <point x="101" y="636"/>
      <point x="111" y="623" type="curve" smooth="yes"/>
      <point x="122" y="609"/>
      <point x="125" y="558"/>
      <point x="125" y="500" type="curve" smooth="yes"/>
      <point x="125" y="266" type="line" smooth="yes"/>
      <point x="125" y="157"/>
      <point x="149" y="84"/>
      <point x="201" y="40" type="curve" smooth="yes"/>
      <point x="250" y="-3"/>
      <point x="314" y="-16"/>
      <point x="392" y="-16" type="curve" smooth="yes"/>
      <point x="468" y="-16"/>
      <point x="543" y="9"/>
      <point x="586" y="56" type="curve" smooth="yes"/>
      <point x="640" y="116"/>
      <point x="651" y="201"/>
      <point x="651" y="284" type="curve" smooth="yes"/>
    </contour>
    <contour>
      <point x="500" y="824" type="curve" smooth="yes"/>
      <point x="494" y="824"/>
      <point x="488" y="820"/>
      <point x="481" y="809" type="curve"/>
      <point x="436" y="721" type="line"/>
      <point x="435" y="714"/>
      <point x="443" y="709"/>
      <point x="449" y="707" type="curve"/>
      <point x="517" y="769" type="line" smooth="yes"/>
      <point x="525" y="776"/>
      <point x="530" y="783"/>
      <point x="534" y="786" type="curve"/>
      <point x="539" y="793"/>
      <point x="536" y="803"/>
      <point x="523" y="813" type="curve" smooth="yes"/>
      <point x="514" y="820"/>
      <point x="506" y="824"/>
    </contour>
    <contour>
      <point x="383" y="824" type="curve" smooth="yes"/>
      <point x="377" y="824"/>
      <point x="371" y="820"/>
      <point x="364" y="809" type="curve"/>
      <point x="319" y="721" type="line"/>
      <point x="318" y="714"/>
      <point x="326" y="709"/>
      <point x="332" y="707" type="curve"/>
      <point x="400" y="769" type="line" smooth="yes"/>
      <point x="406" y="775"/>
      <point x="412" y="783"/>
      <point x="416" y="788" type="curve"/>
      <point x="420" y="796"/>
      <point x="417" y="803"/>
      <point x="407" y="812" type="curve" smooth="yes"/>
      <point x="400" y="819"/>
      <point x="389" y="824"/>
    </contour>
  </outline>
</glyph>
<glyph name="W.titling" format="1">
  <advance width="954"/>
  <unicode hex="E063"/>
  <outline>
    <contour>
      <point x="983" y="647" type="line" name="hr00"/>
      <point x="986" y="654"/>
      <point x="985" y="659"/>
      <point x="981" y="663" type="curve"/>
      <point x="958" y="661"/>
      <point x="929" y="660"/>
      <point x="891" y="660" type="curve" smooth="yes"/>
      <point x="860" y="660"/>
      <point x="832" y="661"/>
      <point x="794" y="663" type="curve"/>
      <point x="789" y="659"/>
      <point x="789" y="653"/>
      <point x="793" y="647" type="curve"/>
      <point x="822" y="642" type="line" smooth="yes"/>
      <point x="844" y="638"/>
      <point x="859" y="634"/>
      <point x="859" y="619" type="curve" smooth="yes"/>
      <point x="859" y="602"/>
      <point x="836" y="541"/>
      <point x="829" y="523" type="curve" smooth="yes"/>
      <point x="821" y="503"/>
      <point x="769" y="372"/>
      <point x="749" y="324" type="curve" smooth="yes"/>
      <point x="691" y="185" type="line" smooth="yes"/>
      <point x="675" y="146"/>
      <point x="658" y="114"/>
      <point x="652" y="102" type="curve"/>
      <point x="647" y="109"/>
      <point x="626" y="152"/>
      <point x="604" y="200" type="curve" smooth="yes"/>
      <point x="550" y="320" type="line" smooth="yes"/>
      <point x="542" y="337"/>
      <point x="537" y="350"/>
      <point x="537" y="355" type="curve" smooth="yes"/>
      <point x="537" y="362"/>
      <point x="543" y="373"/>
      <point x="548" y="385" type="curve" smooth="yes"/>
      <point x="560" y="414"/>
      <point x="606" y="513"/>
      <point x="625" y="550" type="curve" smooth="yes"/>
      <point x="643" y="585"/>
      <point x="655" y="604"/>
      <point x="666" y="617" type="curve"/>
      <point x="675" y="630"/>
      <point x="688" y="639"/>
      <point x="707" y="642" type="curve" smooth="yes"/>
      <point x="742" y="647" type="line"/>
      <point x="745" y="653"/>
      <point x="745" y="659"/>
      <point x="740" y="663" type="curve"/>
      <point x="716" y="661"/>
      <point x="676" y="660"/>
      <point x="643" y="660" type="curve" smooth="yes"/>
      <point x="605" y="660"/>
      <point x="575" y="661"/>
      <point x="553" y="663" type="curve"/>
      <point x="548" y="659"/>
      <point x="547" y="652"/>
      <point x="551" y="647" type="curve"/>
      <point x="590" y="640" type="line" smooth="yes"/>
      <point x="604" y="637"/>
      <point x="609" y="632"/>
      <point x="609" y="623" type="curve" smooth="yes"/>
      <point x="609" y="610"/>
      <point x="598" y="574"/>
      <point x="578" y="527" type="curve" smooth="yes"/>
      <point x="559" y="481"/>
      <point x="539" y="435"/>
      <point x="518" y="391" type="curve"/>
      <point x="488" y="454"/>
      <point x="457" y="517"/>
      <point x="428" y="582" type="curve" smooth="yes"/>
      <point x="424" y="592"/>
      <point x="417" y="612"/>
      <point x="417" y="621" type="curve" smooth="yes"/>
      <point x="417" y="634"/>
      <point x="430" y="637"/>
      <point x="453" y="642" type="curve" smooth="yes"/>
      <point x="478" y="647" type="line"/>
      <point x="481" y="652"/>
      <point x="481" y="660"/>
      <point x="476" y="663" type="curve"/>
      <point x="454" y="661"/>
      <point x="414" y="660"/>
      <point x="376" y="660" type="curve" smooth="yes"/>
      <point x="335" y="660"/>
      <point x="299" y="661"/>
      <point x="271" y="663" type="curve"/>
      <point x="265" y="660"/>
      <point x="264" y="653"/>
      <point x="269" y="647" type="curve"/>
      <point x="293" y="642" type="line" smooth="yes"/>
      <point x="305" y="640"/>
      <point x="318" y="633"/>
      <point x="325" y="625" type="curve" smooth="yes"/>
      <point x="331" y="619"/>
      <point x="340" y="607"/>
      <point x="356" y="572" type="curve" smooth="yes"/>
      <point x="464" y="343" type="line" smooth="yes"/>
      <point x="470" y="329"/>
      <point x="475" y="317"/>
      <point x="475" y="311" type="curve" smooth="yes"/>
      <point x="475" y="304"/>
      <point x="471" y="285"/>
      <point x="460" y="263" type="curve" smooth="yes"/>
      <point x="429" y="198" type="line" smooth="yes"/>
      <point x="404" y="146"/>
      <point x="390" y="115"/>
      <point x="382" y="102" type="curve"/>
      <point x="376" y="114"/>
      <point x="342" y="180"/>
      <point x="326" y="215" type="curve" smooth="yes"/>
      <point x="205" y="486" type="line" smooth="yes"/>
      <point x="173" y="557"/>
      <point x="152" y="608"/>
      <point x="152" y="622" type="curve" smooth="yes"/>
      <point x="152" y="635"/>
      <point x="160" y="638"/>
      <point x="181" y="642" type="curve" smooth="yes"/>
      <point x="206" y="647" type="line"/>
      <point x="209" y="652"/>
      <point x="209" y="660"/>
      <point x="204" y="663" type="curve"/>
      <point x="171" y="661"/>
      <point x="131" y="660"/>
      <point x="92" y="660" type="curve" smooth="yes"/>
      <point x="56" y="660"/>
      <point x="20" y="661"/>
      <point x="-3" y="663" type="curve"/>
      <point x="-9" y="661"/>
      <point x="-9" y="655"/>
      <point x="-6" y="647" type="curve"/>
      <point x="25" y="641" type="line" smooth="yes"/>
      <point x="37" y="639"/>
      <point x="53" y="631"/>
      <point x="60" y="621" type="curve" smooth="yes"/>
      <point x="67" y="612"/>
      <point x="75" y="600"/>
      <point x="91" y="565" type="curve" smooth="yes"/>
      <point x="281" y="148" type="line" smooth="yes"/>
      <point x="294" y="119"/>
      <point x="334" y="29"/>
      <point x="351" y="-13" type="curve"/>
      <point x="353" y="-15"/>
      <point x="357" y="-16"/>
      <point x="360" y="-16" type="curve" smooth="yes"/>
      <point x="364" y="-16"/>
      <point x="368" y="-15"/>
      <point x="369" y="-13" type="curve" smooth="yes"/>
      <point x="404" y="83"/>
      <point x="454" y="179"/>
      <point x="496" y="268" type="curve"/>
      <point x="533" y="190"/>
      <point x="594" y="69"/>
      <point x="624" y="-13" type="curve"/>
      <point x="626" y="-15"/>
      <point x="630" y="-16"/>
      <point x="634" y="-16" type="curve" smooth="yes"/>
      <point x="637" y="-16"/>
      <point x="641" y="-15"/>
      <point x="643" y="-13" type="curve"/>
      <point x="675" y="71" type="line" smooth="yes"/>
      <point x="686" y="100"/>
      <point x="758" y="270"/>
      <point x="769" y="294" type="curve" smooth="yes"/>
      <point x="840" y="455" type="line" smooth="yes"/>
      <point x="885" y="556"/>
      <point x="901" y="589"/>
      <point x="911" y="607" type="curve" smooth="yes"/>
      <point x="921" y="626"/>
      <point x="935" y="639"/>
      <point x="954" y="642" type="curve" smooth="yes"/>
    </contour>
  </outline>
</glyph>
<glyph name="c_t" format="1">
  <advance width="702"/>
  <unicode hex="E076"/>
  <outline>
    <contour>
      <point x="35" y="183" type="curve" smooth="yes" name="hr01"/>
      <point x="35" y="78"/>
      <point x="100" y="-14"/>
      <point x="225" y="-14" type="curve" smooth="yes"/>
      <point x="282" y="-14"/>
      <point x="392" y="23"/>
      <point x="420" y="152" type="curve"/>
      <point x="417" y="162"/>
      <point x="409" y="163"/>
      <point x="398" y="159" type="curve"/>
      <point x="370" y="94"/>
      <point x="324" y="47"/>
      <point x="250" y="47" type="curve" smooth="yes"/>
      <point x="168" y="47"/>
      <point x="104" y="117"/>
      <point x="104" y="214" type="curve" smooth="yes"/>
      <point x="104" y="302"/>
      <point x="154" y="375"/>
      <point x="228" y="375" type="curve" smooth="yes" name="hr02"/>
      <point x="264" y="375"/>
      <point x="289" y="353"/>
      <point x="300" y="340" type="curve" smooth="yes"/>
      <point x="308" y="331"/>
      <point x="314" y="328"/>
      <point x="317" y="328" type="curve" smooth="yes"/>
      <point x="328" y="328"/>
      <point x="342" y="345"/>
      <point x="342" y="363" type="curve" smooth="yes"/>
      <point x="342" y="378"/>
      <point x="339" y="389"/>
      <point x="329" y="397" type="curve"/>
      <point x="307" y="406"/>
      <point x="273" y="409"/>
      <point x="242" y="408" type="curve"/>
      <point x="228" y="430"/>
      <point x="222" y="461"/>
      <point x="222" y="487" type="curve" smooth="yes"/>
      <point x="222" y="524"/>
      <point x="246" y="634"/>
      <point x="356" y="634" type="curve" smooth="yes"/>
      <point x="483" y="634"/>
      <point x="483" y="517"/>
      <point x="483" y="461" type="curve" smooth="yes"/>
      <point x="483" y="422" type="line" smooth="yes" name="hr03"/>
      <point x="483" y="402"/>
      <point x="481" y="397"/>
      <point x="465" y="390" type="curve" smooth="yes"/>
      <point x="426" y="373" type="line"/>
      <point x="422" y="367"/>
      <point x="423" y="356"/>
      <point x="429" y="352" type="curve"/>
      <point x="462" y="352" type="line" smooth="yes"/>
      <point x="482" y="352"/>
      <point x="483" y="350"/>
      <point x="483" y="323" type="curve" smooth="yes"/>
      <point x="483" y="94" type="line" smooth="yes"/>
      <point x="483" y="34"/>
      <point x="501" y="-14"/>
      <point x="587" y="-14" type="curve" smooth="yes"/>
      <point x="638" y="-14"/>
      <point x="674" y="11"/>
      <point x="692" y="32" type="curve"/>
      <point x="694" y="38"/>
      <point x="690" y="49"/>
      <point x="682" y="49" type="curve" smooth="yes" name="hr04"/>
      <point x="679" y="49"/>
      <point x="666" y="38"/>
      <point x="657" y="35" type="curve" smooth="yes"/>
      <point x="649" y="32"/>
      <point x="640" y="30"/>
      <point x="630" y="30" type="curve" smooth="yes"/>
      <point x="564" y="30"/>
      <point x="557" y="83"/>
      <point x="557" y="141" type="curve" smooth="yes"/>
      <point x="557" y="328" type="line" smooth="yes"/>
      <point x="557" y="349"/>
      <point x="558" y="352"/>
      <point x="575" y="352" type="curve" smooth="yes"/>
      <point x="688" y="352" type="line"/>
      <point x="697" y="358"/>
      <point x="699" y="385"/>
      <point x="687" y="394" type="curve"/>
      <point x="576" y="394" type="line" smooth="yes"/>
      <point x="559" y="394"/>
      <point x="558" y="395"/>
      <point x="558" y="413" type="curve" smooth="yes"/>
      <point x="558" y="480" type="line" smooth="yes"/>
      <point x="558" y="605"/>
      <point x="502" y="675"/>
      <point x="382" y="675" type="curve" smooth="yes"/>
      <point x="333" y="675"/>
      <point x="268" y="655"/>
      <point x="226" y="598" type="curve" smooth="yes"/>
      <point x="198" y="560"/>
      <point x="189" y="516"/>
      <point x="189" y="482" type="curve" smooth="yes" name="hr05"/>
      <point x="189" y="451"/>
      <point x="198" y="423"/>
      <point x="209" y="404" type="curve"/>
      <point x="163" y="392"/>
      <point x="130" y="373"/>
      <point x="97" y="341" type="curve" smooth="yes"/>
      <point x="65" y="310"/>
      <point x="35" y="255"/>
    </contour>
  </outline>
</glyph>
<glyph name="caron.titling" format="1">
  <advance width="360"/>
  <unicode hex="E078"/>
  <outline>
    <contour>
      <point x="163" y="716" type="line" smooth="yes" name="hr00"/>
      <point x="174" y="705"/>
      <point x="186" y="706"/>
      <point x="197" y="716" type="curve" smooth="yes"/>
      <point x="294" y="810" type="line"/>
      <point x="294" y="816"/>
      <point x="290" y="820"/>
      <point x="285" y="821" type="curve"/>
      <point x="193" y="769" type="line" smooth="yes"/>
      <point x="181" y="762"/>
      <point x="179" y="763"/>
      <point x="168" y="769" type="curve" smooth="yes"/>
      <point x="77" y="821" type="line"/>
      <point x="71" y="821"/>
      <point x="66" y="816"/>
      <point x="66" y="810" type="curve"/>
    </contour>
  </outline>
</glyph>
<glyph name="copyright.titling" format="1">
  <advance width="699"/>
  <unicode hex="E07F"/>
  <outline>
    <contour>
      <point x="382" y="519" type="curve" smooth="yes" name="hr00"/>
      <point x="263" y="519"/>
      <point x="170" y="444"/>
      <point x="170" y="323" type="curve" smooth="yes"/>
      <point x="170" y="234"/>
      <point x="236" y="142"/>
      <point x="378" y="142" type="curve" smooth="yes"/>
      <point x="422" y="142"/>
      <point x="474" y="158"/>
      <point x="492" y="164" type="curve"/>
      <point x="504" y="184"/>
      <point x="516" y="230"/>
      <point x="518" y="255" type="curve"/>
      <point x="515" y="259"/>
      <point x="510" y="259"/>
      <point x="505" y="258" type="curve"/>
      <point x="478" y="200"/>
      <point x="444" y="161"/>
      <point x="382" y="161" type="curve" smooth="yes"/>
      <point x="296" y="161"/>
      <point x="239" y="230"/>
      <point x="239" y="334" type="curve" smooth="yes"/>
      <point x="239" y="425"/>
      <point x="284" y="501"/>
      <point x="376" y="501" type="curve" smooth="yes"/>
      <point x="436" y="501"/>
      <point x="470" y="471"/>
      <point x="491" y="416" type="curve"/>
      <point x="496" y="414"/>
      <point x="505" y="415"/>
      <point x="506" y="419" type="curve"/>
      <point x="501" y="451"/>
      <point x="497" y="475"/>
      <point x="495" y="505" type="curve"/>
      <point x="483" y="506"/>
      <point x="436" y="519"/>
    </contour>
    <contour>
      <point x="350" y="15" type="curve" smooth="yes"/>
      <point x="527" y="15"/>
      <point x="659" y="156"/>
      <point x="659" y="330" type="curve" smooth="yes"/>
      <point x="659" y="504"/>
      <point x="527" y="645"/>
      <point x="350" y="645" type="curve" smooth="yes"/>
      <point x="172" y="645"/>
      <point x="40" y="504"/>
      <point x="40" y="330" type="curve" smooth="yes"/>
      <point x="40" y="156"/>
      <point x="172" y="15"/>
    </contour>
    <contour>
      <point x="350" y="625" type="curve" smooth="yes"/>
      <point x="508" y="625"/>
      <point x="632" y="495"/>
      <point x="632" y="331" type="curve" smooth="yes"/>
      <point x="632" y="165"/>
      <point x="508" y="35"/>
      <point x="350" y="35" type="curve" smooth="yes"/>
      <point x="191" y="35"/>
      <point x="69" y="165"/>
      <point x="69" y="331" type="curve" smooth="yes"/>
      <point x="69" y="495"/>
      <point x="191" y="625"/>
    </contour>
  </outline>
</glyph>
<glyph name="ellipsis.titling" format="1">
  <advance width="1000"/>
  <unicode hex="E085"/>
  <outline>
    <contour>
      <point x="500" y="-14" type="curve" smooth="yes" name="hr00"/>
      <point x="531" y="-14"/>
      <point x="551" y="8"/>
      <point x="551" y="36" type="curve" smooth="yes"/>
      <point x="551" y="65"/>
      <point x="531" y="90"/>
      <point x="500" y="90" type="curve" smooth="yes"/>
      <point x="471" y="90"/>
      <point x="449" y="67"/>
      <point x="449" y="36" type="curve" smooth="yes"/>
      <point x="449" y="6"/>
      <point x="474" y="-14"/>
    </contour>
    <contour>
      <point x="833" y="-14" type="curve" smooth="yes"/>
      <point x="864" y="-14"/>
      <point x="884" y="8"/>
      <point x="884" y="36" type="curve" smooth="yes"/>
      <point x="884" y="65"/>
      <point x="864" y="90"/>
      <point x="833" y="90" type="curve" smooth="yes"/>
      <point x="804" y="90"/>
      <point x="782" y="67"/>
      <point x="782" y="36" type="curve" smooth="yes"/>
      <point x="782" y="6"/>
      <point x="807" y="-14"/>
    </contour>
    <contour>
      <point x="167" y="-14" type="curve" smooth="yes"/>
      <point x="198" y="-14"/>
      <point x="218" y="8"/>
      <point x="218" y="36" type="curve" smooth="yes"/>
      <point x="218" y="65"/>
      <point x="198" y="90"/>
      <point x="167" y="90" type="curve" smooth="yes"/>
      <point x="138" y="90"/>
      <point x="116" y="67"/>
      <point x="116" y="36" type="curve" smooth="yes"/>
      <point x="116" y="6"/>
      <point x="141" y="-14"/>
    </contour>
  </outline>
</glyph>
<glyph name="exclam.titling" format="1">
  <advance width="210"/>
  <unicode hex="E086"/>
  <outline>
    <contour>
      <point x="105" y="-14" type="curve" smooth="yes" name="hr01"/>
      <point x="136" y="-14"/>
      <point x="156" y="8"/>
      <point x="156" y="36" type="curve" smooth="yes"/>
      <point x="156" y="65"/>
      <point x="136" y="90"/>
      <point x="105" y="90" type="curve" smooth="yes"/>
      <point x="76" y="90"/>
      <point x="54" y="67"/>
      <point x="54" y="36" type="curve" smooth="yes"/>
      <point x="54" y="6"/>
      <point x="79" y="-14"/>
    </contour>
    <contour>
      <point x="105" y="646" type="curve" smooth="yes" name="hr02"/>
      <point x="76" y="646"/>
      <point x="58" y="642"/>
      <point x="58" y="617" type="curve" smooth="yes"/>
      <point x="58" y="602"/>
      <point x="61" y="581"/>
      <point x="64" y="553" type="curve" smooth="yes"/>
      <point x="76" y="437"/>
      <point x="86" y="321"/>
      <point x="96" y="205" type="curve"/>
      <point x="100" y="199"/>
      <point x="109" y="199"/>
      <point x="114" y="205" type="curve"/>
      <point x="124" y="321"/>
      <point x="134" y="437"/>
      <point x="146" y="553" type="curve" smooth="yes"/>
      <point x="149" y="581"/>
      <point x="152" y="602"/>
      <point x="152" y="617" type="curve" smooth="yes"/>
      <point x="152" y="642"/>
      <point x="134" y="646"/>
    </contour>
  </outline>
</glyph>
<glyph name="exclamdown.titling" format="1">
  <advance width="210"/>
  <unicode hex="E087"/>
  <outline>
    <contour>
      <point x="105" y="-12" type="curve" smooth="yes" name="hr01"/>
      <point x="134" y="-12"/>
      <point x="152" y="-8"/>
      <point x="152" y="17" type="curve" smooth="yes"/>
      <point x="152" y="32"/>
      <point x="149" y="53"/>
      <point x="146" y="81" type="curve" smooth="yes"/>
      <point x="134" y="197"/>
      <point x="124" y="313"/>
      <point x="114" y="429" type="curve"/>
      <point x="110" y="435"/>
      <point x="101" y="435"/>
      <point x="96" y="429" type="curve"/>
      <point x="86" y="313"/>
      <point x="76" y="197"/>
      <point x="64" y="81" type="curve" smooth="yes"/>
      <point x="61" y="53"/>
      <point x="58" y="32"/>
      <point x="58" y="17" type="curve" smooth="yes"/>
      <point x="58" y="-8"/>
      <point x="76" y="-12"/>
    </contour>
    <contour>
      <point x="105" y="648" type="curve" smooth="yes" name="hr02"/>
      <point x="74" y="648"/>
      <point x="54" y="626"/>
      <point x="54" y="598" type="curve" smooth="yes"/>
      <point x="54" y="569"/>
      <point x="74" y="544"/>
      <point x="105" y="544" type="curve" smooth="yes"/>
      <point x="134" y="544"/>
      <point x="156" y="567"/>
      <point x="156" y="598" type="curve" smooth="yes"/>
      <point x="156" y="628"/>
      <point x="131" y="648"/>
    </contour>
  </outline>
</glyph>
<glyph name="f_f_j" format="1">
  <advance width="782"/>
  <unicode hex="E088"/>
  <outline>
    <contour>
      <point x="95" y="112" type="line" smooth="yes" name="hr01"/>
      <point x="95" y="40"/>
      <point x="94" y="30"/>
      <point x="57" y="25" type="curve" smooth="yes"/>
      <point x="34" y="22" type="line"/>
      <point x="27" y="17"/>
      <point x="29" y="0"/>
      <point x="36" y="-3" type="curve"/>
      <point x="66" y="-1"/>
      <point x="96" y="0"/>
      <point x="132" y="0" type="curve" smooth="yes"/>
      <point x="167" y="0"/>
      <point x="196" y="-1"/>
      <point x="241" y="-3" type="curve"/>
      <point x="248" y="0"/>
      <point x="250" y="17"/>
      <point x="243" y="22" type="curve"/>
      <point x="207" y="25" type="line" smooth="yes"/>
      <point x="171" y="28"/>
      <point x="169" y="40"/>
      <point x="169" y="112" type="curve" smooth="yes"/>
      <point x="169" y="323" type="line" smooth="yes"/>
      <point x="169" y="350"/>
      <point x="169" y="352"/>
      <point x="186" y="352" type="curve" smooth="yes"/>
      <point x="343" y="352" type="line" smooth="yes"/>
      <point x="363" y="352"/>
      <point x="363" y="350"/>
      <point x="363" y="323" type="curve" smooth="yes"/>
      <point x="363" y="112" type="line" smooth="yes"/>
      <point x="363" y="40"/>
      <point x="362" y="30"/>
      <point x="325" y="25" type="curve" smooth="yes"/>
      <point x="302" y="22" type="line"/>
      <point x="295" y="17"/>
      <point x="297" y="0"/>
      <point x="304" y="-3" type="curve"/>
      <point x="334" y="-1"/>
      <point x="364" y="0"/>
      <point x="400" y="0" type="curve" smooth="yes"/>
      <point x="435" y="0"/>
      <point x="464" y="-1"/>
      <point x="505" y="-3" type="curve"/>
      <point x="512" y="0"/>
      <point x="514" y="17"/>
      <point x="507" y="22" type="curve"/>
      <point x="475" y="25" type="line" smooth="yes"/>
      <point x="439" y="28"/>
      <point x="437" y="40"/>
      <point x="437" y="112" type="curve" smooth="yes"/>
      <point x="437" y="321" type="line" smooth="yes"/>
      <point x="437" y="345"/>
      <point x="439" y="352"/>
      <point x="456" y="352" type="curve" smooth="yes"/>
      <point x="581" y="352" type="line" smooth="yes"/>
      <point x="624" y="352"/>
      <point x="631" y="347"/>
      <point x="631" y="286" type="curve" smooth="yes"/>
      <point x="631" y="35" type="line" smooth="yes"/>
      <point x="631" y="-87"/>
      <point x="613" y="-159"/>
      <point x="577" y="-201" type="curve" smooth="yes"/>
      <point x="563" y="-217"/>
      <point x="544" y="-233"/>
      <point x="518" y="-246" type="curve"/>
      <point x="514" y="-256"/>
      <point x="520" y="-267"/>
      <point x="532" y="-269" type="curve"/>
      <point x="601" y="-226"/>
      <point x="654" y="-178"/>
      <point x="684" y="-106" type="curve" smooth="yes"/>
      <point x="698" y="-72"/>
      <point x="705" y="-22"/>
      <point x="705" y="50" type="curve" smooth="yes"/>
      <point x="705" y="278" type="line" smooth="yes"/>
      <point x="705" y="319"/>
      <point x="707" y="367"/>
      <point x="709" y="403" type="curve" name="hr02"/>
      <point x="707" y="406"/>
      <point x="703" y="408"/>
      <point x="699" y="408" type="curve"/>
      <point x="675" y="399"/>
      <point x="612" y="394"/>
      <point x="568" y="394" type="curve" smooth="yes" name="hr03"/>
      <point x="456" y="394" type="line" smooth="yes"/>
      <point x="439" y="394"/>
      <point x="437" y="400"/>
      <point x="437" y="425" type="curve" smooth="yes"/>
      <point x="437" y="436" type="line" smooth="yes"/>
      <point x="437" y="595"/>
      <point x="473" y="677"/>
      <point x="551" y="677" type="curve" smooth="yes"/>
      <point x="577" y="677"/>
      <point x="616" y="660"/>
      <point x="645" y="611" type="curve" smooth="yes"/>
      <point x="650" y="603"/>
      <point x="657" y="596"/>
      <point x="671" y="596" type="curve" smooth="yes"/>
      <point x="686" y="596"/>
      <point x="712" y="607"/>
      <point x="712" y="637" type="curve" smooth="yes"/>
      <point x="712" y="679"/>
      <point x="656" y="715"/>
      <point x="588" y="715" type="curve" smooth="yes"/>
      <point x="512" y="715"/>
      <point x="454" y="678"/>
      <point x="428" y="646" type="curve"/>
      <point x="415" y="664"/>
      <point x="375" y="691"/>
      <point x="313" y="691" type="curve" smooth="yes" name="hr04"/>
      <point x="215" y="691"/>
      <point x="157" y="625"/>
      <point x="129" y="567" type="curve" smooth="yes"/>
      <point x="103" y="512"/>
      <point x="95" y="446"/>
      <point x="95" y="412" type="curve" smooth="yes"/>
      <point x="95" y="402"/>
      <point x="88" y="396"/>
      <point x="80" y="392" type="curve" smooth="yes"/>
      <point x="37" y="371" type="line"/>
      <point x="33" y="365"/>
      <point x="34" y="356"/>
      <point x="40" y="352" type="curve"/>
      <point x="75" y="352" type="line" smooth="yes"/>
      <point x="95" y="352"/>
      <point x="95" y="350"/>
      <point x="95" y="323" type="curve" smooth="yes"/>
    </contour>
    <contour>
      <point x="198" y="394" type="line" smooth="yes"/>
      <point x="169" y="394"/>
      <point x="169" y="395"/>
      <point x="169" y="422" type="curve" smooth="yes"/>
      <point x="169" y="427" type="line" smooth="yes"/>
      <point x="169" y="532"/>
      <point x="180" y="656"/>
      <point x="289" y="656" type="curve" smooth="yes"/>
      <point x="342" y="656"/>
      <point x="380" y="616"/>
      <point x="389" y="584" type="curve"/>
      <point x="371" y="527"/>
      <point x="363" y="474"/>
      <point x="363" y="412" type="curve" smooth="yes"/>
      <point x="363" y="402"/>
      <point x="356" y="394"/>
      <point x="348" y="394" type="curve" smooth="yes"/>
    </contour>
  </outline>
</glyph>
<glyph name="florin.titling" format="1">
  <advance width="500"/>
  <unicode hex="E08B"/>
  <outline>
    <contour>
      <point x="107" y="422" type="line" name="hr00"/>
      <point x="100" y="416"/>
      <point x="100" y="399"/>
      <point x="107" y="394" type="curve"/>
      <point x="192" y="394" type="line"/>
      <point x="171" y="264"/>
      <point x="148" y="136"/>
      <point x="137" y="67" type="curve" smooth="yes"/>
      <point x="117" y="-65"/>
      <point x="95" y="-86"/>
      <point x="76" y="-86" type="curve" smooth="yes"/>
      <point x="58" y="-86"/>
      <point x="30" y="-68"/>
      <point x="11" y="-51" type="curve"/>
      <point x="5" y="-44"/>
      <point x="-6" y="-36"/>
      <point x="-14" y="-36" type="curve" smooth="yes"/>
      <point x="-20" y="-36"/>
      <point x="-21" y="-42"/>
      <point x="-21" y="-58" type="curve" smooth="yes"/>
      <point x="-21" y="-92"/>
      <point x="1" y="-122"/>
      <point x="28" y="-122" type="curve" smooth="yes"/>
      <point x="66" y="-122"/>
      <point x="95" y="-103"/>
      <point x="118" y="-82" type="curve" smooth="yes"/>
      <point x="159" y="-45"/>
      <point x="201" y="27"/>
      <point x="235" y="237" type="curve" smooth="yes"/>
      <point x="244" y="290"/>
      <point x="253" y="341"/>
      <point x="263" y="394" type="curve"/>
      <point x="384" y="394" type="line"/>
      <point x="394" y="401"/>
      <point x="392" y="416"/>
      <point x="384" y="422" type="curve"/>
      <point x="271" y="422" type="line"/>
      <point x="290" y="545"/>
      <point x="316" y="665"/>
      <point x="360" y="665" type="curve" smooth="yes"/>
      <point x="386" y="665"/>
      <point x="404" y="647"/>
      <point x="416" y="628" type="curve" smooth="yes"/>
      <point x="424" y="616"/>
      <point x="431" y="610"/>
      <point x="438" y="610" type="curve" smooth="yes"/>
      <point x="444" y="610"/>
      <point x="471" y="627"/>
      <point x="471" y="646" type="curve" smooth="yes"/>
      <point x="471" y="668"/>
      <point x="450" y="697"/>
      <point x="403" y="697" type="curve" smooth="yes"/>
      <point x="328" y="697"/>
      <point x="266" y="619"/>
      <point x="240" y="565" type="curve" smooth="yes"/>
      <point x="222" y="527"/>
      <point x="210" y="482"/>
      <point x="199" y="422" type="curve"/>
    </contour>
  </outline>
</glyph>
<glyph name="guilsinglright.titling" format="1">
  <advance width="236"/>
  <unicode hex="E091"/>
  <outline>
    <contour>
      <point x="119" y="218" type="line" smooth="yes" name="hr00"/>
      <point x="124" y="209"/>
      <point x="123" y="201"/>
      <point x="119" y="194" type="curve" smooth="yes"/>
      <point x="49" y="50" type="line"/>
      <point x="49" y="43"/>
      <point x="53" y="38"/>
      <point x="61" y="39" type="curve"/>
      <point x="100" y="89"/>
      <point x="138" y="140"/>
      <point x="180" y="190" type="curve" smooth="yes"/>
      <point x="189" y="201"/>
      <point x="190" y="209"/>
      <point x="180" y="221" type="curve" smooth="yes"/>
      <point x="139" y="271"/>
      <point x="100" y="321"/>
      <point x="61" y="371" type="curve"/>
      <point x="54" y="371"/>
      <point x="50" y="367"/>
      <point x="49" y="360" type="curve"/>
    </contour>
  </outline>
</glyph>
